{
.appVersion = "1342";
DisplayStrings = (
"Â"
);
copyright = "Copyright (c) 2011 TypeSETit, LLC (typesetit@att.net), with Reserved Font Name \"AlexBrush\"";
customParameters = (
{
name = trademark;
value = "AlexBrush is a trademark of Robert E. Leuschke.";
},
{
name = licenseURL;
value = "https://scripts.sil.org/OFL";
},
{
name = license;
value = "This Font Software is licensed under the SIL Open Font License, Version 1.1. This license is available with a FAQ at: https://scripts.sil.org/OFL";
},
{
name = vendorID;
value = "TSI ";
},
{
name = panose;
value = (
2,
0,
4,
0,
0,
0,
0,
0,
0,
0
);
},
{
name = unicodeRanges;
value = (
0,
1,
2,
3,
5,
7,
31,
33,
35,
38,
45,
60,
62
);
},
{
name = fsType;
value = (
);
},
{
name = glyphOrder;
value = (
.notdef,
exclam,
quotedbl,
numbersign,
dollar,
percent,
ampersand,
quotesingle,
parenleft,
parenright,
asterisk,
plus,
comma,
uni00AD,
period,
slash,
zero,
one,
two,
three,
four,
five,
six,
seven,
eight,
nine,
colon,
semicolon,
less,
equal,
greater,
question,
at,
A,
B,
C,
D,
E,
F,
G,
H,
I,
J,
K,
L,
M,
N,
O,
P,
Q,
R,
S,
T,
U,
V,
W,
X,
Y,
Z,
bracketleft,
backslash,
bracketright,
asciicircum,
underscore,
grave,
a,
b,
c,
d,
e,
f,
g,
h,
i,
j,
k,
l,
m,
n,
o,
p,
q,
r,
s,
t,
u,
v,
w,
x,
y,
z,
braceleft,
bar,
braceright,
asciitilde,
Ccedilla,
Udieresis,
aacute,
agrave,
acircumflex,
adieresis,
atilde,
aring,
ccedilla,
eacute,
egrave,
ecircumflex,
edieresis,
iacute,
igrave,
icircumflex,
idieresis,
ntilde,
oacute,
ograve,
ocircumflex,
odieresis,
otilde,
uacute,
ugrave,
ucircumflex,
udieresis,
dagger,
degree,
cent,
sterling,
section,
bullet,
paragraph,
germandbls,
registered,
copyright,
trademark,
acute,
dieresis,
plusminus,
ordfeminine,
ordmasculine,
ae,
questiondown,
exclamdown,
logicalnot,
florin,
guillemotleft,
guillemotright,
ellipsis,
nbspace,
Otilde,
endash,
emdash,
quotedblleft,
quotedblright,
quoteleft,
quoteright,
divide,
ydieresis,
Ydieresis,
daggerdbl,
quotesinglbase,
quotedblbase,
perthousand,
Acircumflex,
Ecircumflex,
Aacute,

glyphs = (
{
glyphname = exclam;
layers = (
{
hints = (
{
horizontal = 1;
place = "{2, 64}";
type = Stem;
},
{
horizontal = 1;
place = "{448, -20}";
target = down;
type = TopGhost;
},
{
place = "{77, 80}";
type = Stem;
}
);
layerId = "2B98CC2F-ACFB-4214-A552-9F7A1112B617";
paths = (
{
closed = 1;
nodes = (
"378 427 OFFCURVE",
"379 429 OFFCURVE",
"379 431 CURVE SMOOTH",
"379 436 OFFCURVE",
"373 441 OFFCURVE",
"362 444 CURVE SMOOTH",
"353 447 OFFCURVE",
"345 448 OFFCURVE",
"338 448 CURVE SMOOTH",
"319 448 OFFCURVE",
"282 407 OFFCURVE",
"228 326 CURVE SMOOTH",
"174 245 OFFCURVE",
"143 181 OFFCURVE",
"135 136 CURVE SMOOTH",
"133 123 OFFCURVE",
"134 117 OFFCURVE",
"139 117 CURVE SMOOTH",
"146 117 OFFCURVE",
"153 125 OFFCURVE",
"160 140 CURVE SMOOTH",
"168 159 OFFCURVE",
"199 203 OFFCURVE",
"252 274 CURVE SMOOTH",
"306 345 OFFCURVE",
"347 395 OFFCURVE",
"375 424 CURVE SMOOTH"
);
},
{
closed = 1;
nodes = (
"157 52 OFFCURVE",
"135 66 OFFCURVE",
"116 66 CURVE SMOOTH",
"90 66 OFFCURVE",
"77 57 OFFCURVE",
"77 38 CURVE SMOOTH",
"77 19 OFFCURVE",
"96 2 OFFCURVE",
"119 2 CURVE SMOOTH",
"135 2 OFFCURVE",
"157 17 OFFCURVE",
"157 33 CURVE SMOOTH"
);
}
);
width = 259;
}
);
note = exclam;
unicode = 0021;
},
{
glyphname = quotedbl;
layers = (
{
hints = (
{
horizontal = 1;
place = "{472, -20}";
target = down;
type = TopGhost;
},
{
place = "{34, 71}";
type = Stem;
},
{
place = "{135, 71}";
type = Stem;
}
);
layerId = "2B98CC2F-ACFB-4214-A552-9F7A1112B617";
paths = (
{
closed = 1;
nodes = (
"206 458 OFFCURVE",
"184 472 OFFCURVE",
"165 472 CURVE SMOOTH",
"145 472 OFFCURVE",
"135 462 OFFCURVE",
"135 442 CURVE SMOOTH",
"135 430 OFFCURVE",
"161 420 OFFCURVE",
"162 405 CURVE SMOOTH",
"163 391 OFFCURVE",
"156 376 OFFCURVE",
"141 359 CURVE SMOOTH",
"126 342 OFFCURVE",
"119 333 OFFCURVE",
"119 332 CURVE SMOOTH",
"119 331 OFFCURVE",
"120 330 OFFCURVE",
"123 329 CURVE SMOOTH",
"134 326 OFFCURVE",
"150 336 OFFCURVE",
"171 358 CURVE SMOOTH",
"194 383 OFFCURVE",
"206 409 OFFCURVE",
"206 438 CURVE SMOOTH"
);
},
{
closed = 1;
nodes = (
"105 458 OFFCURVE",
"82 472 OFFCURVE",
"63 472 CURVE SMOOTH",
"44 472 OFFCURVE",
"34 462 OFFCURVE",
"34 442 CURVE SMOOTH",
"34 430 OFFCURVE",
"60 420 OFFCURVE",
"61 405 CURVE SMOOTH",
"63 391 OFFCURVE",
"56 375 OFFCURVE",
"40 358 CURVE SMOOTH",
"25 341 OFFCURVE",
"17 333 OFFCURVE",
"17 332 CURVE SMOOTH",
"17 331 OFFCURVE",
"18 330 OFFCURVE",
"21 329 CURVE SMOOTH",
"32 326 OFFCURVE",
"48 336 OFFCURVE",
"69 358 CURVE SMOOTH",
"93 383 OFFCURVE",
"105 409 OFFCURVE",
"105 438 CURVE SMOOTH"
);
}
);
width = 206;
}
);
note = quotedbl;
unicode = 0022;
},
{
glyphname = numbersign;
layers = (
{
hints = (
{
horizontal = 1;
place = "{212, 45}";
type = Stem;
},
{
horizontal = 1;
place = "{431, 47}";
type = Stem;
}
);
layerId = "2B98CC2F-ACFB-4214-A552-9F7A1112B617";
paths = (
{
closed = 1;
nodes = (
"778 477 OFFCURVE",
"761 479 OFFCURVE",
"727 478 CURVE SMOOTH",
"680 476 OFFCURVE",
"630 475 OFFCURVE",
"577 474 CURVE",
"596 524 LINE SMOOTH",
"607 553 OFFCURVE",
"613 585 OFFCURVE",
"615 621 CURVE SMOOTH",
"615 637 OFFCURVE",
"610 648 OFFCURVE",
"605 647 CURVE SMOOTH",
"599 646 OFFCURVE",
"590 632 OFFCURVE",
"578 605 CURVE SMOOTH",
"559 564 OFFCURVE",
"541 520 OFFCURVE",
"523 473 CURVE",
"474 473 OFFCURVE",
"410 474 OFFCURVE",
"332 475 CURVE",
"350 524 LINE SMOOTH",
"360 551 OFFCURVE",
"365 583 OFFCURVE",
"366 622 CURVE SMOOTH",
"366 629 OFFCURVE",
"366 635 OFFCURVE",
"365 638 CURVE",
"364 646 OFFCURVE",
"361 650 OFFCURVE",
"356 649 CURVE SMOOTH",
"350 647 OFFCURVE",
"342 632 OFFCURVE",
"332 605 CURVE SMOOTH",
"286 475 LINE",
"218 476 OFFCURVE",
"165 477 OFFCURVE",
"128 477 CURVE SMOOTH",
"91 474 OFFCURVE",
"74 466 OFFCURVE",
"79 453 CURVE SMOOTH",
"83 438 OFFCURVE",
"114 430 OFFCURVE",
"172 431 CURVE SMOOTH",
"270 432 LINE",
"245 361 OFFCURVE",
"224 303 OFFCURVE",
"207 258 CURVE",
"41 257 LINE SMOOTH",
"4 255 OFFCURVE",
"-13 247 OFFCURVE",
"-9 233 CURVE SMOOTH",
"-4 218 OFFCURVE",
"27 211 OFFCURVE",
"84 211 CURVE SMOOTH",
"189 212 LINE",
"173 171 OFFCURVE",
"157 131 OFFCURVE",
"140 92 CURVE",
"136 79 OFFCURVE",
"134 68 OFFCURVE",
"134 58 CURVE SMOOTH",
"134 45 OFFCURVE",
"138 39 OFFCURVE",
"146 38 CURVE SMOOTH",
"161 37 OFFCURVE",
"179 63 OFFCURVE",
"198 117 CURVE SMOOTH",
"233 212 LINE",
"430 213 LINE",
"414 168 OFFCURVE",
"399 127 OFFCURVE",
"385 92 CURVE",
"382 79 OFFCURVE",
"380 68 OFFCURVE",
"380 58 CURVE SMOOTH",
"380 45 OFFCURVE",
"384 39 OFFCURVE",
"391 38 CURVE SMOOTH",
"407 37 OFFCURVE",
"425 63 OFFCURVE",
"444 117 CURVE SMOOTH",
"479 213 LINE",
"569 214 LINE SMOOTH",
"598 214 OFFCURVE",
"631 220 OFFCURVE",
"668 233 CURVE SMOOTH",
"683 238 OFFCURVE",
"690 243 OFFCURVE",
"690 248 CURVE SMOOTH",
"690 255 OFFCURVE",
"673 259 OFFCURVE",
"640 259 CURVE SMOOTH",
"496 258 LINE",
"562 433 LINE",
"656 433 LINE SMOOTH",
"684 433 OFFCURVE",
"717 440 OFFCURVE",
"755 455 CURVE SMOOTH",
"770 460 OFFCURVE",
"778 465 OFFCURVE",
"778 470 CURVE SMOOTH"
);
},
{
closed = 1;
nodes = (
"316 432 LINE",
"508 433 LINE",
"480 355 OFFCURVE",
"459 297 OFFCURVE",
"446 258 CURVE",
"250 258 LINE"
);
}
);
width = 791;
}
);
note = numbersign;
unicode = 0023;
},
{
glyphname = dollar;
layers = (
{
hints = (
{
horizontal = 1;
place = "{3, 21}";
target = up;
type = BottomGhost;
},
{
horizontal = 1;
place = "{734, -20}";
target = down;
type = TopGhost;
},
{
place = "{184, 39}";
type = Stem;
},
{
place = "{504, 27}";
type = Stem;
}
);
layerId = "2B98CC2F-ACFB-4214-A552-9F7A1112B617";
paths = (
{
closed = 1;
nodes = (
"332 400 OFFCURVE",
"362 392 OFFCURVE",
"378 385 CURVE SMOOTH",
"399 376 OFFCURVE",
"410 364 OFFCURVE",
"410 349 CURVE SMOOTH",
"410 340 OFFCURVE",
"406 329 OFFCURVE",
"399 317 CURVE SMOOTH",
"380 285 OFFCURVE",
"349 260 OFFCURVE",
"307 243 CURVE SMOOTH",
"269 228 OFFCURVE",
"228 220 OFFCURVE",
"184 220 CURVE SMOOTH",
"173 220 OFFCURVE",
"163 220 OFFCURVE",
"153 221 CURVE",
"190 275 OFFCURVE",
"235 337 OFFCURVE",
"288 408 CURVE"
);
},
{
closed = 1;
nodes = (
"240 460 OFFCURVE",
"223 475 OFFCURVE",
"223 494 CURVE SMOOTH",
"223 509 OFFCURVE",
"233 525 OFFCURVE",
"253 544 CURVE SMOOTH",
"284 572 OFFCURVE",
"328 588 OFFCURVE",
"385 593 CURVE",
"350 548 OFFCURVE",
"313 500 OFFCURVE",
"275 449 CURVE"
);
},
{
closed = 1;
nodes = (
"75 99 OFFCURVE",
"101 145 OFFCURVE",
"143 208 CURVE",
"156 207 OFFCURVE",
"170 206 OFFCURVE",
"185 206 CURVE SMOOTH",
"247 206 OFFCURVE",
"303 217 OFFCURVE",
"353 240 CURVE SMOOTH",
"377 251 OFFCURVE",
"399 268 OFFCURVE",
"420 291 CURVE SMOOTH",
"443 316 OFFCURVE",
"454 340 OFFCURVE",
"454 362 CURVE SMOOTH",
"454 387 OFFCURVE",
"438 406 OFFCURVE",
"406 419 CURVE",
"365 430 OFFCURVE",
"334 437 OFFCURVE",
"313 440 CURVE",
"353 492 OFFCURVE",
"393 543 OFFCURVE",
"433 592 CURVE",
"480 586 OFFCURVE",
"504 567 OFFCURVE",
"504 536 CURVE SMOOTH",
"504 521 OFFCURVE",
"496 509 OFFCURVE",
"481 502 CURVE",
"470 499 OFFCURVE",
"460 498 OFFCURVE",
"453 498 CURVE SMOOTH",
"443 497 OFFCURVE",
"438 495 OFFCURVE",
"438 492 CURVE SMOOTH",
"438 491 OFFCURVE",
"438 489 OFFCURVE",
"439 488 CURVE SMOOTH",
"449 481 OFFCURVE",
"467 483 OFFCURVE",
"492 493 CURVE SMOOTH",
"518 503 OFFCURVE",
"531 520 OFFCURVE",
"531 545 CURVE SMOOTH",
"531 580 OFFCURVE",
"503 602 OFFCURVE",
"448 610 CURVE",
"476 645 OFFCURVE",
"501 675 OFFCURVE",
"523 700 CURVE SMOOTH",
"532 711 OFFCURVE",
"534 720 OFFCURVE",
"527 727 CURVE SMOOTH",
"522 732 OFFCURVE",
"516 734 OFFCURVE",
"510 734 CURVE SMOOTH",
"502 734 OFFCURVE",
"466 694 OFFCURVE",
"401 613 CURVE",
"332 610 OFFCURVE",
"274 590 OFFCURVE",
"229 555 CURVE SMOOTH",
"199 531 OFFCURVE",
"184 507 OFFCURVE",
"184 483 CURVE SMOOTH",
"184 450 OFFCURVE",
"206 428 OFFCURVE",
"251 416 CURVE",
"197 343 OFFCURVE",
"153 280 OFFCURVE",
"118 227 CURVE",
"94 234 OFFCURVE",
"74 247 OFFCURVE",
"57 265 CURVE SMOOTH",
"38 285 OFFCURVE",
"29 307 OFFCURVE",
"29 331 CURVE SMOOTH",
"29 345 OFFCURVE",
"33 355 OFFCURVE",
"40 362 CURVE",
"57 374 LINE SMOOTH",
"65 379 OFFCURVE",
"69 383 OFFCURVE",
"69 385 CURVE SMOOTH",
"69 386 OFFCURVE",
"67 387 OFFCURVE",
"63 387 CURVE SMOOTH",
"44 387 OFFCURVE",
"29 377 OFFCURVE",
"17 356 CURVE SMOOTH",
"6 336 OFFCURVE",
"4 315 OFFCURVE",
"13 292 CURVE SMOOTH",
"20 271 OFFCURVE",
"32 254 OFFCURVE",
"51 239 CURVE SMOOTH",
"65 228 OFFCURVE",
"84 219 OFFCURVE",
"109 213 CURVE",
"80 167 OFFCURVE",
"61 134 OFFCURVE",
"54 115 CURVE SMOOTH",
"41 79 OFFCURVE",
"35 50 OFFCURVE",
"35 28 CURVE SMOOTH",
"35 11 OFFCURVE",
"40 3 OFFCURVE",
"50 3 CURVE SMOOTH",
"57 3 OFFCURVE",
"63 6 OFFCURVE",
"68 12 CURVE SMOOTH",
"71 15 OFFCURVE",
"72 18 OFFCURVE",
"69 20 CURVE SMOOTH",
"62 23 OFFCURVE",
"58 31 OFFCURVE",
"58 42 CURVE SMOOTH",
"58 51 OFFCURVE",
"60 60 OFFCURVE",
"64 71 CURVE SMOOTH"
);
}
);
width = 537;
}
);
note = dollar;
unicode = 0024;
},
{
glyphname = percent;
layers = (
{
hints = (
{
horizontal = 1;
place = "{-115, 21}";
target = up;
type = BottomGhost;
},
{
horizontal = 1;
place = "{-82, 30}";
type = Stem;
},
{
horizontal = 1;
place = "{374, 30}";
type = Stem;
},
{
horizontal = 1;
place = "{720, -20}";
target = down;
type = TopGhost;
},
{
place = "{95, 48}";
type = Stem;
},
{
place = "{295, 47}";
type = Stem;
},
{
place = "{116, 27}";
type = Stem;
}
);
layerId = "2B98CC2F-ACFB-4214-A552-9F7A1112B617";
paths = (
{
closed = 1;
nodes = (
"664 704 OFFCURVE",
"657 707 OFFCURVE",
"650 707 CURVE SMOOTH",
"649 707 OFFCURVE",
"647 706 OFFCURVE",
"645 705 CURVE SMOOTH",
"557 664 OFFCURVE",
"479 639 OFFCURVE",
"411 631 CURVE SMOOTH",
"386 628 OFFCURVE",
"372 627 OFFCURVE",
"370 630 CURVE",
"373 643 OFFCURVE",
"375 655 OFFCURVE",
"375 666 CURVE SMOOTH",
"375 702 OFFCURVE",
"358 720 OFFCURVE",
"324 720 CURVE SMOOTH",
"288 720 OFFCURVE",
"241 684 OFFCURVE",
"182 611 CURVE SMOOTH",
"124 539 OFFCURVE",
"95 483 OFFCURVE",
"95 443 CURVE SMOOTH",
"95 428 OFFCURVE",
"99 414 OFFCURVE",
"107 401 CURVE SMOOTH",
"117 383 OFFCURVE",
"131 374 OFFCURVE",
"148 374 CURVE SMOOTH",
"164 374 LINE SMOOTH",
"201 374 OFFCURVE",
"246 406 OFFCURVE",
"299 471 CURVE SMOOTH",
"350 533 OFFCURVE",
"372 575 OFFCURVE",
"365 597 CURVE",
"394 598 OFFCURVE",
"435 605 OFFCURVE",
"486 620 CURVE SMOOTH",
"533 634 OFFCURVE",
"573 649 OFFCURVE",
"606 665 CURVE",
"539 589 OFFCURVE",
"450 476 OFFCURVE",
"341 325 CURVE SMOOTH",
"223 163 OFFCURVE",
"155 58 OFFCURVE",
"138 11 CURVE SMOOTH",
"123 -30 OFFCURVE",
"116 -62 OFFCURVE",
"116 -86 CURVE SMOOTH",
"116 -105 OFFCURVE",
"122 -115 OFFCURVE",
"133 -115 CURVE SMOOTH",
"142 -115 OFFCURVE",
"149 -112 OFFCURVE",
"154 -105 CURVE SMOOTH",
"157 -100 OFFCURVE",
"157 -97 OFFCURVE",
"154 -96 CURVE",
"147 -92 OFFCURVE",
"143 -84 OFFCURVE",
"143 -71 CURVE SMOOTH",
"143 -62 OFFCURVE",
"145 -51 OFFCURVE",
"149 -39 CURVE SMOOTH",
"170 17 OFFCURVE",
"243 129 OFFCURVE",
"369 298 CURVE SMOOTH",
"476 441 OFFCURVE",
"574 564 OFFCURVE",
"665 669 CURVE SMOOTH",
"676 682 OFFCURVE",
"677 692 OFFCURVE",
"669 699 CURVE SMOOTH"
);
},
{
closed = 1;
nodes = (
"588 172 OFFCURVE",
"571 171 OFFCURVE",
"570 174 CURVE",
"573 187 OFFCURVE",
"575 199 OFFCURVE",
"575 210 CURVE SMOOTH",
"575 246 OFFCURVE",
"558 264 OFFCURVE",
"524 264 CURVE SMOOTH",
"488 264 OFFCURVE",
"441 228 OFFCURVE",
"382 155 CURVE SMOOTH",
"324 83 OFFCURVE",
"295 27 OFFCURVE",
"295 -13 CURVE SMOOTH",
"295 -28 OFFCURVE",
"299 -42 OFFCURVE",
"307 -55 CURVE SMOOTH",
"317 -73 OFFCURVE",
"331 -82 OFFCURVE",
"348 -82 CURVE SMOOTH",
"364 -82 LINE SMOOTH",
"401 -82 OFFCURVE",
"446 -50 OFFCURVE",
"499 15 CURVE SMOOTH",
"550 77 OFFCURVE",
"572 119 OFFCURVE",
"565 141 CURVE",
"580 147 OFFCURVE",
"588 154 OFFCURVE",
"588 163 CURVE SMOOTH"
);
},
{
closed = 1;
nodes = (
"341 571 OFFCURVE",
"319 534 OFFCURVE",
"276 483 CURVE SMOOTH",
"231 430 OFFCURVE",
"194 404 OFFCURVE",
"166 404 CURVE SMOOTH",
"151 404 OFFCURVE",
"143 414 OFFCURVE",
"142 435 CURVE SMOOTH",
"141 463 OFFCURVE",
"161 504 OFFCURVE",
"203 558 CURVE SMOOTH",
"246 613 OFFCURVE",
"278 640 OFFCURVE",
"301 640 CURVE",
"317 615 OFFCURVE",
"330 600 OFFCURVE",
"341 594 CURVE"
);
},
{
closed = 1;
nodes = (
"541 115 OFFCURVE",
"519 78 OFFCURVE",
"476 27 CURVE SMOOTH",
"431 -26 OFFCURVE",
"394 -52 OFFCURVE",
"366 -52 CURVE SMOOTH",
"351 -52 OFFCURVE",
"343 -42 OFFCURVE",
"342 -21 CURVE SMOOTH",
"341 7 OFFCURVE",
"361 48 OFFCURVE",
"403 102 CURVE SMOOTH",
"446 157 OFFCURVE",
"478 184 OFFCURVE",
"501 184 CURVE",
"517 159 OFFCURVE",
"530 144 OFFCURVE",
"541 138 CURVE"
);
}
);
width = 701;
}
);
note = percent;
unicode = 0025;
},
{
glyphname = ampersand;
layers = (
{
hints = (
{
horizontal = 1;
place = "{-134, 21}";
target = up;
type = BottomGhost;
},
{
horizontal = 1;
place = "{390, 55}";
type = Stem;
},
{
horizontal = 1;
place = "{660, -20}";
target = down;
type = TopGhost;
},
{
place = "{13, 56}";
type = Stem;
},
{
place = "{185, 25}";
type = Stem;
},
{
place = "{268, 41}";
type = Stem;
},
{
place = "{526, 33}";
type = Stem;
},
{
place = "{615, 30}";
type = Stem;
},
{
place = "{268, 182}";
type = Stem;
}
);
layerId = "2B98CC2F-ACFB-4214-A552-9F7A1112B617";
paths = (
{
closed = 1;
nodes = (
"224 57 OFFCURVE",
"237 57 OFFCURVE",
"251 58 CURVE SMOOTH",
"339 62 OFFCURVE",
"414 89 OFFCURVE",
"475 138 CURVE SMOOTH",
"531 183 OFFCURVE",
"559 230 OFFCURVE",
"559 280 CURVE SMOOTH",
"559 304 OFFCURVE",
"553 322 OFFCURVE",
"540 334 CURVE",
"605 350 OFFCURVE",
"680 353 OFFCURVE",
"725 398 CURVE SMOOTH",
"738 413 OFFCURVE",
"745 427 OFFCURVE",
"745 441 CURVE SMOOTH",
"745 450 OFFCURVE",
"742 457 OFFCURVE",
"737 464 CURVE SMOOTH",
"734 467 OFFCURVE",
"731 468 OFFCURVE",
"728 467 CURVE SMOOTH",
"725 466 OFFCURVE",
"724 464 OFFCURVE",
"725 460 CURVE SMOOTH",
"730 447 OFFCURVE",
"725 429 OFFCURVE",
"705 414 CURVE SMOOTH",
"685 399 OFFCURVE",
"646 386 OFFCURVE",
"581 375 CURVE SMOOTH",
"507 362 OFFCURVE",
"402 350 OFFCURVE",
"334 308 CURVE SMOOTH",
"254 259 OFFCURVE",
"205 180 OFFCURVE",
"190 86 CURVE",
"109 93 OFFCURVE",
"69 126 OFFCURVE",
"69 185 CURVE SMOOTH",
"69 204 OFFCURVE",
"74 223 OFFCURVE",
"84 244 CURVE SMOOTH",
"101 278 OFFCURVE",
"134 313 OFFCURVE",
"183 349 CURVE SMOOTH",
"228 382 OFFCURVE",
"269 405 OFFCURVE",
"307 416 CURVE",
"330 399 OFFCURVE",
"358 390 OFFCURVE",
"392 390 CURVE SMOOTH",
"416 390 OFFCURVE",
"433 397 OFFCURVE",
"442 412 CURVE",
"445 415 OFFCURVE",
"446 419 OFFCURVE",
"446 422 CURVE SMOOTH",
"446 437 OFFCURVE",
"429 444 OFFCURVE",
"395 445 CURVE SMOOTH",
"372 446 OFFCURVE",
"348 442 OFFCURVE",
"321 434 CURVE",
"313 443 OFFCURVE",
"309 457 OFFCURVE",
"309 474 CURVE SMOOTH",
"309 493 OFFCURVE",
"314 510 OFFCURVE",
"324 527 CURVE SMOOTH",
"341 556 OFFCURVE",
"366 581 OFFCURVE",
"399 602 CURVE SMOOTH",
"436 625 OFFCURVE",
"477 637 OFFCURVE",
"521 640 CURVE SMOOTH",
"546 641 OFFCURVE",
"567 639 OFFCURVE",
"584 633 CURVE SMOOTH",
"605 625 OFFCURVE",
"615 612 OFFCURVE",
"615 594 CURVE SMOOTH",
"615 583 OFFCURVE",
"610 571 OFFCURVE",
"599 558 CURVE SMOOTH",
"589 545 OFFCURVE",
"578 541 OFFCURVE",
"567 544 CURVE SMOOTH",
"564 545 OFFCURVE",
"560 546 OFFCURVE",
"557 546 CURVE SMOOTH",
"548 546 OFFCURVE",
"544 543 OFFCURVE",
"544 536 CURVE SMOOTH",
"544 527 OFFCURVE",
"553 522 OFFCURVE",
"571 522 CURVE SMOOTH",
"607 522 OFFCURVE",
"642 555 OFFCURVE",
"645 594 CURVE SMOOTH",
"646 641 OFFCURVE",
"604 665 OFFCURVE",
"517 660 CURVE SMOOTH",
"470 657 OFFCURVE",
"425 646 OFFCURVE",
"380 626 CURVE SMOOTH",
"335 607 OFFCURVE",
"302 582 OFFCURVE",
"280 551 CURVE SMOOTH",
"272 540 OFFCURVE",
"268 526 OFFCURVE",
"268 508 CURVE SMOOTH",
"268 475 OFFCURVE",
"277 448 OFFCURVE",
"296 427 CURVE",
"252 413 OFFCURVE",
"207 392 OFFCURVE",
"161 364 CURVE SMOOTH",
"102 329 OFFCURVE",
"60 292 OFFCURVE",
"35 253 CURVE SMOOTH",
"20 231 OFFCURVE",
"13 208 OFFCURVE",
"13 185 CURVE SMOOTH",
"13 152 OFFCURVE",
"27 125 OFFCURVE",
"54 102 CURVE SMOOTH",
"85 77 OFFCURVE",
"129 63 OFFCURVE",
"186 58 CURVE",
"185 49 OFFCURVE",
"185 41 OFFCURVE",
"185 32 CURVE SMOOTH",
"185 -19 OFFCURVE",
"205 -60 OFFCURVE",
"244 -91 CURVE SMOOTH",
"279 -120 OFFCURVE",
"323 -134 OFFCURVE",
"374 -134 CURVE SMOOTH",
"414 -134 OFFCURVE",
"450 -102 OFFCURVE",
"450 -66 CURVE SMOOTH",
"450 -49 OFFCURVE",
"446 -40 OFFCURVE",
"439 -40 CURVE SMOOTH",
"431 -40 OFFCURVE",
"429 -44 OFFCURVE",
"432 -51 CURVE SMOOTH",
"434 -56 OFFCURVE",
"435 -60 OFFCURVE",
"435 -65 CURVE SMOOTH",
"435 -93 OFFCURVE",
"407 -119 OFFCURVE",
"374 -119 CURVE SMOOTH",
"327 -119 OFFCURVE",
"288 -106 OFFCURVE",
"257 -79 CURVE SMOOTH",
"226 -52 OFFCURVE",
"210 -15 OFFCURVE",
"210 32 CURVE SMOOTH",
"210 41 OFFCURVE",
"210 49 OFFCURVE",
"211 57 CURVE"
);
},
{
closed = 1;
nodes = (
"464 328 OFFCURVE",
"481 331 OFFCURVE",
"488 331 CURVE SMOOTH",
"513 331 OFFCURVE",
"526 316 OFFCURVE",
"526 287 CURVE SMOOTH",
"526 247 OFFCURVE",
"505 208 OFFCURVE",
"463 170 CURVE SMOOTH",
"412 124 OFFCURVE",
"343 97 OFFCURVE",
"258 88 CURVE SMOOTH",
"243 86 OFFCURVE",
"229 85 OFFCURVE",
"214 85 CURVE",
"235 195 OFFCURVE",
"310 274 OFFCURVE",
"439 322 CURVE"
);
},
{
closed = 1;
nodes = (
"408 428 OFFCURVE",
"417 425 OFFCURVE",
"416 418 CURVE",
"413 410 OFFCURVE",
"404 406 OFFCURVE",
"387 406 CURVE SMOOTH",
"368 406 OFFCURVE",
"350 411 OFFCURVE",
"333 422 CURVE",
"353 426 OFFCURVE",
"371 428 OFFCURVE",
"387 428 CURVE SMOOTH"
);
}
);
width = 753;
}
);
note = ampersand;
unicode = 0026;
},
{
glyphname = quotesingle;
layers = (
{
hints = (
{
horizontal = 1;
place = "{436, -20}";
target = down;
type = TopGhost;
},
{
place = "{100, 71}";
type = Stem;
}
);
layerId = "2B98CC2F-ACFB-4214-A552-9F7A1112B617";
paths = (
{
closed = 1;
nodes = (
"171 422 OFFCURVE",
"148 436 OFFCURVE",
"129 436 CURVE SMOOTH",
"110 436 OFFCURVE",
"100 426 OFFCURVE",
"100 406 CURVE SMOOTH",
"100 394 OFFCURVE",
"126 384 OFFCURVE",
"127 369 CURVE SMOOTH",
"129 355 OFFCURVE",
"120 336 OFFCURVE",
"101 312 CURVE SMOOTH",
"82 288 OFFCURVE",
"73 275 OFFCURVE",
"73 273 CURVE SMOOTH",
"73 271 OFFCURVE",
"74 270 OFFCURVE",
"76 269 CURVE SMOOTH",
"87 266 OFFCURVE",
"105 280 OFFCURVE",
"130 310 CURVE SMOOTH",
"157 343 OFFCURVE",
"171 374 OFFCURVE",
"171 403 CURVE SMOOTH"
);
}
);
width = 130;
}
);
note = quotesingle;
unicode = 0027;
},
{
glyphname = parenleft;
layers = (
{
hints = (
{
horizontal = 1;
place = "{760, -20}";
target = down;
type = TopGhost;
},
{
place = "{-5, 57}";
type = Stem;
}
);
layerId = "2B98CC2F-ACFB-4214-A552-9F7A1112B617";
paths = (
{
closed = 1;
nodes = (
"492 750 OFFCURVE",
"371 703 OFFCURVE",
"253 618 CURVE SMOOTH",
"147 542 OFFCURVE",
"75 461 OFFCURVE",
"36 376 CURVE SMOOTH",
"9 317 OFFCURVE",
"-5 260 OFFCURVE",
"-5 206 CURVE SMOOTH",
"-5 138 OFFCURVE",
"15 81 OFFCURVE",
"56 36 CURVE SMOOTH",
"93 -6 OFFCURVE",
"138 -29 OFFCURVE",
"191 -34 CURVE SMOOTH",
"213 -36 OFFCURVE",
"224 -31 OFFCURVE",
"224 -20 CURVE SMOOTH",
"224 -14 OFFCURVE",
"216 -10 OFFCURVE",
"201 -9 CURVE SMOOTH",
"104 -1 OFFCURVE",
"52 64 OFFCURVE",
"52 163 CURVE SMOOTH",
"52 227 OFFCURVE",
"72 297 OFFCURVE",
"112 373 CURVE SMOOTH",
"155 454 OFFCURVE",
"213 527 OFFCURVE",
"286 591 CURVE SMOOTH",
"386 678 OFFCURVE",
"494 726 OFFCURVE",
"610 737 CURVE SMOOTH",
"627 738 OFFCURVE",
"635 742 OFFCURVE",
"635 748 CURVE SMOOTH",
"635 754 OFFCURVE",
"628 758 OFFCURVE",
"615 760 CURVE"
);
}
);
width = 375;
}
);
note = parenleft;
unicode = 0028;
},
{
glyphname = parenright;
layers = (
{
hints = (
{
horizontal = 1;
place = "{-35, 21}";
target = up;
type = BottomGhost;
},
{
place = "{593, 56}";
type = Stem;
}
);
layerId = "2B98CC2F-ACFB-4214-A552-9F7A1112B617";
paths = (
{
closed = 1;
nodes = (
"635 409 OFFCURVE",
"649 466 OFFCURVE",
"649 520 CURVE SMOOTH",
"649 587 OFFCURVE",
"629 644 OFFCURVE",
"588 689 CURVE SMOOTH",
"551 731 OFFCURVE",
"506 754 OFFCURVE",
"453 759 CURVE SMOOTH",
"432 761 OFFCURVE",
"421 756 OFFCURVE",
"421 745 CURVE SMOOTH",
"421 739 OFFCURVE",
"428 735 OFFCURVE",
"443 734 CURVE SMOOTH",
"542 726 OFFCURVE",
"593 660 OFFCURVE",
"593 561 CURVE SMOOTH",
"593 497 OFFCURVE",
"573 427 OFFCURVE",
"533 351 CURVE SMOOTH",
"490 270 OFFCURVE",
"432 198 OFFCURVE",
"358 134 CURVE SMOOTH",
"258 47 OFFCURVE",
"150 -1 OFFCURVE",
"34 -12 CURVE SMOOTH",
"17 -13 OFFCURVE",
"9 -17 OFFCURVE",
"9 -23 CURVE SMOOTH",
"9 -29 OFFCURVE",
"16 -33 OFFCURVE",
"30 -35 CURVE",
"153 -25 OFFCURVE",
"273 22 OFFCURVE",
"391 107 CURVE SMOOTH",
"497 183 OFFCURVE",
"569 264 OFFCURVE",
"608 349 CURVE SMOOTH"
);
}
);
width = 651;
}
);
note = parenright;
unicode = 0029;
},
{
glyphname = asterisk;
layers = (
{
hints = (
{
horizontal = 1;
place = "{218, 21}";
target = up;
type = BottomGhost;
},
{
horizontal = 1;
place = "{338, 26}";
type = Stem;
}
);
layerId = "2B98CC2F-ACFB-4214-A552-9F7A1112B617";
paths = (
{
closed = 1;
nodes = (
"325 354 OFFCURVE",
"326 357 OFFCURVE",
"323 360 CURVE SMOOTH",
"321 363 OFFCURVE",
"314 364 OFFCURVE",
"301 364 CURVE SMOOTH",
"222 364 LINE",
"257 389 OFFCURVE",
"280 408 OFFCURVE",
"290 422 CURVE SMOOTH",
"296 431 OFFCURVE",
"296 436 OFFCURVE",
"291 438 CURVE SMOOTH",
"288 439 OFFCURVE",
"278 434 OFFCURVE",
"260 421 CURVE SMOOTH",
"202 381 LINE",
"211 430 OFFCURVE",
"215 463 OFFCURVE",
"213 480 CURVE SMOOTH",
"212 491 OFFCURVE",
"209 495 OFFCURVE",
"204 492 CURVE",
"198 481 OFFCURVE",
"194 470 OFFCURVE",
"192 459 CURVE SMOOTH",
"174 385 LINE",
"123 449 LINE",
"114 457 OFFCURVE",
"108 461 OFFCURVE",
"103 461 CURVE SMOOTH",
"98 461 OFFCURVE",
"96 459 OFFCURVE",
"96 454 CURVE SMOOTH",
"96 446 OFFCURVE",
"102 435 OFFCURVE",
"114 421 CURVE SMOOTH",
"129 400 OFFCURVE",
"141 382 OFFCURVE",
"151 367 CURVE",
"62 363 LINE",
"45 360 OFFCURVE",
"38 356 OFFCURVE",
"40 349 CURVE SMOOTH",
"42 342 OFFCURVE",
"55 338 OFFCURVE",
"80 338 CURVE SMOOTH",
"143 338 LINE",
"77 290 LINE",
"69 282 OFFCURVE",
"65 276 OFFCURVE",
"65 271 CURVE SMOOTH",
"65 269 OFFCURVE",
"66 267 OFFCURVE",
"67 266 CURVE SMOOTH",
"74 261 OFFCURVE",
"87 266 OFFCURVE",
"107 280 CURVE SMOOTH",
"159 319 LINE",
"145 243 LINE",
"145 238 OFFCURVE",
"145 233 OFFCURVE",
"146 230 CURVE",
"147 222 OFFCURVE",
"149 218 OFFCURVE",
"154 218 CURVE SMOOTH",
"159 218 OFFCURVE",
"163 223 OFFCURVE",
"167 233 CURVE",
"167 234 OFFCURVE",
"169 241 OFFCURVE",
"174 254 CURVE",
"192 317 LINE",
"227 279 OFFCURVE",
"251 255 OFFCURVE",
"265 246 CURVE SMOOTH",
"274 240 OFFCURVE",
"279 240 OFFCURVE",
"281 245 CURVE SMOOTH",
"282 248 OFFCURVE",
"275 258 OFFCURVE",
"262 275 CURVE SMOOTH",
"216 337 LINE",
"242 338 OFFCURVE",
"261 338 OFFCURVE",
"273 339 CURVE SMOOTH",
"294 340 OFFCURVE",
"310 344 OFFCURVE",
"320 351 CURVE SMOOTH"
);
}
);
width = 352;
}
);
note = asterisk;
unicode = 002A;
},
{
glyphname = plus;
layers = (
{
hints = (
{
horizontal = 1;
place = "{212, 48}";
type = Stem;
}
);
layerId = "2B98CC2F-ACFB-4214-A552-9F7A1112B617";
paths = (
{
closed = 1;
nodes = (
"228 407 OFFCURVE",
"215 359 OFFCURVE",
"195 294 CURVE SMOOTH",
"192 284 OFFCURVE",
"188 273 OFFCURVE",
"185 260 CURVE",
"92 260 LINE SMOOTH",
"60 259 OFFCURVE",
"44 259 OFFCURVE",
"44 259 CURVE",
"35 259 OFFCURVE",
"19 250 OFFCURVE",
"19 235 CURVE SMOOTH",
"19 220 OFFCURVE",
"70 212 OFFCURVE",
"171 212 CURVE",
"140 98 LINE SMOOTH",
"136 86 OFFCURVE",
"144 70 OFFCURVE",
"156 67 CURVE SMOOTH",
"164 64 OFFCURVE",
"176 82 OFFCURVE",
"191 121 CURVE SMOOTH",
"203 150 OFFCURVE",
"214 182 OFFCURVE",
"223 216 CURVE",
"260 222 OFFCURVE",
"297 228 OFFCURVE",
"334 233 CURVE SMOOTH",
"380 242 OFFCURVE",
"401 252 OFFCURVE",
"396 262 CURVE",
"368 260 OFFCURVE",
"319 259 OFFCURVE",
"248 260 CURVE SMOOTH",
"231 260 LINE",
"241 341 OFFCURVE",
"246 389 OFFCURVE",
"246 402 CURVE SMOOTH",
"246 427 OFFCURVE",
"242 438 OFFCURVE",
"234 437 CURVE"
);
}
);
width = 406;
}
);
note = plus;
unicode = 002B;
},
{
glyphname = comma;
layers = (
{
hints = (
{
horizontal = 1;
place = "{63, -20}";
target = down;
type = TopGhost;
},
{
place = "{97, 71}";
type = Stem;
}
);
layerId = "2B98CC2F-ACFB-4214-A552-9F7A1112B617";
paths = (
{
closed = 1;
nodes = (
"168 49 OFFCURVE",
"145 63 OFFCURVE",
"126 63 CURVE SMOOTH",
"107 63 OFFCURVE",
"97 53 OFFCURVE",
"97 33 CURVE SMOOTH",
"97 21 OFFCURVE",
"123 11 OFFCURVE",
"124 -4 CURVE SMOOTH",
"126 -18 OFFCURVE",
"119 -33 OFFCURVE",
"104 -50 CURVE SMOOTH",
"89 -67 OFFCURVE",
"81 -76 OFFCURVE",
"81 -77 CURVE SMOOTH",
"81 -78 OFFCURVE",
"82 -79 OFFCURVE",
"85 -80 CURVE SMOOTH",
"96 -83 OFFCURVE",
"112 -73 OFFCURVE",
"133 -51 CURVE SMOOTH",
"156 -26 OFFCURVE",
"168 0 OFFCURVE",
"168 29 CURVE SMOOTH"
);
}
);
width = 194;
}
);
note = comma;
unicode = 002C;
},
{
glyphname = uni00AD;
layers = (
{
hints = (
{
horizontal = 1;
place = "{262, -20}";
target = down;
type = TopGhost;
}
);
layerId = "2B98CC2F-ACFB-4214-A552-9F7A1112B617";
paths = (
{
closed = 1;
nodes = (
"254 259 OFFCURVE",
"204 259 OFFCURVE",
"136 260 CURVE SMOOTH",
"113 261 OFFCURVE",
"95 261 OFFCURVE",
"80 260 CURVE SMOOTH",
"54 260 LINE",
"48 259 OFFCURVE",
"45 259 OFFCURVE",
"44 259 CURVE SMOOTH",
"35 259 OFFCURVE",
"19 250 OFFCURVE",
"19 235 CURVE SMOOTH",
"19 225 OFFCURVE",
"30 218 OFFCURVE",
"51 214 CURVE SMOOTH",
"69 211 OFFCURVE",
"84 210 OFFCURVE",
"95 213 CURVE",
"132 219 OFFCURVE",
"170 225 OFFCURVE",
"207 230 CURVE SMOOTH",
"264 240 OFFCURVE",
"290 251 OFFCURVE",
"285 262 CURVE"
);
}
);
width = 297;
}
);
note = uni00AD;
unicode = 00AD;
},
{
glyphname = period;
layers = (
{
hints = (
{
horizontal = 1;
place = "{-1, 64}";
type = Stem;
},
{
place = "{88, 80}";
type = Stem;
}
);
layerId = "2B98CC2F-ACFB-4214-A552-9F7A1112B617";
paths = (
{
closed = 1;
nodes = (
"168 49 OFFCURVE",
"145 63 OFFCURVE",
"126 63 CURVE SMOOTH",
"101 63 OFFCURVE",
"88 53 OFFCURVE",
"88 34 CURVE SMOOTH",
"88 15 OFFCURVE",
"107 -1 OFFCURVE",
"130 -1 CURVE SMOOTH",
"146 -1 OFFCURVE",
"168 13 OFFCURVE",
"168 29 CURVE SMOOTH"
);
}
);
width = 226;
}
);
note = period;
unicode = 002E;
},
{
glyphname = slash;
layers = (
{
hints = (
{
horizontal = 1;
place = "{-124, 21}";
target = up;
type = BottomGhost;
},
{
horizontal = 1;
place = "{698, -20}";
target = down;
type = TopGhost;
}
);
layerId = "2B98CC2F-ACFB-4214-A552-9F7A1112B617";
paths = (
{
closed = 1;
nodes = (
"575 695 OFFCURVE",
"568 698 OFFCURVE",
"561 698 CURVE SMOOTH",
"545 698 OFFCURVE",
"461 597 OFFCURVE",
"310 396 CURVE SMOOTH",
"157 190 OFFCURVE",
"70 59 OFFCURVE",
"49 2 CURVE SMOOTH",
"34 -39 OFFCURVE",
"27 -71 OFFCURVE",
"27 -95 CURVE SMOOTH",
"27 -114 OFFCURVE",
"33 -124 OFFCURVE",
"44 -124 CURVE SMOOTH",
"53 -124 OFFCURVE",
"60 -121 OFFCURVE",
"65 -114 CURVE SMOOTH",
"68 -109 OFFCURVE",
"68 -106 OFFCURVE",
"65 -105 CURVE",
"58 -101 OFFCURVE",
"54 -93 OFFCURVE",
"54 -80 CURVE SMOOTH",
"54 -71 OFFCURVE",
"56 -60 OFFCURVE",
"60 -48 CURVE SMOOTH",
"81 8 OFFCURVE",
"154 120 OFFCURVE",
"280 289 CURVE SMOOTH",
"387 432 OFFCURVE",
"485 555 OFFCURVE",
"576 660 CURVE SMOOTH",
"587 673 OFFCURVE",
"588 683 OFFCURVE",
"580 690 CURVE SMOOTH"
);
}
);
width = 604;
}
);
note = slash;
unicode = 002F;
},
{
glyphname = zero;
layers = (
{
hints = (
{
horizontal = 1;
place = "{-9, 21}";
target = up;
type = BottomGhost;
},
{
horizontal = 1;
place = "{643, -20}";
target = down;
type = TopGhost;
},
{
place = "{33, 46}";
type = Stem;
},
{
place = "{607, 53}";
type = Stem;
}
);
layerId = "2B98CC2F-ACFB-4214-A552-9F7A1112B617";
paths = (
{
closed = 1;
nodes = (
"620 604 OFFCURVE",
"627 606 OFFCURVE",
"628 615 CURVE SMOOTH",
"628 634 OFFCURVE",
"603 643 OFFCURVE",
"553 643 CURVE SMOOTH",
"522 643 OFFCURVE",
"496 640 OFFCURVE",
"476 633 CURVE",
"443 636 OFFCURVE",
"419 631 OFFCURVE",
"419 622 CURVE SMOOTH",
"419 619 OFFCURVE",
"420 617 OFFCURVE",
"423 614 CURVE",
"364 587 OFFCURVE",
"306 549 OFFCURVE",
"249 500 CURVE SMOOTH",
"189 449 OFFCURVE",
"143 397 OFFCURVE",
"111 344 CURVE SMOOTH",
"59 259 OFFCURVE",
"33 181 OFFCURVE",
"33 112 CURVE SMOOTH",
"33 41 OFFCURVE",
"61 1 OFFCURVE",
"116 -6 CURVE SMOOTH",
"128 -8 OFFCURVE",
"141 -9 OFFCURVE",
"154 -9 CURVE SMOOTH",
"267 -9 OFFCURVE",
"382 42 OFFCURVE",
"498 145 CURVE SMOOTH",
"547 188 OFFCURVE",
"586 237 OFFCURVE",
"615 292 CURVE SMOOTH",
"645 347 OFFCURVE",
"660 400 OFFCURVE",
"660 450 CURVE SMOOTH",
"660 505 OFFCURVE",
"641 550 OFFCURVE",
"604 585 CURVE SMOOTH",
"587 601 OFFCURVE",
"568 613 OFFCURVE",
"547 620 CURVE",
"567 621 OFFCURVE",
"587 617 OFFCURVE",
"608 609 CURVE SMOOTH"
);
},
{
closed = 1;
nodes = (
"511 604 OFFCURVE",
"542 589 OFFCURVE",
"575 563 CURVE SMOOTH",
"596 546 OFFCURVE",
"607 512 OFFCURVE",
"607 461 CURVE SMOOTH",
"607 354 OFFCURVE",
"555 254 OFFCURVE",
"451 163 CURVE SMOOTH",
"330 57 OFFCURVE",
"223 8 OFFCURVE",
"128 16 CURVE SMOOTH",
"95 19 OFFCURVE",
"79 45 OFFCURVE",
"79 96 CURVE SMOOTH",
"79 168 OFFCURVE",
"106 246 OFFCURVE",
"161 331 CURVE SMOOTH",
"195 383 OFFCURVE",
"237 433 OFFCURVE",
"287 482 CURVE SMOOTH",
"356 548 OFFCURVE",
"421 590 OFFCURVE",
"483 609 CURVE"
);
}
);
width = 576;
}
);
note = zero;
unicode = 0030;
},
{
glyphname = one;
layers = (
{
hints = (
{
horizontal = 1;
place = "{54, 25}";
type = Stem;
},
{
horizontal = 1;
place = "{622, -20}";
target = down;
type = TopGhost;
}
);
layerId = "2B98CC2F-ACFB-4214-A552-9F7A1112B617";
paths = (
{
closed = 1;
nodes = (
"480 599 LINE SMOOTH",
"482 602 OFFCURVE",
"483 604 OFFCURVE",
"483 607 CURVE SMOOTH",
"483 617 OFFCURVE",
"473 622 OFFCURVE",
"454 622 CURVE SMOOTH",
"431 622 OFFCURVE",
"416 616 OFFCURVE",
"409 603 CURVE SMOOTH",
"403 593 LINE",
"322 530 OFFCURVE",
"259 490 OFFCURVE",
"214 473 CURVE SMOOTH",
"208 470 OFFCURVE",
"205 466 OFFCURVE",
"205 460 CURVE SMOOTH",
"205 449 OFFCURVE",
"210 446 OFFCURVE",
"220 450 CURVE SMOOTH",
"276 471 OFFCURVE",
"323 493 OFFCURVE",
"360 516 CURVE",
"247 312 OFFCURVE",
"164 160 OFFCURVE",
"109 59 CURVE",
"65 44 OFFCURVE",
"31 32 OFFCURVE",
"8 22 CURVE SMOOTH",
"2 20 OFFCURVE",
"-1 14 OFFCURVE",
"-1 4 CURVE SMOOTH",
"-1 -11 OFFCURVE",
"7 -26 OFFCURVE",
"18 -22 CURVE SMOOTH",
"89 6 OFFCURVE",
"134 23 OFFCURVE",
"154 30 CURVE SMOOTH",
"205 46 OFFCURVE",
"253 54 OFFCURVE",
"297 54 CURVE SMOOTH",
"307 54 OFFCURVE",
"312 59 OFFCURVE",
"312 68 CURVE SMOOTH",
"312 75 OFFCURVE",
"308 79 OFFCURVE",
"301 79 CURVE SMOOTH",
"251 79 OFFCURVE",
"203 75 OFFCURVE",
"158 67 CURVE"
);
}
);
width = 349;
}
);
note = one;
unicode = 0031;
},
{
glyphname = two;
layers = (
{
hints = (
{
horizontal = 1;
place = "{-49, 38}";
type = Stem;
},
{
horizontal = 1;
place = "{563, 47}";
type = Stem;
},
{
place = "{638, 82}";
type = Stem;
},
{
place = "{638, 38}";
type = Stem;
}
);
layerId = "2B98CC2F-ACFB-4214-A552-9F7A1112B617";
paths = (
{
closed = 1;
nodes = (
"680 421 OFFCURVE",
"710 471 OFFCURVE",
"718 517 CURVE SMOOTH",
"719 525 OFFCURVE",
"720 532 OFFCURVE",
"720 539 CURVE SMOOTH",
"720 586 OFFCURVE",
"689 610 OFFCURVE",
"628 610 CURVE SMOOTH",
"573 610 OFFCURVE",
"505 592 OFFCURVE",
"426 557 CURVE SMOOTH",
"355 525 OFFCURVE",
"295 489 OFFCURVE",
"248 449 CURVE SMOOTH",
"244 446 OFFCURVE",
"242 442 OFFCURVE",
"242 437 CURVE SMOOTH",
"242 429 OFFCURVE",
"245 425 OFFCURVE",
"252 425 CURVE SMOOTH",
"255 425 OFFCURVE",
"258 426 OFFCURVE",
"261 429 CURVE SMOOTH",
"296 460 OFFCURVE",
"344 490 OFFCURVE",
"405 518 CURVE SMOOTH",
"471 548 OFFCURVE",
"526 563 OFFCURVE",
"570 563 CURVE SMOOTH",
"615 563 OFFCURVE",
"638 545 OFFCURVE",
"638 509 CURVE SMOOTH",
"638 504 OFFCURVE",
"637 498 OFFCURVE",
"636 492 CURVE SMOOTH",
"629 449 OFFCURVE",
"610 409 OFFCURVE",
"579 372 CURVE SMOOTH",
"557 345 OFFCURVE",
"523 313 OFFCURVE",
"477 277 CURVE SMOOTH",
"429 239 OFFCURVE",
"327 173 OFFCURVE",
"171 79 CURVE",
"134 82 OFFCURVE",
"101 80 OFFCURVE",
"74 75 CURVE SMOOTH",
"57 72 OFFCURVE",
"41 65 OFFCURVE",
"26 55 CURVE SMOOTH",
"9 42 OFFCURVE",
"0 28 OFFCURVE",
"0 13 CURVE SMOOTH",
"0 1 OFFCURVE",
"8 -5 OFFCURVE",
"24 -5 CURVE SMOOTH",
"30 -5 OFFCURVE",
"37 -4 OFFCURVE",
"45 -2 CURVE SMOOTH",
"98 17 OFFCURVE",
"137 32 OFFCURVE",
"163 44 CURVE",
"183 44 OFFCURVE",
"208 39 OFFCURVE",
"238 30 CURVE SMOOTH",
"377 -20 LINE SMOOTH",
"432 -39 OFFCURVE",
"481 -49 OFFCURVE",
"522 -49 CURVE SMOOTH",
"557 -49 OFFCURVE",
"589 -41 OFFCURVE",
"620 -24 CURVE SMOOTH",
"657 -3 OFFCURVE",
"676 23 OFFCURVE",
"676 55 CURVE SMOOTH",
"676 92 OFFCURVE",
"648 119 OFFCURVE",
"593 135 CURVE SMOOTH",
"582 138 OFFCURVE",
"576 136 OFFCURVE",
"576 127 CURVE SMOOTH",
"576 124 OFFCURVE",
"579 121 OFFCURVE",
"584 119 CURVE SMOOTH",
"625 104 OFFCURVE",
"645 83 OFFCURVE",
"645 57 CURVE SMOOTH",
"645 34 OFFCURVE",
"630 16 OFFCURVE",
"601 4 CURVE SMOOTH",
"578 -6 OFFCURVE",
"554 -11 OFFCURVE",
"528 -11 CURVE SMOOTH",
"482 -11 OFFCURVE",
"424 1 OFFCURVE",
"353 25 CURVE SMOOTH",
"278 50 OFFCURVE",
"226 64 OFFCURVE",
"197 67 CURVE",
"321 132 OFFCURVE",
"418 192 OFFCURVE",
"488 247 CURVE SMOOTH",
"551 297 OFFCURVE",
"598 337 OFFCURVE",
"627 367 CURVE SMOOTH"
);
}
);
width = 648;
}
);
note = two;
unicode = 0032;
},
{
glyphname = three;
layers = (
{
hints = (
{
horizontal = 1;
place = "{-10, 21}";
target = up;
type = BottomGhost;
},
{
horizontal = 1;
place = "{352, 28}";
type = Stem;
},
{
horizontal = 1;
place = "{572, 40}";
type = Stem;
},
{
place = "{32, 72}";
type = Stem;
},
{
place = "{683, 63}";
type = Stem;
},
{
place = "{660, 58}";
type = Stem;
}
);
layerId = "2B98CC2F-ACFB-4214-A552-9F7A1112B617";
paths = (
{
closed = 1;
nodes = (
"684 416 OFFCURVE",
"743 463 OFFCURVE",
"746 521 CURVE SMOOTH",
"749 582 OFFCURVE",
"717 612 OFFCURVE",
"652 612 CURVE SMOOTH",
"605 612 OFFCURVE",
"545 597 OFFCURVE",
"473 566 CURVE",
"476 570 OFFCURVE",
"479 573 OFFCURVE",
"481 574 CURVE",
"485 578 OFFCURVE",
"487 582 OFFCURVE",
"487 586 CURVE SMOOTH",
"487 590 OFFCURVE",
"485 592 OFFCURVE",
"482 593 CURVE SMOOTH",
"479 594 OFFCURVE",
"475 593 OFFCURVE",
"471 589 CURVE SMOOTH",
"438 558 OFFCURVE",
"414 540 OFFCURVE",
"398 535 CURVE SMOOTH",
"385 532 OFFCURVE",
"379 520 OFFCURVE",
"379 501 CURVE SMOOTH",
"379 492 OFFCURVE",
"381 488 OFFCURVE",
"386 488 CURVE SMOOTH",
"388 488 OFFCURVE",
"390 489 OFFCURVE",
"393 491 CURVE SMOOTH",
"424 511 OFFCURVE",
"461 529 OFFCURVE",
"504 545 CURVE SMOOTH",
"552 563 OFFCURVE",
"593 572 OFFCURVE",
"626 572 CURVE SMOOTH",
"664 572 OFFCURVE",
"683 558 OFFCURVE",
"683 529 CURVE SMOOTH",
"683 525 OFFCURVE",
"683 521 OFFCURVE",
"682 516 CURVE SMOOTH",
"674 469 OFFCURVE",
"638 434 OFFCURVE",
"574 409 CURVE SMOOTH",
"525 390 OFFCURVE",
"471 380 OFFCURVE",
"413 380 CURVE SMOOTH",
"396 380 OFFCURVE",
"384 365 OFFCURVE",
"384 350 CURVE SMOOTH",
"384 339 OFFCURVE",
"390 333 OFFCURVE",
"402 333 CURVE SMOOTH",
"407 333 OFFCURVE",
"414 334 OFFCURVE",
"421 337 CURVE SMOOTH",
"447 347 OFFCURVE",
"480 352 OFFCURVE",
"519 352 CURVE SMOOTH",
"558 352 OFFCURVE",
"590 346 OFFCURVE",
"615 335 CURVE SMOOTH",
"645 322 OFFCURVE",
"660 302 OFFCURVE",
"660 276 CURVE SMOOTH",
"660 265 OFFCURVE",
"658 254 OFFCURVE",
"653 242 CURVE SMOOTH",
"620 160 OFFCURVE",
"557 98 OFFCURVE",
"464 55 CURVE SMOOTH",
"381 17 OFFCURVE",
"300 5 OFFCURVE",
"223 19 CURVE SMOOTH",
"144 33 OFFCURVE",
"104 69 OFFCURVE",
"104 127 CURVE SMOOTH",
"104 138 OFFCURVE",
"106 149 OFFCURVE",
"109 161 CURVE SMOOTH",
"116 185 OFFCURVE",
"138 208 OFFCURVE",
"175 231 CURVE SMOOTH",
"208 251 OFFCURVE",
"236 261 OFFCURVE",
"257 261 CURVE SMOOTH",
"266 261 OFFCURVE",
"271 264 OFFCURVE",
"271 271 CURVE SMOOTH",
"271 276 OFFCURVE",
"267 279 OFFCURVE",
"259 279 CURVE SMOOTH",
"228 279 OFFCURVE",
"191 270 OFFCURVE",
"150 253 CURVE SMOOTH",
"101 232 OFFCURVE",
"68 207 OFFCURVE",
"51 176 CURVE SMOOTH",
"38 152 OFFCURVE",
"32 130 OFFCURVE",
"32 110 CURVE SMOOTH",
"32 71 OFFCURVE",
"54 41 OFFCURVE",
"97 20 CURVE SMOOTH",
"137 0 OFFCURVE",
"190 -10 OFFCURVE",
"255 -10 CURVE SMOOTH",
"356 -10 OFFCURVE",
"450 11 OFFCURVE",
"537 54 CURVE SMOOTH",
"635 103 OFFCURVE",
"694 167 OFFCURVE",
"714 246 CURVE SMOOTH",
"717 256 OFFCURVE",
"718 265 OFFCURVE",
"718 274 CURVE SMOOTH",
"718 334 OFFCURVE",
"668 369 OFFCURVE",
"567 380 CURVE"
);
}
);
width = 718;
}
);
note = three;
unicode = 0033;
},
{
glyphname = four;
layers = (
{
hints = (
{
horizontal = 1;
place = "{34, 21}";
target = up;
type = BottomGhost;
},
{
horizontal = 1;
place = "{236, 25}";
type = Stem;
},
{
horizontal = 1;
place = "{286, 39}";
type = Stem;
},
{
horizontal = 1;
place = "{636, -20}";
target = down;
type = TopGhost;
},
{
place = "{630, 38}";
type = Stem;
}
);
layerId = "2B98CC2F-ACFB-4214-A552-9F7A1112B617";
paths = (
{
closed = 1;
nodes = (
"682 616 LINE SMOOTH",
"683 617 OFFCURVE",
"684 619 OFFCURVE",
"684 620 CURVE SMOOTH",
"684 633 OFFCURVE",
"673 639 OFFCURVE",
"650 639 CURVE SMOOTH",
"641 639 OFFCURVE",
"636 636 OFFCURVE",
"633 632 CURVE SMOOTH",
"624 618 LINE",
"622 615 LINE SMOOTH",
"597 579 OFFCURVE",
"521 522 OFFCURVE",
"396 443 CURVE SMOOTH",
"304 384 OFFCURVE",
"185 287 OFFCURVE",
"91 236 CURVE",
"66 231 OFFCURVE",
"48 227 OFFCURVE",
"35 222 CURVE SMOOTH",
"20 217 OFFCURVE",
"13 206 OFFCURVE",
"13 189 CURVE SMOOTH",
"13 170 OFFCURVE",
"25 153 OFFCURVE",
"41 158 CURVE",
"121 191 OFFCURVE",
"183 208 OFFCURVE",
"228 208 CURVE SMOOTH",
"263 208 OFFCURVE",
"305 200 OFFCURVE",
"354 186 CURVE",
"323 108 OFFCURVE",
"288 1 OFFCURVE",
"323 -75 CURVE",
"326 -79 OFFCURVE",
"334 -81 OFFCURVE",
"339 -81 CURVE SMOOTH",
"350 -81 OFFCURVE",
"355 -75 OFFCURVE",
"355 -63 CURVE SMOOTH",
"355 -61 OFFCURVE",
"354 -57 OFFCURVE",
"353 -54 CURVE SMOOTH",
"323 10 OFFCURVE",
"361 120 OFFCURVE",
"390 176 CURVE",
"442 160 OFFCURVE",
"485 152 OFFCURVE",
"520 152 CURVE SMOOTH",
"601 152 OFFCURVE",
"642 175 OFFCURVE",
"642 220 CURVE SMOOTH",
"642 237 OFFCURVE",
"636 258 OFFCURVE",
"623 281 CURVE SMOOTH",
"620 287 OFFCURVE",
"615 291 OFFCURVE",
"609 291 CURVE SMOOTH",
"602 291 OFFCURVE",
"599 286 OFFCURVE",
"601 276 CURVE SMOOTH",
"603 269 OFFCURVE",
"604 262 OFFCURVE",
"604 255 CURVE SMOOTH",
"604 231 OFFCURVE",
"594 213 OFFCURVE",
"575 197 CURVE SMOOTH",
"560 186 OFFCURVE",
"543 180 OFFCURVE",
"524 180 CURVE SMOOTH",
"492 180 OFFCURVE",
"453 188 OFFCURVE",
"406 204 CURVE",
"421 230 OFFCURVE",
"471 311 OFFCURVE",
"506 363 CURVE SMOOTH"
);
},
{
closed = 1;
nodes = (
"325 361 OFFCURVE",
"475 473 OFFCURVE",
"556 522 CURVE",
"533 488 LINE SMOOTH",
"464 389 OFFCURVE",
"392 271 OFFCURVE",
"368 219 CURVE",
"313 240 OFFCURVE",
"267 251 OFFCURVE",
"231 251 CURVE SMOOTH",
"218 251 OFFCURVE",
"195 250 OFFCURVE",
"162 246 CURVE"
);
}
);
width = 568;
}
);
note = four;
unicode = 0034;
},
{
glyphname = five;
layers = (
{
hints = (
{
horizontal = 1;
place = "{-8, 30}";
type = Stem;
},
{
horizontal = 1;
place = "{418, 27}";
type = Stem;
},
{
horizontal = 1;
place = "{554, 25}";
type = Stem;
},
{
horizontal = 1;
place = "{647, -20}";
target = down;
type = TopGhost;
},
{
place = "{-33, 45}";
type = Stem;
},
{
place = "{559, 74}";
type = Stem;
},
{
horizontal = 1;
place = "{580, 51}";
type = Stem;
},
{
horizontal = 1;
place = "{418, 112}";
type = Stem;
}
);
layerId = "2B98CC2F-ACFB-4214-A552-9F7A1112B617";
paths = (
{
closed = 1;
nodes = (
"706 554 OFFCURVE",
"727 558 OFFCURVE",
"748 567 CURVE SMOOTH",
"778 580 OFFCURVE",
"793 598 OFFCURVE",
"793 621 CURVE SMOOTH",
"793 638 OFFCURVE",
"789 647 OFFCURVE",
"781 647 CURVE SMOOTH",
"773 647 OFFCURVE",
"769 642 OFFCURVE",
"769 632 CURVE SMOOTH",
"769 615 OFFCURVE",
"758 602 OFFCURVE",
"736 591 CURVE SMOOTH",
"719 583 OFFCURVE",
"704 579 OFFCURVE",
"691 579 CURVE SMOOTH",
"659 579 OFFCURVE",
"613 588 OFFCURVE",
"552 605 CURVE SMOOTH",
"491 622 OFFCURVE",
"445 631 OFFCURVE",
"413 631 CURVE SMOOTH",
"384 631 OFFCURVE",
"366 630 OFFCURVE",
"358 629 CURVE SMOOTH",
"339 627 OFFCURVE",
"322 620 OFFCURVE",
"307 609 CURVE SMOOTH",
"302 606 OFFCURVE",
"299 598 OFFCURVE",
"298 585 CURVE SMOOTH",
"295 561 OFFCURVE",
"299 545 OFFCURVE",
"308 552 CURVE SMOOTH",
"333 571 OFFCURVE",
"367 580 OFFCURVE",
"410 580 CURVE SMOOTH",
"444 580 OFFCURVE",
"490 576 OFFCURVE",
"548 567 CURVE SMOOTH",
"606 558 OFFCURVE",
"652 554 OFFCURVE",
"685 554 CURVE SMOOTH"
);
},
{
closed = 1;
nodes = (
"255 -4 OFFCURVE",
"351 26 OFFCURVE",
"442 83 CURVE SMOOTH",
"539 144 OFFCURVE",
"600 217 OFFCURVE",
"627 303 CURVE SMOOTH",
"631 316 OFFCURVE",
"633 328 OFFCURVE",
"633 339 CURVE SMOOTH",
"633 410 OFFCURVE",
"562 445 OFFCURVE",
"419 445 CURVE SMOOTH",
"382 445 OFFCURVE",
"321 428 OFFCURVE",
"236 394 CURVE",
"352 520 LINE SMOOTH",
"353 521 OFFCURVE",
"354 523 OFFCURVE",
"354 524 CURVE SMOOTH",
"354 528 OFFCURVE",
"347 530 OFFCURVE",
"334 530 CURVE SMOOTH",
"310 530 OFFCURVE",
"295 526 OFFCURVE",
"289 519 CURVE SMOOTH",
"171 370 LINE",
"162 366 OFFCURVE",
"158 359 OFFCURVE",
"158 349 CURVE SMOOTH",
"158 341 OFFCURVE",
"161 337 OFFCURVE",
"167 337 CURVE SMOOTH",
"169 337 OFFCURVE",
"171 337 OFFCURVE",
"173 338 CURVE SMOOTH",
"278 389 LINE SMOOTH",
"313 406 OFFCURVE",
"353 416 OFFCURVE",
"398 418 CURVE SMOOTH",
"433 419 OFFCURVE",
"466 414 OFFCURVE",
"497 403 CURVE SMOOTH",
"538 386 OFFCURVE",
"559 361 OFFCURVE",
"559 327 CURVE SMOOTH",
"559 320 OFFCURVE",
"558 314 OFFCURVE",
"557 307 CURVE SMOOTH",
"542 233 OFFCURVE",
"492 166 OFFCURVE",
"407 107 CURVE SMOOTH",
"325 50 OFFCURVE",
"245 22 OFFCURVE",
"166 22 CURVE SMOOTH",
"125 22 OFFCURVE",
"89 31 OFFCURVE",
"58 50 CURVE SMOOTH",
"27 69 OFFCURVE",
"12 93 OFFCURVE",
"12 120 CURVE SMOOTH",
"12 143 OFFCURVE",
"24 167 OFFCURVE",
"48 190 CURVE SMOOTH",
"55 197 OFFCURVE",
"58 203 OFFCURVE",
"58 208 CURVE SMOOTH",
"58 213 OFFCURVE",
"56 215 OFFCURVE",
"51 215 CURVE SMOOTH",
"46 215 OFFCURVE",
"39 212 OFFCURVE",
"32 205 CURVE SMOOTH",
"-11 164 OFFCURVE",
"-33 127 OFFCURVE",
"-33 92 CURVE SMOOTH",
"-33 27 OFFCURVE",
"45 -12 OFFCURVE",
"154 -8 CURVE SMOOTH"
);
}
);
width = 662;
}
);
note = five;
unicode = 0035;
},
{
glyphname = six;
layers = (
{
hints = (
{
horizontal = 1;
place = "{-19, 26}";
type = Stem;
},
{
horizontal = 1;
place = "{212, 35}";
type = Stem;
},
{
place = "{50, 35}";
type = Stem;
},
{
place = "{535, 59}";
type = Stem;
}
);
layerId = "2B98CC2F-ACFB-4214-A552-9F7A1112B617";
paths = (
{
closed = 1;
nodes = (
"510 495 OFFCURVE",
"631 539 OFFCURVE",
"734 559 CURVE SMOOTH",
"741 560 OFFCURVE",
"745 564 OFFCURVE",
"745 571 CURVE SMOOTH",
"745 590 OFFCURVE",
"720 609 OFFCURVE",
"683 606 CURVE SMOOTH",
"631 603 OFFCURVE",
"603 601 OFFCURVE",
"599 601 CURVE SMOOTH",
"591 602 OFFCURVE",
"575 596 OFFCURVE",
"572 591 CURVE",
"571 588 OFFCURVE",
"572 586 OFFCURVE",
"576 584 CURVE",
"580 584 OFFCURVE",
"590 581 OFFCURVE",
"594 580 CURVE",
"528 558 OFFCURVE",
"444 519 OFFCURVE",
"341 463 CURVE SMOOTH",
"258 418 OFFCURVE",
"188 361 OFFCURVE",
"133 292 CURVE SMOOTH",
"80 226 OFFCURVE",
"53 165 OFFCURVE",
"50 109 CURVE SMOOTH",
"48 70 OFFCURVE",
"60 39 OFFCURVE",
"86 17 CURVE SMOOTH",
"114 -7 OFFCURVE",
"156 -19 OFFCURVE",
"213 -19 CURVE SMOOTH",
"270 -19 OFFCURVE",
"339 -6 OFFCURVE",
"421 19 CURVE SMOOTH",
"462 32 OFFCURVE",
"499 51 OFFCURVE",
"532 76 CURVE SMOOTH",
"573 109 OFFCURVE",
"594 143 OFFCURVE",
"594 179 CURVE SMOOTH",
"594 225 OFFCURVE",
"561 248 OFFCURVE",
"494 247 CURVE SMOOTH",
"436 246 OFFCURVE",
"381 229 OFFCURVE",
"328 196 CURVE SMOOTH",
"267 157 OFFCURVE",
"231 107 OFFCURVE",
"220 46 CURVE SMOOTH",
"218 35 OFFCURVE",
"221 29 OFFCURVE",
"229 29 CURVE SMOOTH",
"238 29 OFFCURVE",
"244 35 OFFCURVE",
"246 48 CURVE SMOOTH",
"255 97 OFFCURVE",
"287 137 OFFCURVE",
"344 170 CURVE SMOOTH",
"393 198 OFFCURVE",
"442 212 OFFCURVE",
"489 212 CURVE SMOOTH",
"520 212 OFFCURVE",
"535 200 OFFCURVE",
"535 177 CURVE SMOOTH",
"535 148 OFFCURVE",
"517 119 OFFCURVE",
"480 90 CURVE SMOOTH",
"450 66 OFFCURVE",
"419 49 OFFCURVE",
"386 39 CURVE SMOOTH",
"316 18 OFFCURVE",
"257 7 OFFCURVE",
"210 7 CURVE SMOOTH",
"127 7 OFFCURVE",
"85 37 OFFCURVE",
"85 98 CURVE SMOOTH",
"85 157 OFFCURVE",
"120 222 OFFCURVE",
"189 292 CURVE SMOOTH",
"246 351 OFFCURVE",
"306 396 OFFCURVE",
"371 427 CURVE SMOOTH"
);
}
);
width = 612;
}
);
note = six;
unicode = 0036;
},
{
glyphname = seven;
layers = (
{
hints = (
{
horizontal = 1;
place = "{-15, 21}";
target = up;
type = BottomGhost;
},
{
horizontal = 1;
place = "{600, 44}";
type = Stem;
},
{
place = "{121, 28}";
type = Stem;
}
);
layerId = "2B98CC2F-ACFB-4214-A552-9F7A1112B617";
paths = (
{
closed = 1;
nodes = (
"399 369 OFFCURVE",
"534 481 OFFCURVE",
"693 596 CURVE SMOOTH",
"700 601 OFFCURVE",
"698 611 OFFCURVE",
"685 624 CURVE SMOOTH",
"673 638 OFFCURVE",
"663 642 OFFCURVE",
"656 637 CURVE SMOOTH",
"605 599 LINE",
"583 602 OFFCURVE",
"540 610 OFFCURVE",
"476 625 CURVE SMOOTH",
"422 638 OFFCURVE",
"379 644 OFFCURVE",
"346 644 CURVE SMOOTH",
"267 644 OFFCURVE",
"205 623 OFFCURVE",
"158 581 CURVE",
"158 598 OFFCURVE",
"154 609 OFFCURVE",
"150 612 CURVE",
"147 613 OFFCURVE",
"145 611 OFFCURVE",
"143 606 CURVE SMOOTH",
"140 597 OFFCURVE",
"139 590 OFFCURVE",
"140 583 CURVE SMOOTH",
"141 576 OFFCURVE",
"138 564 OFFCURVE",
"130 547 CURVE SMOOTH",
"112 511 LINE",
"112 510 OFFCURVE",
"111 508 OFFCURVE",
"110 505 CURVE SMOOTH",
"109 499 LINE SMOOTH",
"104 483 OFFCURVE",
"116 471 OFFCURVE",
"131 471 CURVE SMOOTH",
"144 471 OFFCURVE",
"153 478 OFFCURVE",
"158 491 CURVE SMOOTH",
"173 535 OFFCURVE",
"199 565 OFFCURVE",
"237 582 CURVE SMOOTH",
"266 594 OFFCURVE",
"310 600 OFFCURVE",
"367 600 CURVE SMOOTH",
"399 600 OFFCURVE",
"469 593 OFFCURVE",
"578 578 CURVE",
"453 479 OFFCURVE",
"345 378 OFFCURVE",
"254 275 CURVE SMOOTH",
"165 175 OFFCURVE",
"121 90 OFFCURVE",
"121 20 CURVE SMOOTH",
"121 4 OFFCURVE",
"120 -15 OFFCURVE",
"139 -15 CURVE SMOOTH",
"148 -15 OFFCURVE",
"152 -11 OFFCURVE",
"151 -3 CURVE SMOOTH",
"150 2 OFFCURVE",
"149 8 OFFCURVE",
"149 14 CURVE SMOOTH",
"149 48 OFFCURVE",
"166 92 OFFCURVE",
"199 145 CURVE SMOOTH",
"226 189 OFFCURVE",
"256 227 OFFCURVE",
"288 259 CURVE SMOOTH"
);
}
);
width = 494;
}
);
note = seven;
unicode = 0037;
},
{
glyphname = eight;
layers = (
{
hints = (
{
horizontal = 1;
place = "{-18, 21}";
target = up;
type = BottomGhost;
},
{
horizontal = 1;
place = "{600, 30}";
type = Stem;
}
);
layerId = "2B98CC2F-ACFB-4214-A552-9F7A1112B617";
paths = (
{
closed = 1;
nodes = (
"719 544 OFFCURVE",
"713 551 OFFCURVE",
"702 548 CURVE SMOOTH",
"618 521 LINE",
"630 538 OFFCURVE",
"636 553 OFFCURVE",
"636 568 CURVE SMOOTH",
"636 585 OFFCURVE",
"627 599 OFFCURVE",
"609 610 CURVE SMOOTH",
"586 623 OFFCURVE",
"557 630 OFFCURVE",
"520 630 CURVE SMOOTH",
"469 630 OFFCURVE",
"420 618 OFFCURVE",
"373 594 CURVE SMOOTH",
"322 568 OFFCURVE",
"288 535 OFFCURVE",
"273 494 CURVE SMOOTH",
"270 487 OFFCURVE",
"269 481 OFFCURVE",
"269 474 CURVE SMOOTH",
"269 451 OFFCURVE",
"290 426 OFFCURVE",
"331 401 CURVE",
"228 348 OFFCURVE",
"138 280 OFFCURVE",
"62 197 CURVE SMOOTH",
"21 153 OFFCURVE",
"1 111 OFFCURVE",
"1 72 CURVE SMOOTH",
"1 50 OFFCURVE",
"8 31 OFFCURVE",
"22 15 CURVE SMOOTH",
"41 -7 OFFCURVE",
"76 -18 OFFCURVE",
"126 -18 CURVE SMOOTH",
"189 -18 OFFCURVE",
"254 -4 OFFCURVE",
"321 23 CURVE SMOOTH",
"396 54 OFFCURVE",
"457 89 OFFCURVE",
"506 130 CURVE SMOOTH",
"561 177 OFFCURVE",
"588 221 OFFCURVE",
"588 264 CURVE SMOOTH",
"588 303 OFFCURVE",
"564 339 OFFCURVE",
"515 370 CURVE SMOOTH",
"493 384 OFFCURVE",
"462 399 OFFCURVE",
"423 415 CURVE",
"520 460 OFFCURVE",
"608 492 OFFCURVE",
"689 510 CURVE SMOOTH",
"706 514 OFFCURVE",
"716 522 OFFCURVE",
"718 533 CURVE SMOOTH"
);
},
{
closed = 1;
nodes = (
"329 518 OFFCURVE",
"345 544 OFFCURVE",
"381 566 CURVE SMOOTH",
"418 589 OFFCURVE",
"460 600 OFFCURVE",
"507 600 CURVE SMOOTH",
"536 600 OFFCURVE",
"562 595 OFFCURVE",
"587 586 CURVE SMOOTH",
"603 580 OFFCURVE",
"609 569 OFFCURVE",
"604 552 CURVE",
"596 533 OFFCURVE",
"590 519 OFFCURVE",
"585 510 CURVE",
"498 475 OFFCURVE",
"434 447 OFFCURVE",
"394 428 CURVE",
"357 445 OFFCURVE",
"336 465 OFFCURVE",
"333 489 CURVE SMOOTH"
);
},
{
closed = 1;
nodes = (
"445 342 LINE SMOOTH",
"502 313 OFFCURVE",
"531 278 OFFCURVE",
"531 238 CURVE SMOOTH",
"531 169 OFFCURVE",
"451 103 OFFCURVE",
"292 38 CURVE SMOOTH",
"231 13 OFFCURVE",
"179 1 OFFCURVE",
"137 1 CURVE SMOOTH",
"88 1 OFFCURVE",
"62 19 OFFCURVE",
"57 55 CURVE SMOOTH",
"50 106 OFFCURVE",
"90 171 OFFCURVE",
"177 251 CURVE SMOOTH",
"240 308 OFFCURVE",
"301 353 OFFCURVE",
"359 386 CURVE"
);
}
);
width = 608;
}
);
note = eight;
unicode = 0038;
},
{
glyphname = nine;
layers = (
{
hints = (
{
horizontal = 1;
place = "{583, 43}";
type = Stem;
},
{
place = "{75, 46}";
type = Stem;
},
{
place = "{120, 42}";
type = Stem;
}
);
layerId = "2B98CC2F-ACFB-4214-A552-9F7A1112B617";
paths = (
{
closed = 1;
nodes = (
"554 491 OFFCURVE",
"591 523 OFFCURVE",
"612 541 CURVE SMOOTH",
"618 546 OFFCURVE",
"621 551 OFFCURVE",
"621 556 CURVE SMOOTH",
"621 570 OFFCURVE",
"607 577 OFFCURVE",
"579 577 CURVE SMOOTH",
"570 577 OFFCURVE",
"564 576 OFFCURVE",
"561 573 CURVE SMOOTH",
"504 527 OFFCURVE",
"442 482 OFFCURVE",
"373 438 CURVE SMOOTH",
"280 379 OFFCURVE",
"211 346 OFFCURVE",
"166 341 CURVE SMOOTH",
"135 337 OFFCURVE",
"120 346 OFFCURVE",
"121 373 CURVE SMOOTH",
"124 429 OFFCURVE",
"177 480 OFFCURVE",
"282 526 CURVE SMOOTH",
"383 571 OFFCURVE",
"481 590 OFFCURVE",
"576 583 CURVE SMOOTH",
"587 582 OFFCURVE",
"602 605 OFFCURVE",
"603 617 CURVE SMOOTH",
"604 623 OFFCURVE",
"602 626 OFFCURVE",
"597 626 CURVE SMOOTH",
"543 628 OFFCURVE",
"477 620 OFFCURVE",
"400 601 CURVE SMOOTH",
"311 579 OFFCURVE",
"239 550 OFFCURVE",
"182 514 CURVE SMOOTH",
"113 470 OFFCURVE",
"77 420 OFFCURVE",
"75 364 CURVE SMOOTH",
"74 330 OFFCURVE",
"93 313 OFFCURVE",
"134 313 CURVE SMOOTH",
"207 313 OFFCURVE",
"314 361 OFFCURVE",
"454 458 CURVE",
"367 373 OFFCURVE",
"292 281 OFFCURVE",
"229 184 CURVE SMOOTH",
"154 68 OFFCURVE",
"117 -26 OFFCURVE",
"120 -98 CURVE SMOOTH",
"121 -131 OFFCURVE",
"135 -149 OFFCURVE",
"161 -152 CURVE SMOOTH",
"171 -153 OFFCURVE",
"178 -152 OFFCURVE",
"182 -148 CURVE SMOOTH",
"189 -143 OFFCURVE",
"187 -139 OFFCURVE",
"177 -135 CURVE SMOOTH",
"168 -132 OFFCURVE",
"163 -121 OFFCURVE",
"162 -102 CURVE SMOOTH",
"156 47 OFFCURVE",
"269 229 OFFCURVE",
"502 444 CURVE SMOOTH"
);
}
);
width = 440;
}
);
note = nine;
unicode = 0039;
},
{
glyphname = colon;
layers = (
{
hints = (
{
horizontal = 1;
place = "{-1, 64}";
type = Stem;
},
{
horizontal = 1;
place = "{193, 64}";
type = Stem;
},
{
place = "{128, 80}";
type = Stem;
},
{
place = "{88, 80}";
type = Stem;
}
);
layerId = "2B98CC2F-ACFB-4214-A552-9F7A1112B617";
paths = (
{
closed = 1;
nodes = (
"208 242 OFFCURVE",
"185 257 OFFCURVE",
"166 257 CURVE SMOOTH",
"141 257 OFFCURVE",
"128 247 OFFCURVE",
"128 228 CURVE SMOOTH",
"128 209 OFFCURVE",
"147 193 OFFCURVE",
"170 193 CURVE SMOOTH",
"186 193 OFFCURVE",
"208 207 OFFCURVE",
"208 223 CURVE SMOOTH"
);
},
{
closed = 1;
nodes = (
"168 49 OFFCURVE",
"145 63 OFFCURVE",
"126 63 CURVE SMOOTH",
"101 63 OFFCURVE",
"88 53 OFFCURVE",
"88 34 CURVE SMOOTH",
"88 15 OFFCURVE",
"107 -1 OFFCURVE",
"130 -1 CURVE SMOOTH",
"146 -1 OFFCURVE",
"168 13 OFFCURVE",
"168 29 CURVE SMOOTH"
);
}
);
width = 226;
}
);
note = colon;
unicode = 003A;
},
{
glyphname = semicolon;
layers = (
{
hints = (
{
horizontal = 1;
place = "{193, 64}";
type = Stem;
},
{
place = "{128, 80}";
type = Stem;
},
{
horizontal = 1;
place = "{63, 130}";
type = Stem;
},
{
place = "{97, 71}";
type = Stem;
}
);
layerId = "2B98CC2F-ACFB-4214-A552-9F7A1112B617";
paths = (
{
closed = 1;
nodes = (
"208 242 OFFCURVE",
"185 257 OFFCURVE",
"166 257 CURVE SMOOTH",
"141 257 OFFCURVE",
"128 247 OFFCURVE",
"128 228 CURVE SMOOTH",
"128 209 OFFCURVE",
"147 193 OFFCURVE",
"170 193 CURVE SMOOTH",
"186 193 OFFCURVE",
"208 207 OFFCURVE",
"208 223 CURVE SMOOTH"
);
},
{
closed = 1;
nodes = (
"168 49 OFFCURVE",
"145 63 OFFCURVE",
"126 63 CURVE SMOOTH",
"107 63 OFFCURVE",
"97 53 OFFCURVE",
"97 33 CURVE SMOOTH",
"97 21 OFFCURVE",
"123 11 OFFCURVE",
"124 -4 CURVE SMOOTH",
"126 -18 OFFCURVE",
"119 -33 OFFCURVE",
"104 -50 CURVE SMOOTH",
"89 -67 OFFCURVE",
"81 -76 OFFCURVE",
"81 -77 CURVE SMOOTH",
"81 -78 OFFCURVE",
"82 -79 OFFCURVE",
"85 -80 CURVE SMOOTH",
"96 -83 OFFCURVE",
"112 -73 OFFCURVE",
"133 -51 CURVE SMOOTH",
"156 -26 OFFCURVE",
"168 0 OFFCURVE",
"168 29 CURVE SMOOTH"
);
}
);
width = 226;
}
);
note = semicolon;
unicode = 003B;
},
{
glyphname = less;
layers = (
{
hints = (
{
horizontal = 1;
place = "{136, 21}";
target = up;
type = BottomGhost;
},
{
horizontal = 1;
place = "{442, -20}";
target = down;
type = TopGhost;
}
);
layerId = "2B98CC2F-ACFB-4214-A552-9F7A1112B617";
paths = (
{
closed = 1;
nodes = (
"85 253 OFFCURVE",
"86 251 OFFCURVE",
"88 250 CURVE SMOOTH",
"145 209 OFFCURVE",
"186 172 OFFCURVE",
"209 140 CURVE",
"217 136 LINE",
"224 136 OFFCURVE",
"227 140 OFFCURVE",
"227 149 CURVE SMOOTH",
"227 156 OFFCURVE",
"195 200 OFFCURVE",
"130 283 CURVE",
"196 375 OFFCURVE",
"229 426 OFFCURVE",
"229 436 CURVE SMOOTH",
"229 440 OFFCURVE",
"227 442 OFFCURVE",
"222 442 CURVE SMOOTH",
"214 442 OFFCURVE",
"208 438 OFFCURVE",
"203 431 CURVE SMOOTH",
"137 341 LINE SMOOTH",
"102 293 OFFCURVE",
"85 265 OFFCURVE",
"85 256 CURVE SMOOTH"
);
}
);
width = 318;
}
);
note = less;
unicode = 003C;
},
{
glyphname = equal;
layers = (
{
hints = (
{
horizontal = 1;
place = "{214, 46}";
type = Stem;
},
{
horizontal = 1;
place = "{382, -20}";
target = down;
type = TopGhost;
},
{
horizontal = 1;
place = "{334, 46}";
type = Stem;
},
{
horizontal = 1;
place = "{381, -20}";
target = down;
type = TopGhost;
}
);
layerId = "2B98CC2F-ACFB-4214-A552-9F7A1112B617";
paths = (
{
closed = 1;
nodes = (
"398 380 OFFCURVE",
"349 379 OFFCURVE",
"281 380 CURVE SMOOTH",
"258 381 OFFCURVE",
"229 381 OFFCURVE",
"195 381 CURVE SMOOTH",
"172 381 OFFCURVE",
"146 381 OFFCURVE",
"117 380 CURVE SMOOTH",
"89 379 OFFCURVE",
"76 379 OFFCURVE",
"77 379 CURVE SMOOTH",
"68 379 OFFCURVE",
"52 371 OFFCURVE",
"52 355 CURVE SMOOTH",
"52 345 OFFCURVE",
"81 338 OFFCURVE",
"140 334 CURVE SMOOTH",
"193 331 OFFCURVE",
"227 330 OFFCURVE",
"240 333 CURVE SMOOTH",
"351 351 LINE SMOOTH",
"408 361 OFFCURVE",
"434 371 OFFCURVE",
"429 382 CURVE"
);
},
{
closed = 1;
nodes = (
"365 259 OFFCURVE",
"316 259 OFFCURVE",
"248 260 CURVE SMOOTH",
"225 261 OFFCURVE",
"197 261 OFFCURVE",
"163 260 CURVE SMOOTH",
"83 260 LINE SMOOTH",
"56 259 OFFCURVE",
"43 259 OFFCURVE",
"44 259 CURVE SMOOTH",
"35 259 OFFCURVE",
"19 250 OFFCURVE",
"19 235 CURVE SMOOTH",
"19 225 OFFCURVE",
"48 218 OFFCURVE",
"107 214 CURVE SMOOTH",
"161 210 OFFCURVE",
"194 210 OFFCURVE",
"207 213 CURVE SMOOTH",
"244 219 OFFCURVE",
"282 225 OFFCURVE",
"319 230 CURVE SMOOTH",
"376 240 OFFCURVE",
"401 251 OFFCURVE",
"396 262 CURVE"
);
}
);
width = 406;
}
);
note = equal;
unicode = 003D;
},
{
glyphname = greater;
layers = (
{
hints = (
{
horizontal = 1;
place = "{129, 21}";
target = up;
type = BottomGhost;
},
{
horizontal = 1;
place = "{435, -20}";
target = down;
type = TopGhost;
}
);
layerId = "2B98CC2F-ACFB-4214-A552-9F7A1112B617";
paths = (
{
closed = 1;
nodes = (
"229 318 OFFCURVE",
"228 320 OFFCURVE",
"226 321 CURVE SMOOTH",
"168 363 OFFCURVE",
"128 400 OFFCURVE",
"105 431 CURVE",
"97 435 LINE",
"90 435 OFFCURVE",
"86 431 OFFCURVE",
"86 422 CURVE SMOOTH",
"86 415 OFFCURVE",
"119 371 OFFCURVE",
"184 288 CURVE",
"118 196 OFFCURVE",
"85 145 OFFCURVE",
"85 135 CURVE SMOOTH",
"85 131 OFFCURVE",
"87 129 OFFCURVE",
"91 129 CURVE SMOOTH",
"99 129 OFFCURVE",
"105 133 OFFCURVE",
"110 140 CURVE SMOOTH",
"133 170 OFFCURVE",
"155 200 OFFCURVE",
"177 230 CURVE SMOOTH",
"212 278 OFFCURVE",
"229 306 OFFCURVE",
"229 315 CURVE SMOOTH"
);
}
);
width = 318;
}
);
note = greater;
unicode = 003E;
},
{
glyphname = question;
layers = (
{
hints = (
{
horizontal = 1;
place = "{-5, 63}";
type = Stem;
},
{
horizontal = 1;
place = "{290, 198}";
type = Stem;
},
{
place = "{87, 80}";
type = Stem;
},
{
place = "{387, 49}";
type = Stem;
},
{
horizontal = 1;
place = "{447, 41}";
type = Stem;
}
);
layerId = "2B98CC2F-ACFB-4214-A552-9F7A1112B617";
paths = (
{
closed = 1;
nodes = (
"418 318 OFFCURVE",
"436 352 OFFCURVE",
"436 393 CURVE SMOOTH",
"436 456 OFFCURVE",
"381 488 OFFCURVE",
"270 488 CURVE SMOOTH",
"228 488 OFFCURVE",
"189 477 OFFCURVE",
"153 455 CURVE SMOOTH",
"110 428 OFFCURVE",
"86 392 OFFCURVE",
"82 347 CURVE SMOOTH",
"79 314 OFFCURVE",
"105 290 OFFCURVE",
"138 290 CURVE SMOOTH",
"164 290 OFFCURVE",
"188 301 OFFCURVE",
"209 324 CURVE SMOOTH",
"212 327 OFFCURVE",
"214 331 OFFCURVE",
"214 336 CURVE SMOOTH",
"214 340 OFFCURVE",
"213 342 OFFCURVE",
"210 342 CURVE SMOOTH",
"209 342 OFFCURVE",
"207 341 OFFCURVE",
"205 339 CURVE SMOOTH",
"186 319 OFFCURVE",
"167 309 OFFCURVE",
"147 309 CURVE SMOOTH",
"123 309 OFFCURVE",
"103 328 OFFCURVE",
"106 345 CURVE SMOOTH",
"110 378 OFFCURVE",
"128 404 OFFCURVE",
"161 423 CURVE SMOOTH",
"189 439 OFFCURVE",
"223 447 OFFCURVE",
"262 447 CURVE SMOOTH",
"330 447 OFFCURVE",
"387 419 OFFCURVE",
"387 376 CURVE SMOOTH",
"387 354 OFFCURVE",
"373 330 OFFCURVE",
"344 304 CURVE SMOOTH",
"333 295 OFFCURVE",
"297 270 OFFCURVE",
"234 229 CURVE SMOOTH",
"192 202 OFFCURVE",
"163 171 OFFCURVE",
"146 136 CURVE SMOOTH",
"145 133 OFFCURVE",
"144 130 OFFCURVE",
"144 126 CURVE SMOOTH",
"144 117 OFFCURVE",
"146 113 OFFCURVE",
"151 113 CURVE SMOOTH",
"155 113 OFFCURVE",
"160 118 OFFCURVE",
"166 129 CURVE SMOOTH",
"183 161 OFFCURVE",
"215 191 OFFCURVE",
"262 218 CURVE SMOOTH",
"334 260 OFFCURVE",
"374 284 OFFCURVE",
"382 290 CURVE SMOOTH"
);
},
{
closed = 1;
nodes = (
"167 44 OFFCURVE",
"144 58 OFFCURVE",
"125 58 CURVE SMOOTH",
"100 58 OFFCURVE",
"87 49 OFFCURVE",
"87 30 CURVE SMOOTH",
"87 11 OFFCURVE",
"105 -5 OFFCURVE",
"128 -5 CURVE SMOOTH",
"144 -5 OFFCURVE",
"167 9 OFFCURVE",
"167 25 CURVE SMOOTH"
);
}
);
width = 401;
}
);
note = question;
unicode = 003F;
},
{
glyphname = at;
layers = (
{
hints = (
{
horizontal = 1;
place = "{26, 22}";
type = Stem;
},
{
horizontal = 1;
place = "{183, 29}";
type = Stem;
},
{
horizontal = 1;
place = "{487, 37}";
type = Stem;
},
{
horizontal = 1;
place = "{613, 25}";
type = Stem;
},
{
horizontal = 1;
place = "{696, 20}";
type = Stem;
},
{
place = "{14, 54}";
type = Stem;
},
{
place = "{791, 30}";
type = Stem;
}
);
layerId = "2B98CC2F-ACFB-4214-A552-9F7A1112B617";
paths = (
{
closed = 1;
nodes = (
"816 537 OFFCURVE",
"821 560 OFFCURVE",
"821 582 CURVE SMOOTH",
"821 621 OFFCURVE",
"804 653 OFFCURVE",
"771 677 CURVE SMOOTH",
"735 703 OFFCURVE",
"684 716 OFFCURVE",
"618 716 CURVE SMOOTH",
"605 716 OFFCURVE",
"592 716 OFFCURVE",
"578 715 CURVE SMOOTH",
"467 706 OFFCURVE",
"359 664 OFFCURVE",
"252 588 CURVE SMOOTH",
"156 519 OFFCURVE",
"90 447 OFFCURVE",
"55 371 CURVE SMOOTH",
"28 312 OFFCURVE",
"14 258 OFFCURVE",
"14 209 CURVE SMOOTH",
"14 154 OFFCURVE",
"31 111 OFFCURVE",
"65 78 CURVE SMOOTH",
"96 47 OFFCURVE",
"138 30 OFFCURVE",
"191 27 CURVE SMOOTH",
"206 26 OFFCURVE",
"220 26 OFFCURVE",
"233 26 CURVE SMOOTH",
"396 26 OFFCURVE",
"543 84 OFFCURVE",
"674 201 CURVE SMOOTH",
"759 276 OFFCURVE",
"802 356 OFFCURVE",
"802 439 CURVE SMOOTH",
"802 458 OFFCURVE",
"800 475 OFFCURVE",
"795 492 CURVE",
"794 493 OFFCURVE",
"798 500 OFFCURVE",
"805 514 CURVE SMOOTH"
);
},
{
closed = 1;
nodes = (
"782 525 OFFCURVE",
"781 525 OFFCURVE",
"779 528 CURVE SMOOTH",
"750 577 OFFCURVE",
"702 609 OFFCURVE",
"634 625 CURVE SMOOTH",
"597 634 OFFCURVE",
"565 638 OFFCURVE",
"539 638 CURVE SMOOTH",
"510 638 OFFCURVE",
"480 633 OFFCURVE",
"448 622 CURVE SMOOTH",
"446 621 OFFCURVE",
"446 620 OFFCURVE",
"447 618 CURVE",
"455 616 LINE SMOOTH",
"465 615 OFFCURVE",
"488 614 OFFCURVE",
"523 613 CURVE SMOOTH",
"551 613 OFFCURVE",
"574 610 OFFCURVE",
"591 605 CURVE SMOOTH",
"628 595 OFFCURVE",
"660 578 OFFCURVE",
"687 554 CURVE SMOOTH",
"717 527 OFFCURVE",
"735 496 OFFCURVE",
"740 459 CURVE SMOOTH",
"740 457 LINE",
"694 401 OFFCURVE",
"642 346 OFFCURVE",
"583 292 CURVE SMOOTH",
"525 239 OFFCURVE",
"484 212 OFFCURVE",
"460 212 CURVE SMOOTH",
"447 212 OFFCURVE",
"439 220 OFFCURVE",
"436 236 CURVE SMOOTH",
"433 254 OFFCURVE",
"446 286 OFFCURVE",
"475 333 CURVE SMOOTH",
"497 364 OFFCURVE",
"519 395 OFFCURVE",
"540 426 CURVE SMOOTH",
"553 445 OFFCURVE",
"559 457 OFFCURVE",
"559 461 CURVE SMOOTH",
"558 470 OFFCURVE",
"543 486 OFFCURVE",
"528 486 CURVE SMOOTH",
"524 486 OFFCURVE",
"518 483 OFFCURVE",
"514 483 CURVE SMOOTH",
"513 483 OFFCURVE",
"512 484 OFFCURVE",
"511 485 CURVE SMOOTH",
"510 487 LINE",
"510 489 LINE SMOOTH",
"510 488 OFFCURVE",
"509 490 OFFCURVE",
"508 495 CURVE SMOOTH",
"503 514 OFFCURVE",
"487 524 OFFCURVE",
"462 524 CURVE SMOOTH",
"406 524 OFFCURVE",
"342 489 OFFCURVE",
"271 420 CURVE SMOOTH",
"200 351 OFFCURVE",
"167 290 OFFCURVE",
"174 238 CURVE SMOOTH",
"176 223 OFFCURVE",
"185 210 OFFCURVE",
"202 199 CURVE SMOOTH",
"217 188 OFFCURVE",
"232 183 OFFCURVE",
"249 183 CURVE SMOOTH",
"272 183 OFFCURVE",
"319 218 OFFCURVE",
"392 288 CURVE",
"394 288 OFFCURVE",
"395 287 OFFCURVE",
"396 286 CURVE",
"395 277 OFFCURVE",
"394 268 OFFCURVE",
"394 260 CURVE SMOOTH",
"394 227 OFFCURVE",
"409 205 OFFCURVE",
"438 194 CURVE SMOOTH",
"446 191 OFFCURVE",
"455 190 OFFCURVE",
"464 190 CURVE SMOOTH",
"504 190 OFFCURVE",
"554 220 OFFCURVE",
"615 279 CURVE",
"737 414 LINE",
"739 414 OFFCURVE",
"740 413 OFFCURVE",
"741 412 CURVE",
"731 346 OFFCURVE",
"685 277 OFFCURVE",
"604 204 CURVE SMOOTH",
"477 91 OFFCURVE",
"343 39 OFFCURVE",
"201 48 CURVE SMOOTH",
"112 53 OFFCURVE",
"68 99 OFFCURVE",
"68 186 CURVE SMOOTH",
"68 267 OFFCURVE",
"97 349 OFFCURVE",
"156 431 CURVE SMOOTH",
"211 507 OFFCURVE",
"282 570 OFFCURVE",
"368 620 CURVE SMOOTH",
"455 671 OFFCURVE",
"538 696 OFFCURVE",
"618 696 CURVE SMOOTH",
"691 696 OFFCURVE",
"741 676 OFFCURVE",
"769 636 CURVE SMOOTH",
"784 615 OFFCURVE",
"791 594 OFFCURVE",
"791 571 CURVE SMOOTH",
"791 558 OFFCURVE",
"788 543 OFFCURVE",
"783 528 CURVE SMOOTH"
);
},
{
closed = 1;
nodes = (
"504 474 OFFCURVE",
"504 474 OFFCURVE",
"503 473 CURVE SMOOTH",
"490 455 LINE SMOOTH",
"435 378 OFFCURVE",
"398 328 OFFCURVE",
"379 307 CURVE SMOOTH",
"320 239 OFFCURVE",
"274 205 OFFCURVE",
"240 205 CURVE SMOOTH",
"226 205 OFFCURVE",
"218 213 OFFCURVE",
"216 228 CURVE SMOOTH",
"209 270 OFFCURVE",
"241 324 OFFCURVE",
"313 391 CURVE SMOOTH",
"382 455 OFFCURVE",
"438 487 OFFCURVE",
"479 487 CURVE SMOOTH",
"490 487 OFFCURVE",
"498 483 OFFCURVE",
"503 475 CURVE SMOOTH"
);
}
);
width = 842;
}
);
note = at;
unicode = 0040;
},
{
glyphname = A;
layers = (
{
hints = (
{
horizontal = 1;
place = "{-34, -20}";
target = down;
type = TopGhost;
},
{
horizontal = 1;
place = "{261, 28}";
type = Stem;
},
{
horizontal = 1;
place = "{512, 21}";
target = up;
type = BottomGhost;
},
{
horizontal = 1;
place = "{669, -20}";
target = down;
type = TopGhost;
},
{
place = "{-1, 59}";
type = Stem;
},
{
place = "{539, 34}";
type = Stem;
},
{
place = "{795, 45}";
type = Stem;
}
);
layerId = "2B98CC2F-ACFB-4214-A552-9F7A1112B617";
paths = (
{
closed = 1;
nodes = (
"1135 622 OFFCURVE",
"1138 638 OFFCURVE",
"1138 649 CURVE SMOOTH",
"1138 662 OFFCURVE",
"1134 669 OFFCURVE",
"1127 669 CURVE SMOOTH",
"1111 669 OFFCURVE",
"1064 629 OFFCURVE",
"987 548 CURVE SMOOTH",
"868 423 OFFCURVE",
"782 337 OFFCURVE",
"730 289 CURVE",
"697 289 OFFCURVE",
"660 292 OFFCURVE",
"619 297 CURVE",
"597 297 OFFCURVE",
"584 285 OFFCURVE",
"581 260 CURVE",
"579 254 OFFCURVE",
"585 251 OFFCURVE",
"598 250 CURVE SMOOTH",
"608 250 OFFCURVE",
"620 252 OFFCURVE",
"634 255 CURVE SMOOTH",
"666 260 OFFCURVE",
"690 262 OFFCURVE",
"706 263 CURVE",
"590 156 OFFCURVE",
"504 81 OFFCURVE",
"449 40 CURVE SMOOTH",
"331 -49 OFFCURVE",
"237 -94 OFFCURVE",
"167 -94 CURVE SMOOTH",
"94 -94 OFFCURVE",
"58 -58 OFFCURVE",
"58 13 CURVE SMOOTH",
"58 60 OFFCURVE",
"75 122 OFFCURVE",
"109 199 CURVE SMOOTH",
"150 291 OFFCURVE",
"208 368 OFFCURVE",
"284 429 CURVE SMOOTH",
"353 484 OFFCURVE",
"413 512 OFFCURVE",
"466 512 CURVE SMOOTH",
"521 512 OFFCURVE",
"539 468 OFFCURVE",
"539 428 CURVE SMOOTH",
"539 399 OFFCURVE",
"528 366 OFFCURVE",
"505 330 CURVE SMOOTH",
"472 276 LINE",
"472 275 OFFCURVE",
"473 274 OFFCURVE",
"475 274 CURVE SMOOTH",
"477 274 OFFCURVE",
"479 274 OFFCURVE",
"482 275 CURVE",
"503 286 OFFCURVE",
"523 311 OFFCURVE",
"543 351 CURVE SMOOTH",
"563 391 OFFCURVE",
"573 427 OFFCURVE",
"573 460 CURVE SMOOTH",
"573 509 OFFCURVE",
"540 533 OFFCURVE",
"474 533 CURVE SMOOTH",
"407 533 OFFCURVE",
"333 503 OFFCURVE",
"251 444 CURVE SMOOTH",
"167 383 OFFCURVE",
"101 310 OFFCURVE",
"53 224 CURVE SMOOTH",
"17 160 OFFCURVE",
"-1 99 OFFCURVE",
"-1 42 CURVE SMOOTH",
"-1 -55 OFFCURVE",
"50 -107 OFFCURVE",
"153 -116 CURVE SMOOTH",
"230 -123 OFFCURVE",
"340 -74 OFFCURVE",
"483 30 CURVE SMOOTH",
"573 96 OFFCURVE",
"663 173 OFFCURVE",
"752 260 CURVE",
"757 260 OFFCURVE",
"775 260 OFFCURVE",
"806 261 CURVE SMOOTH",
"837 262 OFFCURVE",
"859 263 OFFCURVE",
"872 263 CURVE",
"821 160 OFFCURVE",
"795 74 OFFCURVE",
"795 6 CURVE SMOOTH",
"795 -27 OFFCURVE",
"803 -46 OFFCURVE",
"819 -52 CURVE",
"824 -53 OFFCURVE",
"830 -54 OFFCURVE",
"836 -54 CURVE SMOOTH",
"872 -54 OFFCURVE",
"913 -36 OFFCURVE",
"920 -12 CURVE",
"920 -9 OFFCURVE",
"919 -7 OFFCURVE",
"917 -7 CURVE SMOOTH",
"915 -7 OFFCURVE",
"908 -11 OFFCURVE",
"897 -20 CURVE SMOOTH",
"886 -29 OFFCURVE",
"877 -34 OFFCURVE",
"869 -34 CURVE SMOOTH",
"850 -34 OFFCURVE",
"840 -19 OFFCURVE",
"840 12 CURVE SMOOTH",
"840 56 OFFCURVE",
"871 139 OFFCURVE",
"933 260 CURVE",
"1018 266 OFFCURVE",
"1066 273 OFFCURVE",
"1077 280 CURVE SMOOTH",
"1078 281 OFFCURVE",
"1079 282 OFFCURVE",
"1079 283 CURVE SMOOTH",
"1079 286 OFFCURVE",
"1067 288 OFFCURVE",
"1043 288 CURVE SMOOTH",
"983 287 OFFCURVE",
"951 286 OFFCURVE",
"946 286 CURVE",
"965 320 OFFCURVE",
"988 365 OFFCURVE",
"1016 422 CURVE SMOOTH",
"1036 463 OFFCURVE",
"1051 491 OFFCURVE",
"1060 504 CURVE SMOOTH",
"1077 527 OFFCURVE",
"1093 544 OFFCURVE",
"1109 555 CURVE SMOOTH",
"1116 560 OFFCURVE",
"1123 575 OFFCURVE",
"1130 601 CURVE SMOOTH"
);
},
{
closed = 1;
nodes = (
"1026 530 LINE",
"945 401 OFFCURVE",
"897 320 OFFCURVE",
"881 289 CURVE",
"867 289 OFFCURVE",
"850 289 OFFCURVE",
"829 290 CURVE SMOOTH",
"770 290 LINE"
);
}
);
width = 1020;
}
);
note = A;
unicode = 0041;
},
{
glyphname = B;
layers = (
{
hints = (
{
horizontal = 1;
place = "{-47, 21}";
type = Stem;
},
{
horizontal = 1;
place = "{-25, 23}";
type = Stem;
},
{
horizontal = 1;
place = "{647, 23}";
type = Stem;
},
{
place = "{18, 34}";
type = Stem;
},
{
place = "{119, 32}";
type = Stem;
},
{
place = "{704, 66}";
type = Stem;
},
{
place = "{841, 53}";
type = Stem;
}
);
layerId = "2B98CC2F-ACFB-4214-A552-9F7A1112B617";
paths = (
{
closed = 1;
nodes = (
"890 471 OFFCURVE",
"894 493 OFFCURVE",
"894 513 CURVE SMOOTH",
"894 566 OFFCURVE",
"866 607 OFFCURVE",
"809 634 CURVE SMOOTH",
"760 658 OFFCURVE",
"694 670 OFFCURVE",
"613 670 CURVE SMOOTH",
"499 670 OFFCURVE",
"397 651 OFFCURVE",
"306 612 CURVE SMOOTH",
"261 593 OFFCURVE",
"222 568 OFFCURVE",
"189 539 CURVE SMOOTH",
"142 498 OFFCURVE",
"119 454 OFFCURVE",
"119 409 CURVE SMOOTH",
"119 363 OFFCURVE",
"140 335 OFFCURVE",
"181 326 CURVE",
"188 326 OFFCURVE",
"190 327 OFFCURVE",
"187 329 CURVE SMOOTH",
"178 336 OFFCURVE",
"171 342 OFFCURVE",
"166 349 CURVE SMOOTH",
"156 362 OFFCURVE",
"151 377 OFFCURVE",
"151 396 CURVE SMOOTH",
"150 425 OFFCURVE",
"170 459 OFFCURVE",
"210 500 CURVE SMOOTH",
"247 538 OFFCURVE",
"287 567 OFFCURVE",
"330 587 CURVE SMOOTH",
"414 627 OFFCURVE",
"509 647 OFFCURVE",
"615 647 CURVE SMOOTH",
"682 647 OFFCURVE",
"735 637 OFFCURVE",
"774 617 CURVE SMOOTH",
"819 594 OFFCURVE",
"841 559 OFFCURVE",
"841 514 CURVE SMOOTH",
"841 495 OFFCURVE",
"837 474 OFFCURVE",
"829 451 CURVE SMOOTH",
"816 415 OFFCURVE",
"786 388 OFFCURVE",
"741 370 CURVE SMOOTH",
"705 356 OFFCURVE",
"665 349 OFFCURVE",
"621 349 CURVE SMOOTH",
"607 349 OFFCURVE",
"594 350 OFFCURVE",
"583 351 CURVE SMOOTH",
"582 351 OFFCURVE",
"548 366 OFFCURVE",
"531 366 CURVE SMOOTH",
"518 366 OFFCURVE",
"508 361 OFFCURVE",
"500 352 CURVE SMOOTH",
"497 349 OFFCURVE",
"496 346 OFFCURVE",
"496 343 CURVE SMOOTH",
"496 334 OFFCURVE",
"512 328 OFFCURVE",
"543 324 CURVE SMOOTH",
"584 319 OFFCURVE",
"604 316 OFFCURVE",
"604 316 CURVE",
"633 306 OFFCURVE",
"656 291 OFFCURVE",
"674 270 CURVE SMOOTH",
"694 247 OFFCURVE",
"704 222 OFFCURVE",
"704 195 CURVE SMOOTH",
"704 175 OFFCURVE",
"699 155 OFFCURVE",
"688 135 CURVE SMOOTH",
"663 88 OFFCURVE",
"626 50 OFFCURVE",
"578 19 CURVE SMOOTH",
"530 -11 OFFCURVE",
"481 -26 OFFCURVE",
"432 -26 CURVE SMOOTH",
"351 -26 OFFCURVE",
"290 14 OFFCURVE",
"249 95 CURVE",
"312 151 OFFCURVE",
"381 231 OFFCURVE",
"456 335 CURVE SMOOTH",
"468 352 OFFCURVE",
"501 386 OFFCURVE",
"554 438 CURVE SMOOTH",
"611 493 OFFCURVE",
"650 527 OFFCURVE",
"671 539 CURVE",
"690 541 OFFCURVE",
"700 548 OFFCURVE",
"700 560 CURVE SMOOTH",
"700 575 OFFCURVE",
"682 588 OFFCURVE",
"655 588 CURVE SMOOTH",
"644 588 OFFCURVE",
"632 586 OFFCURVE",
"619 581 CURVE SMOOTH",
"586 568 OFFCURVE",
"514 491 OFFCURVE",
"404 348 CURVE SMOOTH",
"315 228 LINE SMOOTH",
"283 184 OFFCURVE",
"257 151 OFFCURVE",
"236 129 CURVE",
"206 225 LINE SMOOTH",
"196 257 OFFCURVE",
"181 273 OFFCURVE",
"162 273 CURVE SMOOTH",
"155 273 OFFCURVE",
"148 271 OFFCURVE",
"139 268 CURVE SMOOTH",
"117 259 OFFCURVE",
"92 230 OFFCURVE",
"64 180 CURVE SMOOTH",
"33 126 OFFCURVE",
"18 79 OFFCURVE",
"18 40 CURVE SMOOTH",
"18 10 OFFCURVE",
"28 -11 OFFCURVE",
"48 -22 CURVE SMOOTH",
"52 -24 OFFCURVE",
"57 -25 OFFCURVE",
"62 -25 CURVE SMOOTH",
"92 -25 OFFCURVE",
"141 4 OFFCURVE",
"209 61 CURVE",
"247 -11 OFFCURVE",
"319 -47 OFFCURVE",
"424 -47 CURVE SMOOTH",
"493 -47 OFFCURVE",
"558 -32 OFFCURVE",
"621 -1 CURVE SMOOTH",
"686 32 OFFCURVE",
"731 72 OFFCURVE",
"754 121 CURVE SMOOTH",
"765 143 OFFCURVE",
"770 166 OFFCURVE",
"770 189 CURVE SMOOTH",
"770 229 OFFCURVE",
"756 263 OFFCURVE",
"728 291 CURVE SMOOTH",
"702 317 OFFCURVE",
"669 331 OFFCURVE",
"630 333 CURVE",
"682 334 OFFCURVE",
"728 342 OFFCURVE",
"772 357 CURVE SMOOTH",
"831 378 OFFCURVE",
"867 408 OFFCURVE",
"881 448 CURVE SMOOTH"
);
},
{
closed = 1;
nodes = (
"198 89 LINE",
"137 28 OFFCURVE",
"96 -2 OFFCURVE",
"75 -2 CURVE SMOOTH",
"70 -2 OFFCURVE",
"67 0 OFFCURVE",
"65 3 CURVE SMOOTH",
"56 18 OFFCURVE",
"52 34 OFFCURVE",
"52 52 CURVE SMOOTH",
"52 96 OFFCURVE",
"77 153 OFFCURVE",
"126 224 CURVE",
"128 225 OFFCURVE",
"130 226 OFFCURVE",
"131 226 CURVE SMOOTH",
"147 226 OFFCURVE",
"168 182 OFFCURVE",
"195 93 CURVE"
);
}
);
width = 819;
}
);
note = B;
unicode = 0042;
},
{
glyphname = C;
layers = (
{
hints = (
{
horizontal = 1;
place = "{-65, 35}";
type = Stem;
},
{
horizontal = 1;
place = "{278, 23}";
type = Stem;
},
{
horizontal = 1;
place = "{650, -20}";
target = down;
type = TopGhost;
},
{
place = "{399, 21}";
type = Stem;
},
{
place = "{755, 42}";
type = Stem;
}
);
layerId = "2B98CC2F-ACFB-4214-A552-9F7A1112B617";
paths = (
{
closed = 1;
nodes = (
"785 422 OFFCURVE",
"797 458 OFFCURVE",
"797 500 CURVE SMOOTH",
"797 568 OFFCURVE",
"761 614 OFFCURVE",
"688 637 CURVE SMOOTH",
"660 646 OFFCURVE",
"629 650 OFFCURVE",
"594 650 CURVE SMOOTH",
"525 650 OFFCURVE",
"454 634 OFFCURVE",
"381 603 CURVE SMOOTH",
"303 570 OFFCURVE",
"236 524 OFFCURVE",
"181 466 CURVE SMOOTH",
"104 385 OFFCURVE",
"57 302 OFFCURVE",
"39 217 CURVE SMOOTH",
"21 136 OFFCURVE",
"32 70 OFFCURVE",
"72 17 CURVE SMOOTH",
"113 -38 OFFCURVE",
"177 -65 OFFCURVE",
"263 -65 CURVE SMOOTH",
"277 -65 OFFCURVE",
"291 -64 OFFCURVE",
"306 -63 CURVE SMOOTH",
"373 -56 OFFCURVE",
"443 -33 OFFCURVE",
"514 4 CURVE SMOOTH",
"575 36 OFFCURVE",
"623 71 OFFCURVE",
"658 108 CURVE SMOOTH",
"665 115 OFFCURVE",
"669 123 OFFCURVE",
"669 131 CURVE SMOOTH",
"669 137 OFFCURVE",
"667 140 OFFCURVE",
"663 140 CURVE SMOOTH",
"657 140 OFFCURVE",
"649 134 OFFCURVE",
"638 122 CURVE SMOOTH",
"601 81 OFFCURVE",
"557 47 OFFCURVE",
"505 20 CURVE SMOOTH",
"448 -9 OFFCURVE",
"388 -26 OFFCURVE",
"326 -30 CURVE SMOOTH",
"252 -35 OFFCURVE",
"193 -20 OFFCURVE",
"149 15 CURVE SMOOTH",
"105 50 OFFCURVE",
"83 98 OFFCURVE",
"83 159 CURVE SMOOTH",
"83 236 OFFCURVE",
"118 318 OFFCURVE",
"187 405 CURVE SMOOTH",
"249 484 OFFCURVE",
"321 543 OFFCURVE",
"402 582 CURVE SMOOTH",
"469 615 OFFCURVE",
"535 631 OFFCURVE",
"599 631 CURVE SMOOTH",
"644 631 OFFCURVE",
"680 622 OFFCURVE",
"707 603 CURVE SMOOTH",
"739 582 OFFCURVE",
"755 549 OFFCURVE",
"755 506 CURVE SMOOTH",
"755 465 OFFCURVE",
"740 428 OFFCURVE",
"710 395 CURVE SMOOTH",
"652 332 OFFCURVE",
"590 301 OFFCURVE",
"525 301 CURVE SMOOTH",
"465 301 OFFCURVE",
"420 335 OFFCURVE",
"420 379 CURVE SMOOTH",
"420 410 OFFCURVE",
"439 440 OFFCURVE",
"476 470 CURVE",
"487 474 OFFCURVE",
"492 479 OFFCURVE",
"492 486 CURVE SMOOTH",
"492 489 OFFCURVE",
"490 490 OFFCURVE",
"487 490 CURVE SMOOTH",
"482 490 OFFCURVE",
"476 487 OFFCURVE",
"468 481 CURVE SMOOTH",
"422 446 OFFCURVE",
"399 411 OFFCURVE",
"399 375 CURVE SMOOTH",
"399 319 OFFCURVE",
"461 278 OFFCURVE",
"541 278 CURVE SMOOTH",
"626 278 OFFCURVE",
"699 316 OFFCURVE",
"760 391 CURVE SMOOTH"
);
}
);
width = 726;
}
);
note = C;
unicode = 0043;
},
{
glyphname = D;
layers = (
{
hints = (
{
horizontal = 1;
place = "{-58, 20}";
type = Stem;
},
{
horizontal = 1;
place = "{607, 27}";
type = Stem;
},
{
place = "{15, 36}";
type = Stem;
},
{
place = "{868, 58}";
type = Stem;
}
);
layerId = "2B98CC2F-ACFB-4214-A552-9F7A1112B617";
paths = (
{
closed = 1;
nodes = (
"911 247 OFFCURVE",
"926 298 OFFCURVE",
"926 349 CURVE SMOOTH",
"926 417 OFFCURVE",
"900 477 OFFCURVE",
"849 530 CURVE SMOOTH",
"804 576 OFFCURVE",
"751 605 OFFCURVE",
"691 618 CURVE SMOOTH",
"641 629 OFFCURVE",
"591 634 OFFCURVE",
"540 634 CURVE SMOOTH",
"427 634 OFFCURVE",
"329 610 OFFCURVE",
"247 563 CURVE SMOOTH",
"165 516 OFFCURVE",
"123 459 OFFCURVE",
"120 392 CURVE SMOOTH",
"119 371 OFFCURVE",
"127 352 OFFCURVE",
"142 335 CURVE SMOOTH",
"156 320 OFFCURVE",
"171 312 OFFCURVE",
"188 309 CURVE",
"194 309 LINE",
"192 310 OFFCURVE",
"186 315 OFFCURVE",
"177 325 CURVE SMOOTH",
"165 339 OFFCURVE",
"160 356 OFFCURVE",
"162 377 CURVE SMOOTH",
"167 436 OFFCURVE",
"213 489 OFFCURVE",
"299 536 CURVE SMOOTH",
"385 583 OFFCURVE",
"480 607 OFFCURVE",
"583 607 CURVE SMOOTH",
"623 607 OFFCURVE",
"661 603 OFFCURVE",
"698 595 CURVE SMOOTH",
"737 586 OFFCURVE",
"774 563 OFFCURVE",
"807 526 CURVE SMOOTH",
"848 481 OFFCURVE",
"868 429 OFFCURVE",
"868 369 CURVE SMOOTH",
"868 317 OFFCURVE",
"852 262 OFFCURVE",
"821 205 CURVE SMOOTH",
"744 62 OFFCURVE",
"612 -19 OFFCURVE",
"427 -36 CURVE SMOOTH",
"414 -37 OFFCURVE",
"401 -38 OFFCURVE",
"388 -38 CURVE SMOOTH",
"307 -38 OFFCURVE",
"249 -10 OFFCURVE",
"212 45 CURVE",
"218 50 LINE SMOOTH",
"289 109 OFFCURVE",
"361 189 OFFCURVE",
"432 288 CURVE SMOOTH",
"460 327 OFFCURVE",
"499 372 OFFCURVE",
"549 421 CURVE SMOOTH",
"597 469 OFFCURVE",
"633 500 OFFCURVE",
"657 513 CURVE",
"676 515 OFFCURVE",
"686 522 OFFCURVE",
"686 533 CURVE SMOOTH",
"686 548 OFFCURVE",
"668 561 OFFCURVE",
"641 561 CURVE SMOOTH",
"630 561 OFFCURVE",
"618 559 OFFCURVE",
"605 554 CURVE SMOOTH",
"571 541 OFFCURVE",
"499 464 OFFCURVE",
"390 321 CURVE SMOOTH",
"303 207 OFFCURVE",
"237 127 OFFCURVE",
"193 81 CURVE",
"183 105 OFFCURVE",
"173 146 OFFCURVE",
"162 205 CURVE SMOOTH",
"155 245 OFFCURVE",
"145 265 OFFCURVE",
"133 265 CURVE SMOOTH",
"108 265 OFFCURVE",
"81 231 OFFCURVE",
"52 163 CURVE SMOOTH",
"27 102 OFFCURVE",
"15 56 OFFCURVE",
"15 25 CURVE SMOOTH",
"15 9 OFFCURVE",
"18 -6 OFFCURVE",
"24 -19 CURVE SMOOTH",
"32 -35 OFFCURVE",
"43 -43 OFFCURVE",
"58 -43 CURVE SMOOTH",
"86 -43 OFFCURVE",
"129 -20 OFFCURVE",
"187 25 CURVE",
"236 -36 OFFCURVE",
"316 -63 OFFCURVE",
"427 -58 CURVE SMOOTH",
"510 -54 OFFCURVE",
"586 -37 OFFCURVE",
"655 -8 CURVE SMOOTH",
"756 35 OFFCURVE",
"832 103 OFFCURVE",
"882 194 CURVE SMOOTH"
);
},
{
closed = 1;
nodes = (
"126 14 OFFCURVE",
"92 -12 OFFCURVE",
"63 -25 CURVE",
"55 -10 OFFCURVE",
"51 8 OFFCURVE",
"51 29 CURVE SMOOTH",
"51 78 OFFCURVE",
"74 136 OFFCURVE",
"120 202 CURVE",
"122 173 OFFCURVE",
"125 150 OFFCURVE",
"129 135 CURVE SMOOTH",
"135 112 OFFCURVE",
"148 85 OFFCURVE",
"167 54 CURVE"
);
},
{
closed = 1;
nodes = (
"196 309 OFFCURVE",
"195 308 OFFCURVE",
"194 309 CURVE",
"195 309 OFFCURVE",
"195 309 OFFCURVE",
"196 310 CURVE"
);
}
);
width = 921;
}
);
note = D;
unicode = 0044;
},
{
glyphname = E;
layers = (
{
hints = (
{
horizontal = 1;
place = "{-79, 29}";
type = Stem;
},
{
horizontal = 1;
place = "{315, 22}";
type = Stem;
},
{
horizontal = 1;
place = "{382, 25}";
type = Stem;
},
{
horizontal = 1;
place = "{497, 21}";
target = up;
type = BottomGhost;
},
{
horizontal = 1;
place = "{663, -20}";
target = down;
type = TopGhost;
},
{
place = "{3, 64}";
type = Stem;
},
{
place = "{310, 47}";
type = Stem;
},
{
place = "{634, 37}";
type = Stem;
},
{
place = "{743, 33}";
type = Stem;
},
{
place = "{327, 30}";
type = Stem;
}
);
layerId = "2B98CC2F-ACFB-4214-A552-9F7A1112B617";
paths = (
{
closed = 1;
nodes = (
"779 639 OFFCURVE",
"726 670 OFFCURVE",
"621 663 CURVE SMOOTH",
"564 659 OFFCURVE",
"508 645 OFFCURVE",
"455 622 CURVE SMOOTH",
"399 597 OFFCURVE",
"358 566 OFFCURVE",
"331 529 CURVE SMOOTH",
"317 510 OFFCURVE",
"310 487 OFFCURVE",
"310 462 CURVE SMOOTH",
"310 429 OFFCURVE",
"321 401 OFFCURVE",
"343 376 CURVE",
"196 329 OFFCURVE",
"91 257 OFFCURVE",
"29 159 CURVE SMOOTH",
"12 132 OFFCURVE",
"3 105 OFFCURVE",
"3 77 CURVE SMOOTH",
"3 30 OFFCURVE",
"26 -8 OFFCURVE",
"71 -37 CURVE SMOOTH",
"123 -70 OFFCURVE",
"197 -84 OFFCURVE",
"293 -79 CURVE SMOOTH",
"401 -74 OFFCURVE",
"493 -41 OFFCURVE",
"568 20 CURVE SMOOTH",
"637 75 OFFCURVE",
"671 134 OFFCURVE",
"671 195 CURVE SMOOTH",
"671 210 OFFCURVE",
"668 224 OFFCURVE",
"663 237 CURVE SMOOTH",
"650 267 OFFCURVE",
"620 282 OFFCURVE",
"572 282 CURVE SMOOTH",
"508 282 OFFCURVE",
"447 257 OFFCURVE",
"390 208 CURVE SMOOTH",
"348 172 OFFCURVE",
"327 132 OFFCURVE",
"327 88 CURVE SMOOTH",
"327 50 OFFCURVE",
"343 30 OFFCURVE",
"375 29 CURVE SMOOTH",
"388 28 OFFCURVE",
"395 31 OFFCURVE",
"395 37 CURVE SMOOTH",
"395 40 OFFCURVE",
"392 44 OFFCURVE",
"385 47 CURVE",
"366 52 OFFCURVE",
"357 65 OFFCURVE",
"357 86 CURVE SMOOTH",
"357 118 OFFCURVE",
"381 162 OFFCURVE",
"412 187 CURVE SMOOTH",
"474 238 OFFCURVE",
"528 263 OFFCURVE",
"575 263 CURVE SMOOTH",
"614 263 OFFCURVE",
"634 243 OFFCURVE",
"634 202 CURVE SMOOTH",
"634 151 OFFCURVE",
"608 102 OFFCURVE",
"555 55 CURVE SMOOTH",
"492 -2 OFFCURVE",
"407 -36 OFFCURVE",
"302 -47 CURVE SMOOTH",
"284 -49 OFFCURVE",
"267 -50 OFFCURVE",
"250 -50 CURVE SMOOTH",
"190 -50 OFFCURVE",
"144 -38 OFFCURVE",
"111 -13 CURVE SMOOTH",
"82 9 OFFCURVE",
"67 39 OFFCURVE",
"67 76 CURVE SMOOTH",
"67 99 OFFCURVE",
"73 124 OFFCURVE",
"86 150 CURVE SMOOTH",
"133 243 OFFCURVE",
"235 324 OFFCURVE",
"360 360 CURVE",
"375 349 OFFCURVE",
"396 339 OFFCURVE",
"423 330 CURVE SMOOTH",
"453 320 OFFCURVE",
"482 315 OFFCURVE",
"509 315 CURVE SMOOTH",
"551 315 OFFCURVE",
"580 327 OFFCURVE",
"596 352 CURVE SMOOTH",
"600 359 OFFCURVE",
"602 365 OFFCURVE",
"602 370 CURVE SMOOTH",
"602 393 OFFCURVE",
"573 406 OFFCURVE",
"514 407 CURVE SMOOTH",
"475 408 OFFCURVE",
"431 402 OFFCURVE",
"382 387 CURVE",
"369 403 OFFCURVE",
"362 421 OFFCURVE",
"362 441 CURVE SMOOTH",
"362 494 OFFCURVE",
"394 541 OFFCURVE",
"458 583 CURVE SMOOTH",
"513 620 OFFCURVE",
"569 640 OFFCURVE",
"626 643 CURVE SMOOTH",
"657 645 OFFCURVE",
"683 642 OFFCURVE",
"704 634 CURVE SMOOTH",
"730 623 OFFCURVE",
"743 607 OFFCURVE",
"743 584 CURVE SMOOTH",
"743 555 OFFCURVE",
"718 518 OFFCURVE",
"690 518 CURVE SMOOTH",
"686 518 OFFCURVE",
"675 521 OFFCURVE",
"670 521 CURVE SMOOTH",
"661 521 OFFCURVE",
"657 518 OFFCURVE",
"657 512 CURVE SMOOTH",
"657 502 OFFCURVE",
"667 497 OFFCURVE",
"688 497 CURVE SMOOTH",
"709 497 OFFCURVE",
"729 506 OFFCURVE",
"747 523 CURVE SMOOTH",
"766 540 OFFCURVE",
"775 560 OFFCURVE",
"776 583 CURVE SMOOTH"
);
},
{
closed = 1;
nodes = (
"554 347 OFFCURVE",
"536 337 OFFCURVE",
"500 337 CURVE SMOOTH",
"479 337 OFFCURVE",
"459 341 OFFCURVE",
"440 348 CURVE SMOOTH",
"426 353 OFFCURVE",
"412 361 OFFCURVE",
"399 371 CURVE",
"434 378 OFFCURVE",
"468 382 OFFCURVE",
"500 382 CURVE SMOOTH",
"536 382 OFFCURVE",
"554 377 OFFCURVE",
"554 368 CURVE SMOOTH"
);
}
);
width = 691;
}
);
note = E;
unicode = 0045;
},
{
glyphname = F;
layers = (
{
hints = (
{
horizontal = 1;
place = "{-89, 21}";
target = up;
type = BottomGhost;
},
{
horizontal = 1;
place = "{147, 24}";
type = Stem;
},
{
horizontal = 1;
place = "{217, 33}";
type = Stem;
},
{
horizontal = 1;
place = "{665, -20}";
target = down;
type = TopGhost;
},
{
place = "{-12, 43}";
type = Stem;
},
{
place = "{668, 60}";
type = Stem;
}
);
layerId = "2B98CC2F-ACFB-4214-A552-9F7A1112B617";
paths = (
{
closed = 1;
nodes = (
"715 507 OFFCURVE",
"728 540 OFFCURVE",
"728 569 CURVE SMOOTH",
"728 632 OFFCURVE",
"666 665 OFFCURVE",
"569 665 CURVE SMOOTH",
"503 665 OFFCURVE",
"432 651 OFFCURVE",
"356 623 CURVE SMOOTH",
"273 592 OFFCURVE",
"199 548 OFFCURVE",
"132 493 CURVE SMOOTH",
"36 413 OFFCURVE",
"-12 334 OFFCURVE",
"-12 255 CURVE SMOOTH",
"-12 190 OFFCURVE",
"30 147 OFFCURVE",
"105 147 CURVE SMOOTH",
"121 147 OFFCURVE",
"138 149 OFFCURVE",
"156 153 CURVE SMOOTH",
"201 163 OFFCURVE",
"244 188 OFFCURVE",
"283 228 CURVE SMOOTH",
"319 265 OFFCURVE",
"337 298 OFFCURVE",
"337 327 CURVE SMOOTH",
"337 344 OFFCURVE",
"328 355 OFFCURVE",
"311 358 CURVE",
"315 326 OFFCURVE",
"298 288 OFFCURVE",
"261 244 CURVE SMOOTH",
"222 198 OFFCURVE",
"182 174 OFFCURVE",
"142 171 CURVE SMOOTH",
"68 166 OFFCURVE",
"31 192 OFFCURVE",
"31 249 CURVE SMOOTH",
"31 314 OFFCURVE",
"85 405 OFFCURVE",
"172 478 CURVE SMOOTH",
"232 529 OFFCURVE",
"300 571 OFFCURVE",
"375 602 CURVE SMOOTH",
"446 631 OFFCURVE",
"509 646 OFFCURVE",
"564 646 CURVE SMOOTH",
"633 646 OFFCURVE",
"668 623 OFFCURVE",
"668 576 CURVE SMOOTH",
"668 546 OFFCURVE",
"652 508 OFFCURVE",
"620 462 CURVE SMOOTH",
"539 347 OFFCURVE",
"489 277 OFFCURVE",
"469 250 CURVE",
"418 250 LINE SMOOTH",
"388 249 OFFCURVE",
"372 249 OFFCURVE",
"369 249 CURVE SMOOTH",
"358 249 OFFCURVE",
"337 231 OFFCURVE",
"337 222 CURVE SMOOTH",
"337 219 OFFCURVE",
"338 218 OFFCURVE",
"341 217 CURVE",
"364 217 OFFCURVE",
"401 221 OFFCURVE",
"451 230 CURVE",
"397 166 OFFCURVE",
"349 104 OFFCURVE",
"306 45 CURVE SMOOTH",
"260 -20 OFFCURVE",
"236 -61 OFFCURVE",
"235 -77 CURVE SMOOTH",
"234 -85 OFFCURVE",
"241 -89 OFFCURVE",
"254 -89 CURVE SMOOTH",
"273 -89 OFFCURVE",
"288 -84 OFFCURVE",
"301 -73 CURVE",
"329 -58 LINE SMOOTH",
"344 -51 OFFCURVE",
"351 -46 OFFCURVE",
"351 -43 CURVE SMOOTH",
"351 -41 OFFCURVE",
"347 -40 OFFCURVE",
"340 -40 CURVE",
"328 -48 OFFCURVE",
"322 -49 OFFCURVE",
"322 -44 CURVE SMOOTH",
"322 -31 OFFCURVE",
"348 11 OFFCURVE",
"401 84 CURVE SMOOTH",
"441 140 OFFCURVE",
"476 187 OFFCURVE",
"506 224 CURVE",
"510 227 OFFCURVE",
"520 228 OFFCURVE",
"537 229 CURVE SMOOTH",
"549 229 OFFCURVE",
"565 229 OFFCURVE",
"585 228 CURVE SMOOTH",
"608 227 OFFCURVE",
"621 227 OFFCURVE",
"622 227 CURVE SMOOTH",
"648 227 OFFCURVE",
"661 232 OFFCURVE",
"661 241 CURVE SMOOTH",
"661 246 OFFCURVE",
"653 249 OFFCURVE",
"637 248 CURVE",
"634 247 OFFCURVE",
"617 248 OFFCURVE",
"586 249 CURVE SMOOTH",
"551 250 OFFCURVE",
"532 251 OFFCURVE",
"528 251 CURVE",
"618 370 OFFCURVE",
"672 443 OFFCURVE",
"689 470 CURVE SMOOTH"
);
}
);
width = 632;
}
);
note = F;
unicode = 0046;
},
{
glyphname = G;
layers = (
{
hints = (
{
horizontal = 1;
place = "{-154, 21}";
target = up;
type = BottomGhost;
},
{
horizontal = 1;
place = "{-39, 26}";
type = Stem;
},
{
horizontal = 1;
place = "{244, 74}";
type = Stem;
},
{
horizontal = 1;
place = "{367, 23}";
type = Stem;
},
{
horizontal = 1;
place = "{599, 41}";
type = Stem;
},
{
place = "{-15, 57}";
type = Stem;
},
{
place = "{792, 28}";
type = Stem;
},
{
horizontal = 1;
place = "{263, 55}";
type = Stem;
},
{
horizontal = 1;
place = "{283, 35}";
type = Stem;
}
);
layerId = "2B98CC2F-ACFB-4214-A552-9F7A1112B617";
paths = (
{
closed = 1;
nodes = (
"902 313 OFFCURVE",
"827 318 OFFCURVE",
"715 318 CURVE SMOOTH",
"583 318 OFFCURVE",
"496 313 OFFCURVE",
"455 304 CURVE SMOOTH",
"396 291 OFFCURVE",
"367 277 OFFCURVE",
"367 260 CURVE SMOOTH",
"367 249 OFFCURVE",
"378 244 OFFCURVE",
"400 244 CURVE SMOOTH",
"408 244 OFFCURVE",
"416 245 OFFCURVE",
"424 247 CURVE SMOOTH",
"437 250 OFFCURVE",
"489 256 OFFCURVE",
"578 263 CURVE SMOOTH",
"663 270 OFFCURVE",
"713 274 OFFCURVE",
"730 274 CURVE",
"701 231 LINE",
"658 177 OFFCURVE",
"593 125 OFFCURVE",
"506 76 CURVE SMOOTH",
"420 27 OFFCURVE",
"343 -2 OFFCURVE",
"275 -10 CURVE SMOOTH",
"260 -12 OFFCURVE",
"246 -13 OFFCURVE",
"232 -13 CURVE SMOOTH",
"119 -13 OFFCURVE",
"42 47 OFFCURVE",
"42 140 CURVE SMOOTH",
"42 219 OFFCURVE",
"90 304 OFFCURVE",
"185 397 CURVE SMOOTH",
"257 467 OFFCURVE",
"338 520 OFFCURVE",
"429 555 CURVE SMOOTH",
"504 584 OFFCURVE",
"575 599 OFFCURVE",
"644 599 CURVE SMOOTH",
"689 599 OFFCURVE",
"722 593 OFFCURVE",
"744 580 CURVE SMOOTH",
"776 561 OFFCURVE",
"792 539 OFFCURVE",
"792 514 CURVE SMOOTH",
"792 484 OFFCURVE",
"772 456 OFFCURVE",
"732 429 CURVE SMOOTH",
"693 403 OFFCURVE",
"654 390 OFFCURVE",
"616 390 CURVE SMOOTH",
"563 390 OFFCURVE",
"540 417 OFFCURVE",
"547 472 CURVE SMOOTH",
"550 501 OFFCURVE",
"546 515 OFFCURVE",
"534 515 CURVE SMOOTH",
"522 515 OFFCURVE",
"516 498 OFFCURVE",
"517 465 CURVE SMOOTH",
"518 400 OFFCURVE",
"549 367 OFFCURVE",
"610 367 CURVE SMOOTH",
"656 367 OFFCURVE",
"702 384 OFFCURVE",
"749 419 CURVE SMOOTH",
"796 454 OFFCURVE",
"820 490 OFFCURVE",
"820 529 CURVE SMOOTH",
"820 556 OFFCURVE",
"806 580 OFFCURVE",
"779 601 CURVE SMOOTH",
"744 627 OFFCURVE",
"697 640 OFFCURVE",
"637 640 CURVE SMOOTH",
"564 640 OFFCURVE",
"483 622 OFFCURVE",
"395 586 CURVE SMOOTH",
"307 551 OFFCURVE",
"232 507 OFFCURVE",
"170 454 CURVE SMOOTH",
"47 349 OFFCURVE",
"-15 245 OFFCURVE",
"-15 143 CURVE SMOOTH",
"-15 34 OFFCURVE",
"69 -39 OFFCURVE",
"213 -39 CURVE SMOOTH",
"229 -39 OFFCURVE",
"246 -38 OFFCURVE",
"263 -36 CURVE SMOOTH",
"328 -29 OFFCURVE",
"397 -9 OFFCURVE",
"469 26 CURVE SMOOTH",
"531 55 OFFCURVE",
"584 88 OFFCURVE",
"627 125 CURVE",
"557 -6 LINE SMOOTH",
"520 -72 OFFCURVE",
"501 -117 OFFCURVE",
"501 -141 CURVE SMOOTH",
"501 -150 OFFCURVE",
"504 -154 OFFCURVE",
"509 -154 CURVE SMOOTH",
"515 -154 OFFCURVE",
"521 -149 OFFCURVE",
"527 -138 CURVE SMOOTH",
"635 49 OFFCURVE",
"723 187 OFFCURVE",
"791 276 CURVE",
"798 276 OFFCURVE",
"811 277 OFFCURVE",
"830 279 CURVE SMOOTH",
"879 283 LINE SMOOTH",
"925 286 OFFCURVE",
"948 292 OFFCURVE",
"948 299 CURVE SMOOTH",
"948 301 OFFCURVE",
"945 303 OFFCURVE",
"939 304 CURVE SMOOTH"
);
}
);
width = 828;
}
);
note = G;
unicode = 0047;
},
{
glyphname = H;
layers = (
{
hints = (
{
horizontal = 1;
place = "{-66, 21}";
target = up;
type = BottomGhost;
},
{
horizontal = 1;
place = "{166, 24}";
type = Stem;
},
{
horizontal = 1;
place = "{689, 21}";
type = Stem;
},
{
place = "{19, 51}";
type = Stem;
},
{
place = "{635, 54}";
type = Stem;
},
{
place = "{698, 50}";
type = Stem;
},
{
horizontal = 1;
place = "{179, 23}";
type = Stem;
}
);
layerId = "2B98CC2F-ACFB-4214-A552-9F7A1112B617";
paths = (
{
closed = 1;
nodes = (
"1262 723 OFFCURVE",
"1263 725 OFFCURVE",
"1263 727 CURVE SMOOTH",
"1263 735 OFFCURVE",
"1259 737 OFFCURVE",
"1250 734 CURVE SMOOTH",
"1186 711 OFFCURVE",
"1110 650 OFFCURVE",
"1021 552 CURVE SMOOTH",
"942 464 OFFCURVE",
"869 365 OFFCURVE",
"803 254 CURVE SMOOTH",
"765 191 LINE",
"751 190 OFFCURVE",
"729 190 OFFCURVE",
"699 190 CURVE SMOOTH",
"681 190 OFFCURVE",
"648 192 OFFCURVE",
"599 197 CURVE SMOOTH",
"540 203 OFFCURVE",
"497 207 OFFCURVE",
"471 208 CURVE",
"652 486 LINE SMOOTH",
"677 526 OFFCURVE",
"689 562 OFFCURVE",
"689 593 CURVE SMOOTH",
"689 632 OFFCURVE",
"671 662 OFFCURVE",
"636 683 CURVE SMOOTH",
"607 700 OFFCURVE",
"574 709 OFFCURVE",
"536 710 CURVE SMOOTH",
"411 713 OFFCURVE",
"298 679 OFFCURVE",
"197 608 CURVE SMOOTH",
"102 541 OFFCURVE",
"45 462 OFFCURVE",
"25 373 CURVE SMOOTH",
"21 355 OFFCURVE",
"19 337 OFFCURVE",
"19 320 CURVE SMOOTH",
"19 279 OFFCURVE",
"30 245 OFFCURVE",
"53 220 CURVE SMOOTH",
"76 193 OFFCURVE",
"109 179 OFFCURVE",
"152 179 CURVE SMOOTH",
"163 179 OFFCURVE",
"174 180 OFFCURVE",
"185 182 CURVE SMOOTH",
"222 187 OFFCURVE",
"257 211 OFFCURVE",
"290 252 CURVE SMOOTH",
"323 294 OFFCURVE",
"340 336 OFFCURVE",
"340 377 CURVE SMOOTH",
"340 401 OFFCURVE",
"333 422 OFFCURVE",
"320 439 CURVE",
"319 441 OFFCURVE",
"317 442 OFFCURVE",
"314 442 CURVE SMOOTH",
"309 442 OFFCURVE",
"306 440 OFFCURVE",
"306 435 CURVE SMOOTH",
"306 433 OFFCURVE",
"307 431 OFFCURVE",
"308 430 CURVE SMOOTH",
"319 416 OFFCURVE",
"324 399 OFFCURVE",
"324 379 CURVE SMOOTH",
"324 342 OFFCURVE",
"309 305 OFFCURVE",
"279 268 CURVE SMOOTH",
"249 231 OFFCURVE",
"216 209 OFFCURVE",
"181 204 CURVE SMOOTH",
"172 203 OFFCURVE",
"164 202 OFFCURVE",
"157 202 CURVE SMOOTH",
"99 202 OFFCURVE",
"70 233 OFFCURVE",
"70 295 CURVE SMOOTH",
"70 346 OFFCURVE",
"90 402 OFFCURVE",
"129 463 CURVE SMOOTH",
"171 528 OFFCURVE",
"225 581 OFFCURVE",
"292 622 CURVE SMOOTH",
"369 669 OFFCURVE",
"452 691 OFFCURVE",
"541 689 CURVE SMOOTH",
"604 688 OFFCURVE",
"635 662 OFFCURVE",
"635 611 CURVE SMOOTH",
"635 578 OFFCURVE",
"621 537 OFFCURVE",
"594 486 CURVE",
"521 364 OFFCURVE",
"464 272 OFFCURVE",
"423 210 CURVE",
"357 212 OFFCURVE",
"311 206 OFFCURVE",
"284 192 CURVE SMOOTH",
"258 179 OFFCURVE",
"232 155 OFFCURVE",
"207 121 CURVE",
"204 118 OFFCURVE",
"203 115 OFFCURVE",
"203 112 CURVE SMOOTH",
"203 108 OFFCURVE",
"205 106 OFFCURVE",
"209 107 CURVE SMOOTH",
"213 108 OFFCURVE",
"217 112 OFFCURVE",
"222 119 CURVE SMOOTH",
"237 142 OFFCURVE",
"260 157 OFFCURVE",
"289 164 CURVE SMOOTH",
"308 169 OFFCURVE",
"344 171 OFFCURVE",
"398 171 CURVE",
"349 90 OFFCURVE",
"312 24 OFFCURVE",
"289 -25 CURVE SMOOTH",
"285 -33 OFFCURVE",
"283 -40 OFFCURVE",
"283 -46 CURVE SMOOTH",
"283 -56 OFFCURVE",
"288 -61 OFFCURVE",
"298 -61 CURVE SMOOTH",
"313 -61 OFFCURVE",
"324 -52 OFFCURVE",
"333 -34 CURVE SMOOTH",
"362 27 OFFCURVE",
"400 95 OFFCURVE",
"447 170 CURVE",
"575 166 LINE SMOOTH",
"625 164 OFFCURVE",
"659 163 OFFCURVE",
"677 163 CURVE SMOOTH",
"702 163 OFFCURVE",
"726 164 OFFCURVE",
"751 166 CURVE",
"716 100 OFFCURVE",
"698 47 OFFCURVE",
"698 8 CURVE SMOOTH",
"698 -23 OFFCURVE",
"709 -45 OFFCURVE",
"730 -59 CURVE SMOOTH",
"737 -64 OFFCURVE",
"745 -66 OFFCURVE",
"756 -66 CURVE SMOOTH",
"773 -66 OFFCURVE",
"794 -60 OFFCURVE",
"819 -47 CURVE SMOOTH",
"840 -36 OFFCURVE",
"856 -25 OFFCURVE",
"867 -14 CURVE SMOOTH",
"870 -11 OFFCURVE",
"871 -8 OFFCURVE",
"872 -3 CURVE SMOOTH",
"872 1 OFFCURVE",
"871 3 OFFCURVE",
"869 3 CURVE SMOOTH",
"868 3 OFFCURVE",
"867 2 OFFCURVE",
"866 1 CURVE SMOOTH",
"845 -22 OFFCURVE",
"804 -43 OFFCURVE",
"777 -43 CURVE SMOOTH",
"758 -43 OFFCURVE",
"748 -32 OFFCURVE",
"748 -9 CURVE SMOOTH",
"748 26 OFFCURVE",
"771 87 OFFCURVE",
"818 174 CURVE",
"855 181 OFFCURVE",
"883 192 OFFCURVE",
"903 207 CURVE SMOOTH",
"906 209 OFFCURVE",
"906 212 OFFCURVE",
"904 217 CURVE SMOOTH",
"902 221 OFFCURVE",
"900 222 OFFCURVE",
"897 220 CURVE SMOOTH",
"884 209 OFFCURVE",
"862 201 OFFCURVE",
"831 197 CURVE",
"870 263 LINE SMOOTH",
"928 360 OFFCURVE",
"998 456 OFFCURVE",
"1081 552 CURVE SMOOTH",
"1159 643 OFFCURVE",
"1219 699 OFFCURVE",
"1260 722 CURVE SMOOTH"
);
}
);
width = 951;
}
);
note = H;
unicode = 0048;
},
{
glyphname = I;
layers = (
{
hints = (
{
horizontal = 1;
place = "{-69, 29}";
type = Stem;
},
{
horizontal = 1;
place = "{98, 36}";
type = Stem;
},
{
horizontal = 1;
place = "{580, 33}";
type = Stem;
},
{
horizontal = 1;
place = "{675, 28}";
type = Stem;
},
{
place = "{21, 42}";
type = Stem;
},
{
place = "{339, 25}";
type = Stem;
},
{
place = "{405, 53}";
type = Stem;
},
{
place = "{714, 32}";
type = Stem;
}
);
layerId = "2B98CC2F-ACFB-4214-A552-9F7A1112B617";
paths = (
{
closed = 1;
nodes = (
"876 638 OFFCURVE",
"853 665 OFFCURVE",
"807 683 CURVE SMOOTH",
"776 696 OFFCURVE",
"742 702 OFFCURVE",
"703 703 CURVE SMOOTH",
"649 704 OFFCURVE",
"593 688 OFFCURVE",
"536 655 CURVE SMOOTH",
"454 607 OFFCURVE",
"405 536 OFFCURVE",
"405 449 CURVE SMOOTH",
"405 384 OFFCURVE",
"442 341 OFFCURVE",
"515 319 CURVE",
"372 75 OFFCURVE",
"256 -45 OFFCURVE",
"165 -40 CURVE SMOOTH",
"134 -39 OFFCURVE",
"109 -24 OFFCURVE",
"90 3 CURVE SMOOTH",
"73 28 OFFCURVE",
"64 58 OFFCURVE",
"63 94 CURVE SMOOTH",
"60 178 OFFCURVE",
"83 255 OFFCURVE",
"132 325 CURVE SMOOTH",
"179 390 OFFCURVE",
"226 423 OFFCURVE",
"274 423 CURVE SMOOTH",
"284 423 OFFCURVE",
"293 421 OFFCURVE",
"301 418 CURVE SMOOTH",
"326 407 OFFCURVE",
"339 384 OFFCURVE",
"339 348 CURVE SMOOTH",
"339 302 OFFCURVE",
"323 256 OFFCURVE",
"290 209 CURVE SMOOTH",
"255 159 OFFCURVE",
"218 134 OFFCURVE",
"179 134 CURVE SMOOTH",
"154 134 OFFCURVE",
"128 157 OFFCURVE",
"128 176 CURVE SMOOTH",
"128 186 OFFCURVE",
"131 198 OFFCURVE",
"137 211 CURVE SMOOTH",
"143 225 OFFCURVE",
"146 234 OFFCURVE",
"146 237 CURVE SMOOTH",
"146 243 OFFCURVE",
"143 246 OFFCURVE",
"137 246 CURVE SMOOTH",
"129 246 OFFCURVE",
"121 236 OFFCURVE",
"114 217 CURVE SMOOTH",
"102 183 OFFCURVE",
"104 141 OFFCURVE",
"125 118 CURVE SMOOTH",
"136 105 OFFCURVE",
"154 98 OFFCURVE",
"178 98 CURVE SMOOTH",
"221 98 OFFCURVE",
"263 126 OFFCURVE",
"304 181 CURVE SMOOTH",
"344 234 OFFCURVE",
"364 287 OFFCURVE",
"364 339 CURVE SMOOTH",
"364 386 OFFCURVE",
"344 417 OFFCURVE",
"305 432 CURVE SMOOTH",
"290 437 OFFCURVE",
"275 440 OFFCURVE",
"258 440 CURVE SMOOTH",
"199 440 OFFCURVE",
"147 413 OFFCURVE",
"102 360 CURVE SMOOTH",
"49 299 OFFCURVE",
"22 220 OFFCURVE",
"21 122 CURVE SMOOTH",
"19 -5 OFFCURVE",
"71 -69 OFFCURVE",
"177 -69 CURVE SMOOTH",
"249 -69 OFFCURVE",
"329 -22 OFFCURVE",
"417 71 CURVE SMOOTH",
"483 142 OFFCURVE",
"539 220 OFFCURVE",
"585 305 CURVE",
"596 303 OFFCURVE",
"608 302 OFFCURVE",
"619 302 CURVE SMOOTH",
"655 302 OFFCURVE",
"686 311 OFFCURVE",
"711 329 CURVE SMOOTH",
"734 346 OFFCURVE",
"746 365 OFFCURVE",
"746 386 CURVE SMOOTH",
"746 403 OFFCURVE",
"738 417 OFFCURVE",
"723 428 CURVE SMOOTH",
"720 430 OFFCURVE",
"718 431 OFFCURVE",
"715 431 CURVE SMOOTH",
"710 431 OFFCURVE",
"707 428 OFFCURVE",
"707 423 CURVE SMOOTH",
"707 420 OFFCURVE",
"714 407 OFFCURVE",
"714 396 CURVE SMOOTH",
"714 375 OFFCURVE",
"701 358 OFFCURVE",
"676 343 CURVE SMOOTH",
"651 329 OFFCURVE",
"624 324 OFFCURVE",
"595 327 CURVE",
"694 496 OFFCURVE",
"771 580 OFFCURVE",
"828 580 CURVE SMOOTH",
"844 580 OFFCURVE",
"860 567 OFFCURVE",
"859 567 CURVE SMOOTH",
"867 567 OFFCURVE",
"876 585 OFFCURVE",
"876 601 CURVE SMOOTH"
);
},
{
closed = 1;
nodes = (
"837 611 OFFCURVE",
"828 613 OFFCURVE",
"819 613 CURVE SMOOTH",
"780 613 OFFCURVE",
"729 580 OFFCURVE",
"666 515 CURVE SMOOTH",
"614 462 OFFCURVE",
"569 405 OFFCURVE",
"532 344 CURVE",
"483 353 OFFCURVE",
"458 381 OFFCURVE",
"458 430 CURVE SMOOTH",
"458 528 OFFCURVE",
"518 607 OFFCURVE",
"602 645 CURVE SMOOTH",
"651 667 OFFCURVE",
"698 677 OFFCURVE",
"742 675 CURVE SMOOTH",
"763 674 OFFCURVE",
"785 668 OFFCURVE",
"806 655 CURVE SMOOTH",
"831 641 OFFCURVE",
"844 625 OFFCURVE",
"845 606 CURVE"
);
}
);
width = 576;
}
);
note = I;
unicode = 0049;
},
{
glyphname = J;
layers = (
{
hints = (
{
horizontal = 1;
place = "{-130, 21}";
type = Stem;
},
{
horizontal = 1;
place = "{297, 25}";
type = Stem;
},
{
horizontal = 1;
place = "{664, 52}";
type = Stem;
},
{
place = "{39, 50}";
type = Stem;
},
{
place = "{451, 45}";
type = Stem;
}
);
layerId = "2B98CC2F-ACFB-4214-A552-9F7A1112B617";
paths = (
{
closed = 1;
nodes = (
"1110 640 OFFCURVE",
"1072 660 OFFCURVE",
"1000 673 CURVE",
"1001 702 OFFCURVE",
"992 716 OFFCURVE",
"971 716 CURVE SMOOTH",
"950 716 OFFCURVE",
"929 697 OFFCURVE",
"932 680 CURVE",
"905 682 OFFCURVE",
"888 683 OFFCURVE",
"883 683 CURVE SMOOTH",
"836 684 OFFCURVE",
"790 678 OFFCURVE",
"747 667 CURVE SMOOTH",
"687 652 OFFCURVE",
"645 627 OFFCURVE",
"620 593 CURVE SMOOTH",
"608 577 OFFCURVE",
"602 560 OFFCURVE",
"602 542 CURVE SMOOTH",
"602 521 OFFCURVE",
"609 503 OFFCURVE",
"624 488 CURVE SMOOTH",
"639 473 OFFCURVE",
"655 467 OFFCURVE",
"672 470 CURVE SMOOTH",
"680 471 OFFCURVE",
"684 474 OFFCURVE",
"684 477 CURVE SMOOTH",
"684 479 OFFCURVE",
"678 488 OFFCURVE",
"665 503 CURVE SMOOTH",
"652 518 OFFCURVE",
"646 533 OFFCURVE",
"646 547 CURVE SMOOTH",
"646 556 OFFCURVE",
"649 566 OFFCURVE",
"655 576 CURVE SMOOTH",
"670 602 OFFCURVE",
"704 624 OFFCURVE",
"757 643 CURVE SMOOTH",
"803 659 OFFCURVE",
"842 667 OFFCURVE",
"875 666 CURVE SMOOTH",
"934 663 LINE",
"931 623 OFFCURVE",
"874 514 OFFCURVE",
"764 337 CURVE SMOOTH",
"585 48 OFFCURVE",
"413 -100 OFFCURVE",
"248 -109 CURVE SMOOTH",
"196 -112 OFFCURVE",
"156 -101 OFFCURVE",
"128 -77 CURVE SMOOTH",
"102 -55 OFFCURVE",
"89 -24 OFFCURVE",
"89 15 CURVE SMOOTH",
"89 46 OFFCURVE",
"97 77 OFFCURVE",
"114 110 CURVE SMOOTH",
"146 175 OFFCURVE",
"187 224 OFFCURVE",
"237 257 CURVE SMOOTH",
"280 286 OFFCURVE",
"320 300 OFFCURVE",
"358 297 CURVE SMOOTH",
"414 293 OFFCURVE",
"451 251 OFFCURVE",
"451 195 CURVE SMOOTH",
"451 162 OFFCURVE",
"439 128 OFFCURVE",
"415 93 CURVE",
"413 89 OFFCURVE",
"412 86 OFFCURVE",
"412 84 CURVE SMOOTH",
"412 81 OFFCURVE",
"413 80 OFFCURVE",
"416 80 CURVE SMOOTH",
"426 80 OFFCURVE",
"439 89 OFFCURVE",
"456 108 CURVE SMOOTH",
"476 130 OFFCURVE",
"488 154 OFFCURVE",
"493 180 CURVE SMOOTH",
"495 189 OFFCURVE",
"496 197 OFFCURVE",
"496 206 CURVE SMOOTH",
"496 273 OFFCURVE",
"444 318 OFFCURVE",
"359 322 CURVE SMOOTH",
"316 324 OFFCURVE",
"267 310 OFFCURVE",
"214 279 CURVE SMOOTH",
"147 241 OFFCURVE",
"96 188 OFFCURVE",
"61 120 CURVE SMOOTH",
"46 92 OFFCURVE",
"39 62 OFFCURVE",
"39 29 CURVE SMOOTH",
"39 -15 OFFCURVE",
"53 -51 OFFCURVE",
"81 -80 CURVE SMOOTH",
"113 -113 OFFCURVE",
"160 -130 OFFCURVE",
"222 -130 CURVE SMOOTH",
"323 -130 OFFCURVE",
"431 -85 OFFCURVE",
"546 6 CURVE SMOOTH",
"647 87 OFFCURVE",
"734 186 OFFCURVE",
"809 304 CURVE SMOOTH",
"922 484 OFFCURVE",
"985 601 OFFCURVE",
"997 656 CURVE",
"1046 646 OFFCURVE",
"1079 629 OFFCURVE",
"1096 604 CURVE",
"1093 588 OFFCURVE",
"1096 580 OFFCURVE",
"1104 580 CURVE SMOOTH",
"1114 580 OFFCURVE",
"1117 592 OFFCURVE",
"1114 615 CURVE SMOOTH"
);
}
);
width = 822;
}
);
note = J;
unicode = 004A;
},
{
glyphname = K;
layers = (
{
hints = (
{
horizontal = 1;
place = "{-129, 36}";
type = Stem;
},
{
horizontal = 1;
place = "{340, 44}";
type = Stem;
},
{
horizontal = 1;
place = "{703, 41}";
type = Stem;
},
{
place = "{22, 40}";
type = Stem;
},
{
horizontal = 1;
place = "{320, 25}";
type = Stem;
}
);
layerId = "2B98CC2F-ACFB-4214-A552-9F7A1112B617";
paths = (
{
closed = 1;
nodes = (
"1546 740 OFFCURVE",
"1524 744 OFFCURVE",
"1499 744 CURVE SMOOTH",
"1321 744 OFFCURVE",
"1206 650 OFFCURVE",
"1005 497 CURVE SMOOTH",
"707 270 LINE",
"696 296 OFFCURVE",
"689 317 OFFCURVE",
"685 333 CURVE",
"797 525 OFFCURVE",
"853 641 OFFCURVE",
"853 682 CURVE SMOOTH",
"853 687 OFFCURVE",
"852 691 OFFCURVE",
"849 693 CURVE SMOOTH",
"844 696 OFFCURVE",
"839 697 OFFCURVE",
"832 697 CURVE SMOOTH",
"805 697 OFFCURVE",
"742 670 OFFCURVE",
"643 617 CURVE SMOOTH",
"610 599 OFFCURVE",
"578 573 OFFCURVE",
"549 540 CURVE SMOOTH",
"520 507 OFFCURVE",
"506 479 OFFCURVE",
"506 456 CURVE SMOOTH",
"506 441 OFFCURVE",
"514 431 OFFCURVE",
"531 427 CURVE",
"543 426 OFFCURVE",
"560 427 OFFCURVE",
"581 430 CURVE SMOOTH",
"602 433 OFFCURVE",
"613 437 OFFCURVE",
"613 440 CURVE SMOOTH",
"613 441 OFFCURVE",
"611 443 OFFCURVE",
"608 444 CURVE",
"581 444 OFFCURVE",
"560 449 OFFCURVE",
"546 459 CURVE SMOOTH",
"539 464 OFFCURVE",
"536 470 OFFCURVE",
"536 477 CURVE SMOOTH",
"536 494 OFFCURVE",
"551 516 OFFCURVE",
"580 545 CURVE SMOOTH",
"603 568 OFFCURVE",
"625 586 OFFCURVE",
"648 601 CURVE SMOOTH",
"665 612 OFFCURVE",
"694 627 OFFCURVE",
"736 648 CURVE SMOOTH",
"779 669 OFFCURVE",
"802 679 OFFCURVE",
"806 677 CURVE",
"807 677 OFFCURVE",
"807 676 OFFCURVE",
"807 675 CURVE SMOOTH",
"807 664 OFFCURVE",
"792 629 OFFCURVE",
"763 569 CURVE SMOOTH",
"732 505 OFFCURVE",
"699 442 OFFCURVE",
"663 381 CURVE",
"654 383 OFFCURVE",
"644 384 OFFCURVE",
"635 384 CURVE SMOOTH",
"600 384 OFFCURVE",
"571 371 OFFCURVE",
"550 346 CURVE SMOOTH",
"531 323 OFFCURVE",
"521 297 OFFCURVE",
"521 268 CURVE SMOOTH",
"521 242 OFFCURVE",
"529 222 OFFCURVE",
"544 208 CURVE",
"460 105 OFFCURVE",
"380 31 OFFCURVE",
"305 -12 CURVE SMOOTH",
"255 -41 OFFCURVE",
"215 -54 OFFCURVE",
"184 -51 CURVE SMOOTH",
"103 -42 OFFCURVE",
"62 -1 OFFCURVE",
"62 71 CURVE SMOOTH",
"62 98 OFFCURVE",
"67 125 OFFCURVE",
"78 153 CURVE SMOOTH",
"92 188 OFFCURVE",
"116 222 OFFCURVE",
"150 255 CURVE SMOOTH",
"195 298 OFFCURVE",
"244 320 OFFCURVE",
"296 320 CURVE SMOOTH",
"305 320 OFFCURVE",
"313 319 OFFCURVE",
"322 318 CURVE SMOOTH",
"340 315 OFFCURVE",
"357 299 OFFCURVE",
"373 269 CURVE SMOOTH",
"377 262 OFFCURVE",
"381 259 OFFCURVE",
"384 262 CURVE SMOOTH",
"387 265 OFFCURVE",
"388 270 OFFCURVE",
"388 279 CURVE SMOOTH",
"388 289 OFFCURVE",
"386 299 OFFCURVE",
"381 308 CURVE SMOOTH",
"368 333 OFFCURVE",
"344 345 OFFCURVE",
"311 345 CURVE SMOOTH",
"270 345 OFFCURVE",
"231 337 OFFCURVE",
"192 320 CURVE SMOOTH",
"123 291 OFFCURVE",
"72 239 OFFCURVE",
"38 164 CURVE SMOOTH",
"27 140 OFFCURVE",
"22 115 OFFCURVE",
"22 88 CURVE SMOOTH",
"22 -26 OFFCURVE",
"87 -76 OFFCURVE",
"191 -76 CURVE SMOOTH",
"354 -76 OFFCURVE",
"515 96 OFFCURVE",
"590 193 CURVE",
"615 195 OFFCURVE",
"645 207 OFFCURVE",
"681 228 CURVE",
"710 155 OFFCURVE",
"751 87 OFFCURVE",
"803 24 CURVE SMOOTH",
"856 -41 OFFCURVE",
"909 -88 OFFCURVE",
"964 -115 CURVE SMOOTH",
"983 -124 OFFCURVE",
"1006 -129 OFFCURVE",
"1033 -129 CURVE SMOOTH",
"1066 -129 OFFCURVE",
"1094 -122 OFFCURVE",
"1115 -109 CURVE SMOOTH",
"1140 -93 OFFCURVE",
"1151 -72 OFFCURVE",
"1147 -46 CURVE SMOOTH",
"1144 -25 OFFCURVE",
"1139 -15 OFFCURVE",
"1130 -15 CURVE SMOOTH",
"1121 -15 OFFCURVE",
"1112 -31 OFFCURVE",
"1115 -46 CURVE SMOOTH",
"1116 -49 OFFCURVE",
"1116 -53 OFFCURVE",
"1116 -56 CURVE SMOOTH",
"1116 -81 OFFCURVE",
"1100 -93 OFFCURVE",
"1068 -93 CURVE SMOOTH",
"1047 -93 OFFCURVE",
"1023 -87 OFFCURVE",
"997 -75 CURVE SMOOTH",
"951 -54 OFFCURVE",
"901 -13 OFFCURVE",
"846 50 CURVE SMOOTH",
"792 113 OFFCURVE",
"749 180 OFFCURVE",
"716 249 CURVE",
"755 274 OFFCURVE",
"826 325 OFFCURVE",
"929 404 CURVE SMOOTH",
"1030 481 OFFCURVE",
"1110 538 OFFCURVE",
"1169 575 CURVE SMOOTH",
"1262 632 OFFCURVE",
"1347 670 OFFCURVE",
"1423 687 CURVE SMOOTH",
"1472 698 OFFCURVE",
"1507 703 OFFCURVE",
"1528 703 CURVE SMOOTH",
"1547 703 OFFCURVE",
"1560 700 OFFCURVE",
"1566 693 CURVE SMOOTH",
"1569 689 OFFCURVE",
"1573 687 OFFCURVE",
"1576 687 CURVE SMOOTH",
"1583 687 OFFCURVE",
"1586 693 OFFCURVE",
"1586 704 CURVE SMOOTH",
"1586 718 OFFCURVE",
"1580 727 OFFCURVE",
"1567 732 CURVE SMOOTH"
);
},
{
closed = 1;
nodes = (
"654 239 OFFCURVE",
"641 234 OFFCURVE",
"633 233 CURVE",
"630 232 OFFCURVE",
"626 232 OFFCURVE",
"620 232 CURVE",
"637 255 OFFCURVE",
"650 274 OFFCURVE",
"660 289 CURVE",
"663 278 OFFCURVE",
"667 265 OFFCURVE",
"673 249 CURVE"
);
},
{
closed = 1;
nodes = (
"612 300 OFFCURVE",
"594 275 OFFCURVE",
"583 259 CURVE SMOOTH",
"576 249 LINE",
"569 258 OFFCURVE",
"565 269 OFFCURVE",
"565 282 CURVE SMOOTH",
"565 311 OFFCURVE",
"586 340 OFFCURVE",
"614 340 CURVE SMOOTH",
"621 340 OFFCURVE",
"628 338 OFFCURVE",
"635 335 CURVE"
);
}
);
width = 936;
}
);
note = K;
unicode = 004B;
},
{
glyphname = L;
layers = (
{
hints = (
{
horizontal = 1;
place = "{-109, 29}";
type = Stem;
},
{
horizontal = 1;
place = "{-48, 27}";
type = Stem;
},
{
horizontal = 1;
place = "{220, 26}";
type = Stem;
},
{
horizontal = 1;
place = "{679, -20}";
target = down;
type = TopGhost;
},
{
place = "{3, 39}";
type = Stem;
},
{
place = "{825, 34}";
type = Stem;
}
);
layerId = "2B98CC2F-ACFB-4214-A552-9F7A1112B617";
paths = (
{
closed = 1;
nodes = (
"859 650 OFFCURVE",
"828 679 OFFCURVE",
"766 679 CURVE SMOOTH",
"679 679 OFFCURVE",
"568 582 OFFCURVE",
"435 387 CURVE SMOOTH",
"404 342 OFFCURVE",
"378 302 OFFCURVE",
"355 269 CURVE",
"307 294 OFFCURVE",
"283 323 OFFCURVE",
"283 358 CURVE",
"279 392 OFFCURVE",
"314 453 OFFCURVE",
"357 452 CURVE SMOOTH",
"372 452 OFFCURVE",
"390 442 OFFCURVE",
"400 432 CURVE",
"403 430 OFFCURVE",
"405 436 OFFCURVE",
"403 440 CURVE SMOOTH",
"393 461 OFFCURVE",
"377 471 OFFCURVE",
"355 471 CURVE SMOOTH",
"320 471 OFFCURVE",
"281 441 OFFCURVE",
"266 404 CURVE SMOOTH",
"259 388 OFFCURVE",
"256 373 OFFCURVE",
"256 358 CURVE SMOOTH",
"256 311 OFFCURVE",
"283 276 OFFCURVE",
"338 251 CURVE",
"299 196 OFFCURVE",
"262 145 OFFCURVE",
"227 98 CURVE",
"164 220 LINE SMOOTH",
"149 247 OFFCURVE",
"136 261 OFFCURVE",
"123 261 CURVE",
"105 258 OFFCURVE",
"81 230 OFFCURVE",
"51 177 CURVE SMOOTH",
"19 120 OFFCURVE",
"3 71 OFFCURVE",
"3 29 CURVE SMOOTH",
"3 -4 OFFCURVE",
"15 -27 OFFCURVE",
"38 -40 CURVE SMOOTH",
"48 -45 OFFCURVE",
"61 -48 OFFCURVE",
"76 -48 CURVE SMOOTH",
"124 -48 OFFCURVE",
"175 -21 OFFCURVE",
"228 32 CURVE",
"304 -57 OFFCURVE",
"432 -109 OFFCURVE",
"545 -109 CURVE SMOOTH",
"596 -109 OFFCURVE",
"636 -96 OFFCURVE",
"667 -71 CURVE SMOOTH",
"692 -50 OFFCURVE",
"704 -28 OFFCURVE",
"704 -5 CURVE SMOOTH",
"704 7 OFFCURVE",
"695 35 OFFCURVE",
"682 35 CURVE SMOOTH",
"679 35 OFFCURVE",
"675 30 OFFCURVE",
"677 20 CURVE SMOOTH",
"678 15 OFFCURVE",
"678 9 OFFCURVE",
"678 4 CURVE SMOOTH",
"678 -21 OFFCURVE",
"664 -46 OFFCURVE",
"634 -62 CURVE SMOOTH",
"607 -77 OFFCURVE",
"568 -80 OFFCURVE",
"536 -80 CURVE SMOOTH",
"449 -80 OFFCURVE",
"299 -10 OFFCURVE",
"252 58 CURVE",
"307 126 OFFCURVE",
"352 182 OFFCURVE",
"387 227 CURVE",
"402 222 OFFCURVE",
"420 220 OFFCURVE",
"439 220 CURVE SMOOTH",
"494 220 OFFCURVE",
"554 236 OFFCURVE",
"618 269 CURVE SMOOTH",
"687 304 OFFCURVE",
"742 350 OFFCURVE",
"782 406 CURVE SMOOTH",
"833 477 OFFCURVE",
"859 539 OFFCURVE",
"859 592 CURVE SMOOTH"
);
},
{
closed = 1;
nodes = (
"813 652 OFFCURVE",
"825 635 OFFCURVE",
"825 608 CURVE SMOOTH",
"825 564 OFFCURVE",
"795 500 OFFCURVE",
"734 415 CURVE SMOOTH",
"699 366 OFFCURVE",
"650 325 OFFCURVE",
"588 292 CURVE SMOOTH",
"530 261 OFFCURVE",
"478 246 OFFCURVE",
"432 246 CURVE SMOOTH",
"421 246 OFFCURVE",
"412 247 OFFCURVE",
"403 249 CURVE",
"438 294 OFFCURVE",
"470 337 OFFCURVE",
"497 376 CURVE SMOOTH",
"565 475 OFFCURVE",
"615 542 OFFCURVE",
"646 578 CURVE SMOOTH",
"695 634 OFFCURVE",
"737 662 OFFCURVE",
"770 662 CURVE SMOOTH",
"777 662 OFFCURVE",
"784 661 OFFCURVE",
"790 659 CURVE SMOOTH"
);
},
{
closed = 1;
nodes = (
"185 43 OFFCURVE",
"165 24 OFFCURVE",
"142 7 CURVE SMOOTH",
"116 -12 OFFCURVE",
"95 -21 OFFCURVE",
"78 -21 CURVE SMOOTH",
"54 -21 OFFCURVE",
"42 0 OFFCURVE",
"42 43 CURVE SMOOTH",
"42 78 OFFCURVE",
"49 116 OFFCURVE",
"63 157 CURVE SMOOTH",
"77 198 OFFCURVE",
"90 219 OFFCURVE",
"102 221 CURVE",
"110 224 OFFCURVE",
"122 209 OFFCURVE",
"137 178 CURVE SMOOTH",
"162 129 OFFCURVE",
"183 91 OFFCURVE",
"202 65 CURVE"
);
}
);
width = 658;
}
);
note = L;
unicode = 004C;
},
{
glyphname = M;
layers = (
{
hints = (
{
horizontal = 1;
place = "{-67, 21}";
target = up;
type = BottomGhost;
},
{
horizontal = 1;
place = "{630, 21}";
target = up;
type = BottomGhost;
},
{
place = "{16, 44}";
type = Stem;
},
{
place = "{360, 21}";
type = Stem;
},
{
place = "{613, 50}";
type = Stem;
},
{
place = "{903, 58}";
type = Stem;
},
{
place = "{903, 43}";
type = Stem;
}
);
layerId = "2B98CC2F-ACFB-4214-A552-9F7A1112B617";
paths = (
{
closed = 1;
nodes = (
"1287 584 OFFCURVE",
"1283 597 OFFCURVE",
"1282 599 CURVE SMOOTH",
"1277 613 OFFCURVE",
"1269 620 OFFCURVE",
"1259 620 CURVE SMOOTH",
"1250 620 OFFCURVE",
"1238 615 OFFCURVE",
"1225 604 CURVE SMOOTH",
"1065 472 LINE SMOOTH",
"984 402 OFFCURVE",
"921 342 OFFCURVE",
"876 291 CURVE SMOOTH",
"839 248 OFFCURVE",
"818 224 OFFCURVE",
"813 217 CURVE SMOOTH",
"816 221 OFFCURVE",
"821 254 OFFCURVE",
"844 295 CURVE SMOOTH",
"880 362 OFFCURVE",
"910 421 OFFCURVE",
"934 472 CURVE SMOOTH",
"952 510 OFFCURVE",
"961 540 OFFCURVE",
"961 562 CURVE SMOOTH",
"961 587 OFFCURVE",
"949 600 OFFCURVE",
"925 600 CURVE SMOOTH",
"890 600 OFFCURVE",
"835 569 OFFCURVE",
"796 532 CURVE SMOOTH",
"706 444 OFFCURVE",
"641 375 OFFCURVE",
"602 324 CURVE SMOOTH",
"525 226 LINE",
"567 291 OFFCURVE",
"594 336 OFFCURVE",
"606 361 CURVE SMOOTH",
"644 440 OFFCURVE",
"663 503 OFFCURVE",
"663 550 CURVE SMOOTH",
"663 581 OFFCURVE",
"655 604 OFFCURVE",
"638 620 CURVE SMOOTH",
"616 641 OFFCURVE",
"578 651 OFFCURVE",
"524 651 CURVE SMOOTH",
"473 651 OFFCURVE",
"419 642 OFFCURVE",
"361 624 CURVE SMOOTH",
"303 606 OFFCURVE",
"257 583 OFFCURVE",
"222 555 CURVE SMOOTH",
"85 445 OFFCURVE",
"16 337 OFFCURVE",
"16 232 CURVE SMOOTH",
"16 139 OFFCURVE",
"75 76 OFFCURVE",
"166 76 CURVE SMOOTH",
"212 76 OFFCURVE",
"255 88 OFFCURVE",
"294 112 CURVE SMOOTH",
"325 131 OFFCURVE",
"348 154 OFFCURVE",
"363 180 CURVE SMOOTH",
"375 201 OFFCURVE",
"381 218 OFFCURVE",
"381 233 CURVE SMOOTH",
"381 256 OFFCURVE",
"372 267 OFFCURVE",
"355 267 CURVE SMOOTH",
"351 267 OFFCURVE",
"349 266 OFFCURVE",
"349 263 CURVE SMOOTH",
"349 262 OFFCURVE",
"349 261 OFFCURVE",
"350 260 CURVE",
"357 256 OFFCURVE",
"360 248 OFFCURVE",
"360 237 CURVE SMOOTH",
"360 218 OFFCURVE",
"352 197 OFFCURVE",
"336 175 CURVE SMOOTH",
"293 118 OFFCURVE",
"231 90 OFFCURVE",
"150 92 CURVE SMOOTH",
"90 93 OFFCURVE",
"60 128 OFFCURVE",
"60 196 CURVE SMOOTH",
"60 243 OFFCURVE",
"77 296 OFFCURVE",
"110 353 CURVE SMOOTH",
"147 416 OFFCURVE",
"199 475 OFFCURVE",
"266 529 CURVE SMOOTH",
"349 596 OFFCURVE",
"430 630 OFFCURVE",
"508 630 CURVE SMOOTH",
"559 630 OFFCURVE",
"590 616 OFFCURVE",
"603 589 CURVE SMOOTH",
"610 574 OFFCURVE",
"613 557 OFFCURVE",
"613 538 CURVE SMOOTH",
"613 490 OFFCURVE",
"591 426 OFFCURVE",
"546 345 CURVE SMOOTH",
"525 307 OFFCURVE",
"480 237 OFFCURVE",
"412 136 CURVE SMOOTH",
"359 57 OFFCURVE",
"328 2 OFFCURVE",
"319 -27 CURVE SMOOTH",
"315 -40 OFFCURVE",
"327 -46 OFFCURVE",
"354 -46 CURVE SMOOTH",
"368 -46 OFFCURVE",
"380 -43 OFFCURVE",
"390 -38 CURVE",
"402 -29 OFFCURVE",
"408 -24 OFFCURVE",
"408 -23 CURVE",
"408 -23 OFFCURVE",
"399 -20 OFFCURVE",
"399 -12 CURVE SMOOTH",
"399 -2 OFFCURVE",
"407 16 OFFCURVE",
"423 41 CURVE SMOOTH",
"463 104 OFFCURVE",
"521 182 OFFCURVE",
"598 274 CURVE SMOOTH",
"691 386 OFFCURVE",
"774 472 OFFCURVE",
"847 533 CURVE SMOOTH",
"868 551 OFFCURVE",
"884 560 OFFCURVE",
"894 560 CURVE SMOOTH",
"901 560 OFFCURVE",
"905 555 OFFCURVE",
"905 544 CURVE SMOOTH",
"905 530 OFFCURVE",
"899 510 OFFCURVE",
"888 483 CURVE SMOOTH",
"856 408 OFFCURVE",
"804 308 OFFCURVE",
"733 184 CURVE SMOOTH",
"684 101 OFFCURVE",
"648 42 OFFCURVE",
"625 6 CURVE SMOOTH",
"623 3 OFFCURVE",
"622 1 OFFCURVE",
"622 -2 CURVE SMOOTH",
"622 -10 OFFCURVE",
"628 -14 OFFCURVE",
"639 -14 CURVE SMOOTH",
"664 -14 OFFCURVE",
"685 2 OFFCURVE",
"702 33 CURVE SMOOTH",
"735 92 OFFCURVE",
"812 182 OFFCURVE",
"933 301 CURVE SMOOTH",
"1026 392 OFFCURVE",
"1107 467 OFFCURVE",
"1177 524 CURVE",
"1096 411 OFFCURVE",
"1035 320 OFFCURVE",
"995 252 CURVE SMOOTH",
"934 145 OFFCURVE",
"903 63 OFFCURVE",
"903 5 CURVE SMOOTH",
"903 -20 OFFCURVE",
"909 -41 OFFCURVE",
"921 -58 CURVE SMOOTH",
"925 -64 OFFCURVE",
"933 -67 OFFCURVE",
"945 -67 CURVE SMOOTH",
"968 -67 OFFCURVE",
"997 -58 OFFCURVE",
"1032 -40 CURVE SMOOTH",
"1067 -22 OFFCURVE",
"1085 -8 OFFCURVE",
"1085 2 CURVE SMOOTH",
"1085 4 OFFCURVE",
"1083 6 OFFCURVE",
"1080 7 CURVE",
"1072 5 OFFCURVE",
"1054 -2 OFFCURVE",
"1025 -15 CURVE SMOOTH",
"999 -26 OFFCURVE",
"981 -33 OFFCURVE",
"971 -35 CURVE SMOOTH",
"954 -38 OFFCURVE",
"946 -29 OFFCURVE",
"946 -7 CURVE SMOOTH",
"946 37 OFFCURVE",
"974 107 OFFCURVE",
"1029 204 CURVE SMOOTH",
"1090 310 OFFCURVE",
"1162 405 OFFCURVE",
"1245 490 CURVE SMOOTH",
"1280 526 OFFCURVE",
"1296 550 OFFCURVE",
"1293 561 CURVE SMOOTH"
);
}
);
width = 1136;
}
);
note = M;
unicode = 004D;
},
{
glyphname = N;
layers = (
{
hints = (
{
horizontal = 1;
place = "{-96, 21}";
target = up;
type = BottomGhost;
},
{
horizontal = 1;
place = "{596, 24}";
type = Stem;
},
{
place = "{2, 37}";
type = Stem;
},
{
place = "{339, 20}";
type = Stem;
},
{
place = "{592, 50}";
type = Stem;
},
{
place = "{711, 43}";
type = Stem;
}
);
layerId = "2B98CC2F-ACFB-4214-A552-9F7A1112B617";
paths = (
{
closed = 1;
nodes = (
"1094 561 OFFCURVE",
"1078 575 OFFCURVE",
"1053 575 CURVE SMOOTH",
"1047 575 OFFCURVE",
"1040 574 OFFCURVE",
"1033 571 CURVE SMOOTH",
"916 528 OFFCURVE",
"773 437 OFFCURVE",
"605 296 CURVE SMOOTH",
"559 257 OFFCURVE",
"525 224 OFFCURVE",
"504 197 CURVE",
"540 252 OFFCURVE",
"567 297 OFFCURVE",
"584 332 CURVE SMOOTH",
"623 411 OFFCURVE",
"642 473 OFFCURVE",
"642 520 CURVE SMOOTH",
"642 551 OFFCURVE",
"633 575 OFFCURVE",
"616 591 CURVE SMOOTH",
"595 610 OFFCURVE",
"561 620 OFFCURVE",
"514 620 CURVE SMOOTH",
"466 620 OFFCURVE",
"413 610 OFFCURVE",
"356 591 CURVE SMOOTH",
"299 572 OFFCURVE",
"252 548 OFFCURVE",
"216 519 CURVE SMOOTH",
"73 404 OFFCURVE",
"2 295 OFFCURVE",
"2 191 CURVE SMOOTH",
"2 103 OFFCURVE",
"58 47 OFFCURVE",
"145 47 CURVE SMOOTH",
"191 47 OFFCURVE",
"234 59 OFFCURVE",
"273 83 CURVE SMOOTH",
"304 102 OFFCURVE",
"327 125 OFFCURVE",
"342 151 CURVE SMOOTH",
"353 172 OFFCURVE",
"359 189 OFFCURVE",
"359 204 CURVE SMOOTH",
"359 227 OFFCURVE",
"350 238 OFFCURVE",
"333 238 CURVE SMOOTH",
"329 238 OFFCURVE",
"327 237 OFFCURVE",
"327 234 CURVE SMOOTH",
"327 233 OFFCURVE",
"327 232 OFFCURVE",
"328 231 CURVE",
"335 227 OFFCURVE",
"339 219 OFFCURVE",
"339 208 CURVE SMOOTH",
"339 189 OFFCURVE",
"331 168 OFFCURVE",
"315 146 CURVE SMOOTH",
"273 89 OFFCURVE",
"211 61 OFFCURVE",
"128 63 CURVE SMOOTH",
"69 64 OFFCURVE",
"39 97 OFFCURVE",
"39 161 CURVE SMOOTH",
"39 206 OFFCURVE",
"56 257 OFFCURVE",
"89 313 CURVE SMOOTH",
"126 374 OFFCURVE",
"179 432 OFFCURVE",
"246 487 CURVE SMOOTH",
"336 560 OFFCURVE",
"420 596 OFFCURVE",
"499 596 CURVE SMOOTH",
"542 596 OFFCURVE",
"570 584 OFFCURVE",
"581 560 CURVE SMOOTH",
"588 545 OFFCURVE",
"592 528 OFFCURVE",
"592 508 CURVE SMOOTH",
"592 460 OFFCURVE",
"569 396 OFFCURVE",
"524 315 CURVE SMOOTH",
"503 277 OFFCURVE",
"458 207 OFFCURVE",
"390 106 CURVE SMOOTH",
"337 27 OFFCURVE",
"306 -27 OFFCURVE",
"297 -56 CURVE SMOOTH",
"293 -69 OFFCURVE",
"305 -75 OFFCURVE",
"333 -75 CURVE SMOOTH",
"347 -75 OFFCURVE",
"359 -72 OFFCURVE",
"368 -67 CURVE SMOOTH",
"381 -58 OFFCURVE",
"387 -53 OFFCURVE",
"387 -52 CURVE",
"387 -52 OFFCURVE",
"378 -50 OFFCURVE",
"378 -41 CURVE SMOOTH",
"378 -31 OFFCURVE",
"386 -13 OFFCURVE",
"402 12 CURVE SMOOTH",
"450 89 OFFCURVE",
"530 180 OFFCURVE",
"641 285 CURVE SMOOTH",
"782 417 OFFCURVE",
"897 487 OFFCURVE",
"985 495 CURVE",
"904 382 OFFCURVE",
"843 291 OFFCURVE",
"803 223 CURVE SMOOTH",
"742 116 OFFCURVE",
"711 34 OFFCURVE",
"711 -24 CURVE SMOOTH",
"711 -49 OFFCURVE",
"717 -70 OFFCURVE",
"729 -87 CURVE SMOOTH",
"734 -93 OFFCURVE",
"742 -96 OFFCURVE",
"753 -96 CURVE SMOOTH",
"776 -96 OFFCURVE",
"805 -87 OFFCURVE",
"840 -69 CURVE SMOOTH",
"875 -51 OFFCURVE",
"893 -37 OFFCURVE",
"893 -27 CURVE SMOOTH",
"893 -25 OFFCURVE",
"891 -23 OFFCURVE",
"888 -22 CURVE",
"880 -24 OFFCURVE",
"862 -31 OFFCURVE",
"833 -44 CURVE SMOOTH",
"807 -55 OFFCURVE",
"789 -62 OFFCURVE",
"779 -64 CURVE SMOOTH",
"762 -67 OFFCURVE",
"754 -58 OFFCURVE",
"754 -37 CURVE SMOOTH",
"754 7 OFFCURVE",
"782 78 OFFCURVE",
"837 175 CURVE SMOOTH",
"898 281 OFFCURVE",
"970 376 OFFCURVE",
"1053 461 CURVE SMOOTH",
"1088 497 OFFCURVE",
"1104 521 OFFCURVE",
"1101 532 CURVE SMOOTH"
);
}
);
width = 925;
}
);
note = N;
unicode = 004E;
},
{
glyphname = O;
layers = (
{
hints = (
{
horizontal = 1;
place = "{-58, 20}";
type = Stem;
},
{
horizontal = 1;
place = "{533, 23}";
type = Stem;
},
{
horizontal = 1;
place = "{615, 21}";
type = Stem;
},
{
place = "{24, 54}";
type = Stem;
},
{
place = "{801, 31}";
type = Stem;
},
{
horizontal = 1;
place = "{-59, 21}";
target = up;
type = BottomGhost;
}
);
layerId = "2B98CC2F-ACFB-4214-A552-9F7A1112B617";
paths = (
{
closed = 1;
nodes = (
"815 432 LINE SMOOTH",
"826 455 OFFCURVE",
"832 478 OFFCURVE",
"832 500 CURVE SMOOTH",
"832 539 OFFCURVE",
"815 571 OFFCURVE",
"781 596 CURVE SMOOTH",
"745 623 OFFCURVE",
"694 636 OFFCURVE",
"628 636 CURVE SMOOTH",
"615 636 OFFCURVE",
"601 635 OFFCURVE",
"588 634 CURVE SMOOTH",
"477 625 OFFCURVE",
"368 583 OFFCURVE",
"261 506 CURVE SMOOTH",
"165 437 OFFCURVE",
"100 365 OFFCURVE",
"65 288 CURVE SMOOTH",
"38 228 OFFCURVE",
"24 174 OFFCURVE",
"24 125 CURVE SMOOTH",
"24 14 OFFCURVE",
"96 -53 OFFCURVE",
"201 -58 CURVE SMOOTH",
"216 -59 OFFCURVE",
"230 -59 OFFCURVE",
"243 -59 CURVE SMOOTH",
"406 -59 OFFCURVE",
"553 0 OFFCURVE",
"684 117 CURVE SMOOTH",
"769 193 OFFCURVE",
"812 273 OFFCURVE",
"812 356 CURVE SMOOTH",
"812 375 OFFCURVE",
"809 394 OFFCURVE",
"804 411 CURVE"
);
},
{
closed = 1;
nodes = (
"763 492 OFFCURVE",
"714 526 OFFCURVE",
"644 543 CURVE SMOOTH",
"606 552 OFFCURVE",
"574 556 OFFCURVE",
"548 556 CURVE SMOOTH",
"519 556 OFFCURVE",
"489 551 OFFCURVE",
"458 541 CURVE",
"457 540 OFFCURVE",
"456 539 OFFCURVE",
"456 538 CURVE SMOOTH",
"456 536 OFFCURVE",
"474 534 OFFCURVE",
"509 533 CURVE SMOOTH",
"551 532 OFFCURVE",
"582 529 OFFCURVE",
"601 524 CURVE SMOOTH",
"638 513 OFFCURVE",
"670 496 OFFCURVE",
"697 472 CURVE SMOOTH",
"728 445 OFFCURVE",
"746 413 OFFCURVE",
"751 376 CURVE",
"728 348 OFFCURVE",
"693 314 OFFCURVE",
"646 273 CURVE SMOOTH",
"590 227 LINE SMOOTH",
"567 208 OFFCURVE",
"558 199 OFFCURVE",
"564 199 CURVE SMOOTH",
"565 199 OFFCURVE",
"568 200 OFFCURVE",
"572 201 CURVE",
"657 253 OFFCURVE",
"717 298 OFFCURVE",
"752 337 CURVE",
"745 268 OFFCURVE",
"699 196 OFFCURVE",
"614 120 CURVE SMOOTH",
"487 7 OFFCURVE",
"352 -46 OFFCURVE",
"211 -38 CURVE SMOOTH",
"122 -33 OFFCURVE",
"78 14 OFFCURVE",
"78 101 CURVE SMOOTH",
"78 155 OFFCURVE",
"96 217 OFFCURVE",
"133 286 CURVE SMOOTH",
"183 381 OFFCURVE",
"251 458 OFFCURVE",
"337 518 CURVE SMOOTH",
"430 583 OFFCURVE",
"526 615 OFFCURVE",
"627 615 CURVE SMOOTH",
"700 615 OFFCURVE",
"750 595 OFFCURVE",
"779 555 CURVE SMOOTH",
"794 534 OFFCURVE",
"801 513 OFFCURVE",
"801 490 CURVE SMOOTH",
"801 474 OFFCURVE",
"798 458 OFFCURVE",
"791 441 CURVE"
);
}
);
width = 784;
}
);
note = O;
unicode = 004F;
},
{
glyphname = P;
layers = (
{
hints = (
{
horizontal = 1;
place = "{-108, 26}";
type = Stem;
},
{
horizontal = 1;
place = "{198, 24}";
type = Stem;
},
{
horizontal = 1;
place = "{261, 21}";
type = Stem;
},
{
horizontal = 1;
place = "{366, 30}";
type = Stem;
},
{
horizontal = 1;
place = "{604, 41}";
type = Stem;
},
{
place = "{43, 37}";
type = Stem;
},
{
place = "{183, 51}";
type = Stem;
},
{
place = "{378, 43}";
type = Stem;
},
{
place = "{1149, 47}";
type = Stem;
},
{
horizontal = 1;
place = "{604, 22}";
type = Stem;
}
);
layerId = "2B98CC2F-ACFB-4214-A552-9F7A1112B617";
paths = (
{
closed = 1;
nodes = (
"1180 377 OFFCURVE",
"1196 414 OFFCURVE",
"1196 447 CURVE SMOOTH",
"1196 498 OFFCURVE",
"1158 540 OFFCURVE",
"1082 572 CURVE SMOOTH",
"1017 600 OFFCURVE",
"934 617 OFFCURVE",
"831 624 CURVE",
"834 638 OFFCURVE",
"829 645 OFFCURVE",
"816 645 CURVE SMOOTH",
"803 645 OFFCURVE",
"789 639 OFFCURVE",
"774 626 CURVE",
"657 627 OFFCURVE",
"553 620 OFFCURVE",
"462 604 CURVE SMOOTH",
"346 583 OFFCURVE",
"265 551 OFFCURVE",
"219 506 CURVE SMOOTH",
"195 483 OFFCURVE",
"183 459 OFFCURVE",
"183 436 CURVE SMOOTH",
"183 395 OFFCURVE",
"222 366 OFFCURVE",
"287 366 CURVE SMOOTH",
"312 366 OFFCURVE",
"341 370 OFFCURVE",
"372 379 CURVE SMOOTH",
"421 393 OFFCURVE",
"457 414 OFFCURVE",
"481 442 CURVE",
"484 447 OFFCURVE",
"483 450 OFFCURVE",
"478 450 CURVE SMOOTH",
"475 450 OFFCURVE",
"470 447 OFFCURVE",
"464 442 CURVE SMOOTH",
"448 428 OFFCURVE",
"421 416 OFFCURVE",
"384 406 CURVE SMOOTH",
"357 399 OFFCURVE",
"334 396 OFFCURVE",
"317 396 CURVE SMOOTH",
"269 396 OFFCURVE",
"234 416 OFFCURVE",
"234 444 CURVE SMOOTH",
"234 459 OFFCURVE",
"244 475 OFFCURVE",
"264 490 CURVE SMOOTH",
"310 526 OFFCURVE",
"382 555 OFFCURVE",
"479 576 CURVE SMOOTH",
"571 596 OFFCURVE",
"664 605 OFFCURVE",
"759 604 CURVE",
"704 472 OFFCURVE",
"655 370 OFFCURVE",
"610 298 CURVE",
"523 141 LINE SMOOTH",
"488 79 OFFCURVE",
"453 32 OFFCURVE",
"420 1 CURVE SMOOTH",
"374 -42 OFFCURVE",
"320 -68 OFFCURVE",
"258 -78 CURVE SMOOTH",
"241 -81 OFFCURVE",
"224 -82 OFFCURVE",
"209 -82 CURVE SMOOTH",
"165 -82 OFFCURVE",
"132 -71 OFFCURVE",
"110 -49 CURVE SMOOTH",
"90 -30 OFFCURVE",
"80 -3 OFFCURVE",
"80 30 CURVE SMOOTH",
"80 82 OFFCURVE",
"100 132 OFFCURVE",
"140 180 CURVE SMOOTH",
"183 231 OFFCURVE",
"231 258 OFFCURVE",
"286 261 CURVE SMOOTH",
"341 264 OFFCURVE",
"378 231 OFFCURVE",
"378 180 CURVE SMOOTH",
"378 152 OFFCURVE",
"367 123 OFFCURVE",
"346 92 CURVE SMOOTH",
"344 89 OFFCURVE",
"343 86 OFFCURVE",
"343 84 CURVE SMOOTH",
"343 73 OFFCURVE",
"356 84 OFFCURVE",
"382 116 CURVE SMOOTH",
"408 148 OFFCURVE",
"421 174 OFFCURVE",
"421 194 CURVE SMOOTH",
"421 254 OFFCURVE",
"370 289 OFFCURVE",
"286 282 CURVE SMOOTH",
"217 277 OFFCURVE",
"158 247 OFFCURVE",
"110 194 CURVE SMOOTH",
"65 145 OFFCURVE",
"43 91 OFFCURVE",
"43 34 CURVE SMOOTH",
"43 -7 OFFCURVE",
"56 -41 OFFCURVE",
"83 -66 CURVE SMOOTH",
"113 -94 OFFCURVE",
"156 -108 OFFCURVE",
"213 -108 CURVE SMOOTH",
"226 -108 OFFCURVE",
"239 -107 OFFCURVE",
"254 -106 CURVE SMOOTH",
"338 -97 OFFCURVE",
"410 -61 OFFCURVE",
"471 0 CURVE SMOOTH",
"500 29 OFFCURVE",
"554 104 OFFCURVE",
"635 223 CURVE",
"674 206 OFFCURVE",
"723 198 OFFCURVE",
"780 198 CURVE SMOOTH",
"851 198 OFFCURVE",
"920 210 OFFCURVE",
"988 235 CURVE SMOOTH",
"1059 261 OFFCURVE",
"1112 295 OFFCURVE",
"1147 337 CURVE SMOOTH"
);
},
{
closed = 1;
nodes = (
"1149 423 OFFCURVE",
"1127 386 OFFCURVE",
"1082 345 CURVE SMOOTH",
"1037 304 OFFCURVE",
"978 273 OFFCURVE",
"905 250 CURVE SMOOTH",
"846 231 OFFCURVE",
"791 222 OFFCURVE",
"742 222 CURVE SMOOTH",
"713 222 OFFCURVE",
"697 226 OFFCURVE",
"680 229 CURVE SMOOTH",
"667 232 OFFCURVE",
"655 235 OFFCURVE",
"646 240 CURVE",
"668 274 LINE SMOOTH",
"728 369 OFFCURVE",
"769 445 OFFCURVE",
"792 502 CURVE",
"824 602 LINE",
"914 597 OFFCURVE",
"988 583 OFFCURVE",
"1047 560 CURVE SMOOTH",
"1115 533 OFFCURVE",
"1149 499 OFFCURVE",
"1149 457 CURVE SMOOTH"
);
}
);
width = 1057;
}
);
note = P;
unicode = 0050;
},
{
glyphname = Q;
layers = (
{
hints = (
{
horizontal = 1;
place = "{-206, 33}";
type = Stem;
},
{
horizontal = 1;
place = "{-58, 20}";
type = Stem;
},
{
horizontal = 1;
place = "{46, 56}";
type = Stem;
},
{
horizontal = 1;
place = "{533, 23}";
type = Stem;
},
{
horizontal = 1;
place = "{615, 21}";
type = Stem;
},
{
place = "{24, 54}";
type = Stem;
},
{
place = "{759, 25}";
type = Stem;
},
{
place = "{801, 31}";
type = Stem;
}
);
layerId = "2B98CC2F-ACFB-4214-A552-9F7A1112B617";
paths = (
{
closed = 1;
nodes = (
"815 432 LINE SMOOTH",
"826 455 OFFCURVE",
"832 478 OFFCURVE",
"832 500 CURVE SMOOTH",
"832 539 OFFCURVE",
"815 571 OFFCURVE",
"781 596 CURVE SMOOTH",
"745 623 OFFCURVE",
"694 636 OFFCURVE",
"628 636 CURVE SMOOTH",
"615 636 OFFCURVE",
"601 635 OFFCURVE",
"588 634 CURVE SMOOTH",
"477 625 OFFCURVE",
"368 583 OFFCURVE",
"261 506 CURVE SMOOTH",
"165 437 OFFCURVE",
"100 365 OFFCURVE",
"65 288 CURVE SMOOTH",
"38 228 OFFCURVE",
"24 174 OFFCURVE",
"24 125 CURVE SMOOTH",
"24 62 OFFCURVE",
"45 14 OFFCURVE",
"88 -19 CURVE",
"86 -28 OFFCURVE",
"85 -39 OFFCURVE",
"86 -54 CURVE SMOOTH",
"87 -73 OFFCURVE",
"90 -82 OFFCURVE",
"97 -82 CURVE SMOOTH",
"102 -82 OFFCURVE",
"109 -67 OFFCURVE",
"118 -37 CURVE",
"143 -49 OFFCURVE",
"170 -56 OFFCURVE",
"201 -58 CURVE SMOOTH",
"266 -62 OFFCURVE",
"326 -58 OFFCURVE",
"381 -45 CURVE",
"532 -152 OFFCURVE",
"643 -206 OFFCURVE",
"712 -206 CURVE SMOOTH",
"755 -206 OFFCURVE",
"784 -184 OFFCURVE",
"784 -157 CURVE SMOOTH",
"784 -143 OFFCURVE",
"778 -130 OFFCURVE",
"766 -117 CURVE SMOOTH",
"755 -105 OFFCURVE",
"749 -103 OFFCURVE",
"749 -112 CURVE SMOOTH",
"749 -115 OFFCURVE",
"750 -118 OFFCURVE",
"752 -123 CURVE",
"757 -130 OFFCURVE",
"759 -137 OFFCURVE",
"759 -143 CURVE SMOOTH",
"759 -162 OFFCURVE",
"737 -173 OFFCURVE",
"717 -173 CURVE SMOOTH",
"670 -173 OFFCURVE",
"578 -124 OFFCURVE",
"443 -27 CURVE",
"528 1 OFFCURVE",
"608 49 OFFCURVE",
"684 117 CURVE SMOOTH",
"769 193 OFFCURVE",
"812 273 OFFCURVE",
"812 356 CURVE SMOOTH",
"812 375 OFFCURVE",
"809 394 OFFCURVE",
"804 411 CURVE"
);
},
{
closed = 1;
nodes = (
"763 492 OFFCURVE",
"714 526 OFFCURVE",
"644 543 CURVE SMOOTH",
"606 552 OFFCURVE",
"574 556 OFFCURVE",
"548 556 CURVE SMOOTH",
"519 556 OFFCURVE",
"489 551 OFFCURVE",
"458 541 CURVE",
"457 540 OFFCURVE",
"456 539 OFFCURVE",
"456 538 CURVE SMOOTH",
"456 536 OFFCURVE",
"474 534 OFFCURVE",
"509 533 CURVE SMOOTH",
"551 532 OFFCURVE",
"582 529 OFFCURVE",
"601 524 CURVE SMOOTH",
"638 513 OFFCURVE",
"670 496 OFFCURVE",
"697 472 CURVE SMOOTH",
"728 445 OFFCURVE",
"746 413 OFFCURVE",
"751 376 CURVE",
"728 348 OFFCURVE",
"693 314 OFFCURVE",
"646 273 CURVE SMOOTH",
"590 227 LINE SMOOTH",
"567 208 OFFCURVE",
"558 199 OFFCURVE",
"564 199 CURVE SMOOTH",
"565 199 OFFCURVE",
"568 200 OFFCURVE",
"572 201 CURVE",
"657 253 OFFCURVE",
"717 298 OFFCURVE",
"752 337 CURVE",
"745 268 OFFCURVE",
"699 195 OFFCURVE",
"614 120 CURVE SMOOTH",
"551 64 OFFCURVE",
"484 22 OFFCURVE",
"411 -5 CURVE",
"394 6 LINE SMOOTH",
"339 41 OFFCURVE",
"303 63 OFFCURVE",
"287 72 CURVE SMOOTH",
"250 92 OFFCURVE",
"219 102 OFFCURVE",
"194 102 CURVE SMOOTH",
"167 102 OFFCURVE",
"144 90 OFFCURVE",
"127 66 CURVE SMOOTH",
"117 52 OFFCURVE",
"108 36 OFFCURVE",
"100 17 CURVE",
"85 39 OFFCURVE",
"78 67 OFFCURVE",
"78 101 CURVE SMOOTH",
"78 155 OFFCURVE",
"96 217 OFFCURVE",
"133 286 CURVE SMOOTH",
"183 381 OFFCURVE",
"251 458 OFFCURVE",
"337 518 CURVE SMOOTH",
"430 583 OFFCURVE",
"526 615 OFFCURVE",
"627 615 CURVE SMOOTH",
"700 615 OFFCURVE",
"750 595 OFFCURVE",
"779 555 CURVE SMOOTH",
"794 534 OFFCURVE",
"801 513 OFFCURVE",
"801 490 CURVE SMOOTH",
"801 474 OFFCURVE",
"798 458 OFFCURVE",
"791 441 CURVE"
);
},
{
closed = 1;
nodes = (
"303 -35 OFFCURVE",
"256 -40 OFFCURVE",
"211 -38 CURVE SMOOTH",
"176 -37 OFFCURVE",
"148 -27 OFFCURVE",
"126 -10 CURVE",
"136 14 LINE SMOOTH",
"146 35 OFFCURVE",
"163 46 OFFCURVE",
"187 46 CURVE SMOOTH",
"219 46 OFFCURVE",
"273 23 OFFCURVE",
"350 -24 CURVE"
);
}
);
width = 797;
}
);
note = Q;
unicode = 0051;
},
{
glyphname = R;
layers = (
{
hints = (
{
horizontal = 1;
place = "{-112, 41}";
type = Stem;
},
{
horizontal = 1;
place = "{258, 23}";
type = Stem;
},
{
horizontal = 1;
place = "{602, 22}";
type = Stem;
},
{
place = "{-42, 28}";
type = Stem;
},
{
place = "{854, 58}";
type = Stem;
},
{
horizontal = 1;
place = "{270, 36}";
type = Stem;
},
{
horizontal = 1;
place = "{-74, 28}";
type = Stem;
},
{
horizontal = 1;
place = "{270, 226}";
type = Stem;
}
);
layerId = "2B98CC2F-ACFB-4214-A552-9F7A1112B617";
paths = (
{
closed = 1;
nodes = (
"908 431 OFFCURVE",
"912 447 OFFCURVE",
"912 464 CURVE SMOOTH",
"912 500 OFFCURVE",
"896 531 OFFCURVE",
"864 558 CURVE SMOOTH",
"830 586 OFFCURVE",
"783 605 OFFCURVE",
"722 614 CURVE SMOOTH",
"679 621 OFFCURVE",
"636 624 OFFCURVE",
"593 624 CURVE SMOOTH",
"457 624 OFFCURVE",
"340 594 OFFCURVE",
"243 533 CURVE SMOOTH",
"146 472 OFFCURVE",
"92 398 OFFCURVE",
"82 310 CURVE SMOOTH",
"78 275 OFFCURVE",
"103 258 OFFCURVE",
"157 258 CURVE SMOOTH",
"202 258 OFFCURVE",
"246 271 OFFCURVE",
"289 297 CURVE SMOOTH",
"332 323 OFFCURVE",
"361 355 OFFCURVE",
"374 393 CURVE SMOOTH",
"376 398 OFFCURVE",
"375 401 OFFCURVE",
"370 401 CURVE SMOOTH",
"366 401 OFFCURVE",
"362 397 OFFCURVE",
"357 388 CURVE SMOOTH",
"344 364 OFFCURVE",
"320 341 OFFCURVE",
"287 319 CURVE SMOOTH",
"248 294 OFFCURVE",
"213 281 OFFCURVE",
"181 281 CURVE SMOOTH",
"147 281 OFFCURVE",
"130 294 OFFCURVE",
"130 320 CURVE SMOOTH",
"130 401 OFFCURVE",
"191 470 OFFCURVE",
"312 529 CURVE SMOOTH",
"413 578 OFFCURVE",
"508 602 OFFCURVE",
"595 602 CURVE SMOOTH",
"634 602 OFFCURVE",
"673 599 OFFCURVE",
"712 592 CURVE SMOOTH",
"754 585 OFFCURVE",
"788 571 OFFCURVE",
"813 551 CURVE SMOOTH",
"840 529 OFFCURVE",
"854 503 OFFCURVE",
"854 474 CURVE SMOOTH",
"854 459 OFFCURVE",
"850 443 OFFCURVE",
"842 426 CURVE SMOOTH",
"803 346 OFFCURVE",
"706 306 OFFCURVE",
"552 306 CURVE SMOOTH",
"533 306 OFFCURVE",
"517 307 OFFCURVE",
"502 308 CURVE",
"591 431 OFFCURVE",
"645 488 OFFCURVE",
"662 477 CURVE SMOOTH",
"666 475 OFFCURVE",
"667 471 OFFCURVE",
"666 464 CURVE",
"662 459 OFFCURVE",
"660 455 OFFCURVE",
"660 452 CURVE SMOOTH",
"660 447 OFFCURVE",
"662 445 OFFCURVE",
"666 446 CURVE",
"674 446 OFFCURVE",
"681 462 OFFCURVE",
"681 474 CURVE SMOOTH",
"681 489 OFFCURVE",
"673 496 OFFCURVE",
"657 496 CURVE SMOOTH",
"639 496 OFFCURVE",
"606 471 OFFCURVE",
"557 421 CURVE SMOOTH",
"550 414 OFFCURVE",
"520 380 OFFCURVE",
"467 321 CURVE",
"446 336 OFFCURVE",
"430 341 OFFCURVE",
"418 338 CURVE SMOOTH",
"397 333 OFFCURVE",
"387 323 OFFCURVE",
"387 308 CURVE SMOOTH",
"387 297 OFFCURVE",
"394 291 OFFCURVE",
"408 291 CURVE SMOOTH",
"414 291 OFFCURVE",
"421 293 OFFCURVE",
"429 296 CURVE",
"445 290 LINE",
"438 285 OFFCURVE",
"431 277 OFFCURVE",
"423 266 CURVE SMOOTH",
"270 61 OFFCURVE",
"150 -43 OFFCURVE",
"65 -46 CURVE SMOOTH",
"12 -48 OFFCURVE",
"-14 -30 OFFCURVE",
"-14 7 CURVE SMOOTH",
"-14 47 OFFCURVE",
"20 101 OFFCURVE",
"67 138 CURVE SMOOTH",
"77 146 OFFCURVE",
"82 152 OFFCURVE",
"82 155 CURVE SMOOTH",
"82 156 OFFCURVE",
"81 157 OFFCURVE",
"78 157 CURVE SMOOTH",
"63 157 OFFCURVE",
"45 146 OFFCURVE",
"23 124 CURVE SMOOTH",
"6 107 OFFCURVE",
"-8 87 OFFCURVE",
"-21 62 CURVE SMOOTH",
"-35 35 OFFCURVE",
"-42 11 OFFCURVE",
"-42 -10 CURVE SMOOTH",
"-42 -53 OFFCURVE",
"-14 -74 OFFCURVE",
"43 -74 CURVE SMOOTH",
"50 -74 OFFCURVE",
"58 -74 OFFCURVE",
"67 -73 CURVE SMOOTH",
"139 -66 OFFCURVE",
"210 -29 OFFCURVE",
"280 39 CURVE SMOOTH",
"316 74 OFFCURVE",
"373 144 OFFCURVE",
"452 249 CURVE",
"448 234 OFFCURVE",
"458 186 OFFCURVE",
"483 105 CURVE SMOOTH",
"509 19 OFFCURVE",
"533 -37 OFFCURVE",
"556 -64 CURVE SMOOTH",
"583 -96 OFFCURVE",
"610 -112 OFFCURVE",
"638 -112 CURVE SMOOTH",
"669 -112 OFFCURVE",
"696 -94 OFFCURVE",
"721 -57 CURVE SMOOTH",
"743 -26 OFFCURVE",
"752 -2 OFFCURVE",
"748 15 CURVE SMOOTH",
"745 28 OFFCURVE",
"742 34 OFFCURVE",
"739 34 CURVE SMOOTH",
"735 34 OFFCURVE",
"731 27 OFFCURVE",
"728 14 CURVE",
"709 -43 OFFCURVE",
"686 -71 OFFCURVE",
"658 -71 CURVE SMOOTH",
"634 -71 OFFCURVE",
"609 -51 OFFCURVE",
"582 -12 CURVE SMOOTH",
"561 20 OFFCURVE",
"547 50 OFFCURVE",
"538 79 CURVE SMOOTH",
"507 186 OFFCURVE",
"487 253 OFFCURVE",
"479 278 CURVE",
"506 273 OFFCURVE",
"537 270 OFFCURVE",
"572 270 CURVE SMOOTH",
"643 270 OFFCURVE",
"708 281 OFFCURVE",
"766 302 CURVE SMOOTH",
"835 328 OFFCURVE",
"880 365 OFFCURVE",
"901 414 CURVE SMOOTH"
);
}
);
width = 752;
}
);
note = R;
unicode = 0052;
},
{
glyphname = S;
layers = (
{
hints = (
{
horizontal = 1;
place = "{-95, 58}";
type = Stem;
},
{
horizontal = 1;
place = "{597, 28}";
type = Stem;
},
{
place = "{-17, 37}";
type = Stem;
},
{
place = "{277, 59}";
type = Stem;
},
{
place = "{655, 66}";
type = Stem;
},
{
place = "{811, 41}";
type = Stem;
}
);
layerId = "2B98CC2F-ACFB-4214-A552-9F7A1112B617";
paths = (
{
closed = 1;
nodes = (
"832 594 OFFCURVE",
"756 625 OFFCURVE",
"657 625 CURVE SMOOTH",
"603 625 OFFCURVE",
"549 617 OFFCURVE",
"495 600 CURVE SMOOTH",
"438 583 OFFCURVE",
"390 559 OFFCURVE",
"352 528 CURVE SMOOTH",
"302 488 OFFCURVE",
"277 448 OFFCURVE",
"277 408 CURVE SMOOTH",
"277 356 OFFCURVE",
"324 313 OFFCURVE",
"396 296 CURVE SMOOTH",
"572 256 LINE",
"627 239 OFFCURVE",
"655 214 OFFCURVE",
"655 183 CURVE SMOOTH",
"655 167 OFFCURVE",
"649 149 OFFCURVE",
"636 128 CURVE SMOOTH",
"605 75 OFFCURVE",
"553 34 OFFCURVE",
"481 4 CURVE SMOOTH",
"416 -23 OFFCURVE",
"347 -37 OFFCURVE",
"274 -37 CURVE SMOOTH",
"241 -37 OFFCURVE",
"211 -34 OFFCURVE",
"183 -28 CURVE",
"159 -5 OFFCURVE",
"142 23 OFFCURVE",
"132 55 CURVE SMOOTH",
"128 68 OFFCURVE",
"122 112 OFFCURVE",
"113 185 CURVE SMOOTH",
"109 224 OFFCURVE",
"95 244 OFFCURVE",
"72 244 CURVE SMOOTH",
"41 244 OFFCURVE",
"16 226 OFFCURVE",
"-4 191 CURVE SMOOTH",
"-13 176 OFFCURVE",
"-17 160 OFFCURVE",
"-17 141 CURVE SMOOTH",
"-17 115 OFFCURVE",
"-9 88 OFFCURVE",
"6 59 CURVE SMOOTH",
"20 34 OFFCURVE",
"36 14 OFFCURVE",
"53 0 CURVE SMOOTH",
"79 -21 OFFCURVE",
"120 -37 OFFCURVE",
"177 -46 CURVE",
"218 -79 OFFCURVE",
"252 -95 OFFCURVE",
"279 -95 CURVE SMOOTH",
"293 -95 OFFCURVE",
"300 -92 OFFCURVE",
"300 -86 CURVE SMOOTH",
"300 -85 OFFCURVE",
"299 -83 OFFCURVE",
"296 -82 CURVE",
"297 -82 LINE SMOOTH",
"259 -73 OFFCURVE",
"231 -62 OFFCURVE",
"212 -51 CURVE",
"236 -54 OFFCURVE",
"261 -55 OFFCURVE",
"287 -55 CURVE SMOOTH",
"386 -55 OFFCURVE",
"474 -39 OFFCURVE",
"549 -6 CURVE SMOOTH",
"638 32 OFFCURVE",
"693 87 OFFCURVE",
"714 159 CURVE SMOOTH",
"719 176 OFFCURVE",
"721 191 OFFCURVE",
"721 204 CURVE SMOOTH",
"721 239 OFFCURVE",
"706 265 OFFCURVE",
"675 284 CURVE SMOOTH",
"652 299 OFFCURVE",
"617 311 OFFCURVE",
"569 320 CURVE SMOOTH",
"451 342 LINE SMOOTH",
"374 360 OFFCURVE",
"336 388 OFFCURVE",
"336 427 CURVE SMOOTH",
"336 452 OFFCURVE",
"353 481 OFFCURVE",
"388 513 CURVE SMOOTH",
"417 540 OFFCURVE",
"456 561 OFFCURVE",
"505 576 CURVE SMOOTH",
"551 590 OFFCURVE",
"598 597 OFFCURVE",
"645 597 CURVE SMOOTH",
"728 597 OFFCURVE",
"779 578 OFFCURVE",
"800 540 CURVE SMOOTH",
"807 526 OFFCURVE",
"811 512 OFFCURVE",
"811 498 CURVE SMOOTH",
"811 471 OFFCURVE",
"798 452 OFFCURVE",
"773 439 CURVE SMOOTH",
"766 436 OFFCURVE",
"752 433 OFFCURVE",
"729 432 CURVE SMOOTH",
"710 431 OFFCURVE",
"701 428 OFFCURVE",
"701 424 CURVE SMOOTH",
"701 422 OFFCURVE",
"702 420 OFFCURVE",
"703 419 CURVE SMOOTH",
"709 415 OFFCURVE",
"717 413 OFFCURVE",
"728 413 CURVE SMOOTH",
"745 413 OFFCURVE",
"766 418 OFFCURVE",
"791 428 CURVE SMOOTH",
"832 444 OFFCURVE",
"852 472 OFFCURVE",
"852 513 CURVE SMOOTH",
"852 520 OFFCURVE",
"851 528 OFFCURVE",
"849 535 CURVE SMOOTH"
);
},
{
closed = 1;
nodes = (
"116 -8 OFFCURVE",
"92 6 OFFCURVE",
"74 25 CURVE SMOOTH",
"38 62 OFFCURVE",
"20 106 OFFCURVE",
"20 157 CURVE SMOOTH",
"20 209 OFFCURVE",
"44 220 OFFCURVE",
"55 220 CURVE SMOOTH",
"62 220 OFFCURVE",
"67 202 OFFCURVE",
"72 167 CURVE SMOOTH",
"79 118 OFFCURVE",
"90 77 OFFCURVE",
"105 44 CURVE SMOOTH",
"116 21 OFFCURVE",
"130 1 OFFCURVE",
"147 -18 CURVE"
);
}
);
width = 748;
}
);
note = S;
unicode = 0053;
},
{
glyphname = T;
layers = (
{
hints = (
{
horizontal = 1;
place = "{-101, 21}";
target = up;
type = BottomGhost;
},
{
horizontal = 1;
place = "{117, 45}";
type = Stem;
},
{
horizontal = 1;
place = "{247, 24}";
type = Stem;
},
{
horizontal = 1;
place = "{441, 27}";
type = Stem;
},
{
horizontal = 1;
place = "{513, 28}";
type = Stem;
},
{
horizontal = 1;
place = "{674, 40}";
type = Stem;
},
{
place = "{18, 39}";
type = Stem;
},
{
horizontal = 1;
place = "{475, 54}";
type = Stem;
}
);
layerId = "2B98CC2F-ACFB-4214-A552-9F7A1112B617";
paths = (
{
closed = 1;
nodes = (
"1068 550 OFFCURVE",
"1077 566 OFFCURVE",
"1077 584 CURVE SMOOTH",
"1077 611 OFFCURVE",
"1052 638 OFFCURVE",
"1041 638 CURVE SMOOTH",
"1040 638 OFFCURVE",
"1039 637 OFFCURVE",
"1039 636 CURVE SMOOTH",
"1039 633 OFFCURVE",
"1041 629 OFFCURVE",
"1046 622 CURVE",
"1055 614 OFFCURVE",
"1059 605 OFFCURVE",
"1059 595 CURVE SMOOTH",
"1059 586 OFFCURVE",
"1055 576 OFFCURVE",
"1047 567 CURVE SMOOTH",
"1032 550 OFFCURVE",
"1009 541 OFFCURVE",
"978 541 CURVE SMOOTH",
"933 541 OFFCURVE",
"861 563 OFFCURVE",
"764 607 CURVE SMOOTH",
"650 660 OFFCURVE",
"586 688 OFFCURVE",
"572 691 CURVE SMOOTH",
"512 706 OFFCURVE",
"455 714 OFFCURVE",
"400 714 CURVE SMOOTH",
"285 714 OFFCURVE",
"190 682 OFFCURVE",
"116 617 CURVE SMOOTH",
"51 560 OFFCURVE",
"18 494 OFFCURVE",
"18 420 CURVE SMOOTH",
"18 359 OFFCURVE",
"43 312 OFFCURVE",
"92 281 CURVE",
"51 213 OFFCURVE",
"29 144 OFFCURVE",
"28 73 CURVE SMOOTH",
"27 14 OFFCURVE",
"37 -29 OFFCURVE",
"56 -56 CURVE SMOOTH",
"78 -86 OFFCURVE",
"116 -101 OFFCURVE",
"169 -101 CURVE SMOOTH",
"248 -101 OFFCURVE",
"329 -51 OFFCURVE",
"414 48 CURVE",
"613 326 LINE SMOOTH",
"685 425 OFFCURVE",
"744 475 OFFCURVE",
"790 475 CURVE SMOOTH",
"798 475 OFFCURVE",
"818 470 OFFCURVE",
"822 470 CURVE SMOOTH",
"828 470 OFFCURVE",
"831 473 OFFCURVE",
"832 480 CURVE SMOOTH",
"833 499 OFFCURVE",
"827 513 OFFCURVE",
"814 520 CURVE",
"776 529 LINE",
"721 526 OFFCURVE",
"658 471 OFFCURVE",
"585 365 CURVE SMOOTH",
"389 73 LINE",
"308 -31 OFFCURVE",
"231 -83 OFFCURVE",
"156 -83 CURVE SMOOTH",
"90 -83 OFFCURVE",
"57 -40 OFFCURVE",
"57 45 CURVE SMOOTH",
"57 112 OFFCURVE",
"83 184 OFFCURVE",
"134 262 CURVE",
"147 257 OFFCURVE",
"161 253 OFFCURVE",
"176 251 CURVE SMOOTH",
"194 248 OFFCURVE",
"213 247 OFFCURVE",
"234 247 CURVE SMOOTH",
"266 246 OFFCURVE",
"282 251 OFFCURVE",
"282 261 CURVE SMOOTH",
"282 266 OFFCURVE",
"267 270 OFFCURVE",
"238 271 CURVE SMOOTH",
"201 272 OFFCURVE",
"182 273 OFFCURVE",
"178 273 CURVE",
"165 276 OFFCURVE",
"154 278 OFFCURVE",
"147 281 CURVE",
"182 328 OFFCURVE",
"219 366 OFFCURVE",
"260 395 CURVE SMOOTH",
"303 426 OFFCURVE",
"344 441 OFFCURVE",
"381 441 CURVE SMOOTH",
"430 441 OFFCURVE",
"448 417 OFFCURVE",
"435 369 CURVE SMOOTH",
"424 324 OFFCURVE",
"394 279 OFFCURVE",
"346 234 CURVE SMOOTH",
"294 186 OFFCURVE",
"245 162 OFFCURVE",
"200 162 CURVE SMOOTH",
"169 162 OFFCURVE",
"154 167 OFFCURVE",
"154 177 CURVE SMOOTH",
"154 181 OFFCURVE",
"156 193 OFFCURVE",
"156 200 CURVE",
"140 204 OFFCURVE",
"127 184 OFFCURVE",
"127 163 CURVE SMOOTH",
"127 132 OFFCURVE",
"145 117 OFFCURVE",
"181 117 CURVE SMOOTH",
"237 117 OFFCURVE",
"298 150 OFFCURVE",
"363 215 CURVE SMOOTH",
"429 281 OFFCURVE",
"462 342 OFFCURVE",
"462 398 CURVE SMOOTH",
"462 445 OFFCURVE",
"432 468 OFFCURVE",
"372 468 CURVE SMOOTH",
"323 468 OFFCURVE",
"274 452 OFFCURVE",
"225 421 CURVE SMOOTH",
"179 392 OFFCURVE",
"139 352 OFFCURVE",
"105 302 CURVE",
"78 323 OFFCURVE",
"64 353 OFFCURVE",
"64 392 CURVE SMOOTH",
"64 420 OFFCURVE",
"71 451 OFFCURVE",
"85 484 CURVE SMOOTH",
"96 510 OFFCURVE",
"106 529 OFFCURVE",
"116 540 CURVE SMOOTH",
"195 629 OFFCURVE",
"304 674 OFFCURVE",
"442 674 CURVE SMOOTH",
"477 674 OFFCURVE",
"508 671 OFFCURVE",
"536 665 CURVE SMOOTH",
"564 660 OFFCURVE",
"634 631 OFFCURVE",
"745 580 CURVE SMOOTH",
"843 535 OFFCURVE",
"917 513 OFFCURVE",
"966 513 CURVE SMOOTH",
"999 513 OFFCURVE",
"1026 521 OFFCURVE",
"1049 537 CURVE SMOOTH"
);
}
);
width = 661;
}
);
note = T;
unicode = 0054;
},
{
glyphname = U;
layers = (
{
hints = (
{
horizontal = 1;
place = "{-19, 45}";
type = Stem;
},
{
horizontal = 1;
place = "{638, 23}";
type = Stem;
},
{
place = "{14, 33}";
type = Stem;
},
{
place = "{656, 42}";
type = Stem;
}
);
layerId = "2B98CC2F-ACFB-4214-A552-9F7A1112B617";
paths = (
{
closed = 1;
nodes = (
"969 550 OFFCURVE",
"970 553 OFFCURVE",
"970 556 CURVE SMOOTH",
"970 562 OFFCURVE",
"967 565 OFFCURVE",
"961 565 CURVE SMOOTH",
"946 565 OFFCURVE",
"925 549 OFFCURVE",
"900 517 CURVE SMOOTH",
"741 316 OFFCURVE",
"603 171 OFFCURVE",
"486 82 CURVE SMOOTH",
"437 45 OFFCURVE",
"403 26 OFFCURVE",
"385 26 CURVE SMOOTH",
"376 26 OFFCURVE",
"371 32 OFFCURVE",
"371 43 CURVE SMOOTH",
"371 66 OFFCURVE",
"391 112 OFFCURVE",
"432 181 CURVE SMOOTH",
"462 232 OFFCURVE",
"491 276 OFFCURVE",
"520 315 CURVE SMOOTH",
"589 409 OFFCURVE",
"634 472 OFFCURVE",
"654 504 CURVE SMOOTH",
"683 550 OFFCURVE",
"698 583 OFFCURVE",
"698 604 CURVE SMOOTH",
"698 625 OFFCURVE",
"686 640 OFFCURVE",
"662 650 CURVE SMOOTH",
"645 657 OFFCURVE",
"624 661 OFFCURVE",
"601 661 CURVE SMOOTH",
"557 661 OFFCURVE",
"506 650 OFFCURVE",
"447 627 CURVE SMOOTH",
"394 607 OFFCURVE",
"349 583 OFFCURVE",
"310 555 CURVE SMOOTH",
"113 414 OFFCURVE",
"14 291 OFFCURVE",
"14 186 CURVE SMOOTH",
"14 159 OFFCURVE",
"21 137 OFFCURVE",
"35 119 CURVE SMOOTH",
"46 104 OFFCURVE",
"60 95 OFFCURVE",
"76 92 CURVE SMOOTH",
"86 90 OFFCURVE",
"96 89 OFFCURVE",
"106 89 CURVE SMOOTH",
"148 89 OFFCURVE",
"191 102 OFFCURVE",
"234 128 CURVE SMOOTH",
"272 151 OFFCURVE",
"297 174 OFFCURVE",
"310 199 CURVE",
"292 193 LINE",
"265 169 OFFCURVE",
"242 151 OFFCURVE",
"224 140 CURVE SMOOTH",
"188 118 OFFCURVE",
"153 107 OFFCURVE",
"119 107 CURVE SMOOTH",
"108 107 OFFCURVE",
"98 108 OFFCURVE",
"87 110 CURVE SMOOTH",
"60 115 OFFCURVE",
"47 134 OFFCURVE",
"47 166 CURVE SMOOTH",
"47 211 OFFCURVE",
"71 268 OFFCURVE",
"119 337 CURVE SMOOTH",
"170 409 OFFCURVE",
"233 470 OFFCURVE",
"306 521 CURVE SMOOTH",
"420 599 OFFCURVE",
"514 638 OFFCURVE",
"587 638 CURVE SMOOTH",
"608 638 OFFCURVE",
"626 635 OFFCURVE",
"643 628 CURVE SMOOTH",
"652 625 OFFCURVE",
"656 618 OFFCURVE",
"656 607 CURVE SMOOTH",
"656 584 OFFCURVE",
"636 542 OFFCURVE",
"595 479 CURVE SMOOTH",
"575 448 OFFCURVE",
"526 378 OFFCURVE",
"447 267 CURVE SMOOTH",
"344 122 OFFCURVE",
"296 34 OFFCURVE",
"303 4 CURVE SMOOTH",
"307 -11 OFFCURVE",
"321 -19 OFFCURVE",
"345 -19 CURVE SMOOTH",
"386 -19 OFFCURVE",
"432 0 OFFCURVE",
"481 38 CURVE SMOOTH",
"498 51 OFFCURVE",
"538 89 OFFCURVE",
"599 150 CURVE SMOOTH",
"632 183 OFFCURVE",
"691 242 OFFCURVE",
"776 329 CURVE SMOOTH",
"808 364 OFFCURVE",
"829 388 OFFCURVE",
"839 400 CURVE",
"764 289 OFFCURVE",
"702 190 OFFCURVE",
"654 101 CURVE SMOOTH",
"627 52 OFFCURVE",
"614 22 OFFCURVE",
"614 9 CURVE SMOOTH",
"614 -4 OFFCURVE",
"623 -10 OFFCURVE",
"640 -10 CURVE SMOOTH",
"662 -10 OFFCURVE",
"697 10 OFFCURVE",
"744 51 CURVE",
"762 70 OFFCURVE",
"771 83 OFFCURVE",
"771 89 CURVE SMOOTH",
"771 90 OFFCURVE",
"770 90 OFFCURVE",
"769 91 CURVE",
"767 91 OFFCURVE",
"762 88 OFFCURVE",
"753 81 CURVE SMOOTH",
"742 70 OFFCURVE",
"727 57 OFFCURVE",
"709 44 CURVE SMOOTH",
"694 33 OFFCURVE",
"679 23 OFFCURVE",
"666 16 CURVE",
"648 10 LINE",
"645 21 OFFCURVE",
"665 62 OFFCURVE",
"707 132 CURVE SMOOTH",
"742 191 OFFCURVE",
"782 252 OFFCURVE",
"826 316 CURVE SMOOTH",
"944 483 LINE SMOOTH",
"962 510 OFFCURVE",
"970 531 OFFCURVE",
"967 546 CURVE"
);
}
);
width = 801;
}
);
note = U;
unicode = 0055;
},
{
glyphname = V;
layers = (
{
hints = (
{
horizontal = 1;
place = "{658, 32}";
type = Stem;
},
{
place = "{-19, 38}";
type = Stem;
},
{
horizontal = 1;
place = "{638, 21}";
target = up;
type = BottomGhost;
},
{
horizontal = 1;
place = "{691, -20}";
target = down;
type = TopGhost;
}
);
layerId = "2B98CC2F-ACFB-4214-A552-9F7A1112B617";
paths = (
{
closed = 1;
nodes = (
"1180 658 OFFCURVE",
"1197 649 OFFCURVE",
"1201 649 CURVE SMOOTH",
"1207 649 OFFCURVE",
"1210 653 OFFCURVE",
"1210 662 CURVE SMOOTH",
"1210 680 OFFCURVE",
"1201 689 OFFCURVE",
"1183 690 CURVE SMOOTH",
"1176 691 OFFCURVE",
"1169 691 OFFCURVE",
"1162 691 CURVE SMOOTH",
"1128 691 OFFCURVE",
"1090 680 OFFCURVE",
"1048 657 CURVE SMOOTH",
"1025 644 OFFCURVE",
"988 619 OFFCURVE",
"937 581 CURVE SMOOTH",
"880 540 OFFCURVE",
"781 434 OFFCURVE",
"638 263 CURVE SMOOTH",
"499 96 OFFCURVE",
"420 6 OFFCURVE",
"403 -5 CURVE",
"400 -6 OFFCURVE",
"398 -5 OFFCURVE",
"398 0 CURVE SMOOTH",
"398 17 OFFCURVE",
"430 96 OFFCURVE",
"494 237 CURVE SMOOTH",
"554 369 OFFCURVE",
"582 466 OFFCURVE",
"578 528 CURVE SMOOTH",
"575 571 OFFCURVE",
"557 604 OFFCURVE",
"523 627 CURVE SMOOTH",
"492 648 OFFCURVE",
"451 659 OFFCURVE",
"401 659 CURVE SMOOTH",
"332 659 OFFCURVE",
"263 640 OFFCURVE",
"194 603 CURVE SMOOTH",
"119 562 OFFCURVE",
"62 508 OFFCURVE",
"23 440 CURVE SMOOTH",
"-5 391 OFFCURVE",
"-19 341 OFFCURVE",
"-19 289 CURVE SMOOTH",
"-19 216 OFFCURVE",
"8 165 OFFCURVE",
"62 136 CURVE SMOOTH",
"87 123 OFFCURVE",
"114 116 OFFCURVE",
"141 116 CURVE SMOOTH",
"184 116 OFFCURVE",
"222 131 OFFCURVE",
"255 160 CURVE SMOOTH",
"288 189 OFFCURVE",
"304 220 OFFCURVE",
"304 253 CURVE SMOOTH",
"304 259 OFFCURVE",
"303 265 OFFCURVE",
"302 270 CURVE SMOOTH",
"301 281 OFFCURVE",
"297 286 OFFCURVE",
"290 286 CURVE SMOOTH",
"283 286 OFFCURVE",
"281 282 OFFCURVE",
"284 274 CURVE",
"285 268 OFFCURVE",
"285 262 OFFCURVE",
"285 257 CURVE SMOOTH",
"285 222 OFFCURVE",
"272 193 OFFCURVE",
"245 170 CURVE SMOOTH",
"219 147 OFFCURVE",
"188 135 OFFCURVE",
"153 135 CURVE SMOOTH",
"136 135 OFFCURVE",
"119 138 OFFCURVE",
"102 144 CURVE SMOOTH",
"81 152 OFFCURVE",
"63 166 OFFCURVE",
"48 187 CURVE SMOOTH",
"29 213 OFFCURVE",
"19 244 OFFCURVE",
"19 281 CURVE SMOOTH",
"19 326 OFFCURVE",
"33 376 OFFCURVE",
"62 431 CURVE SMOOTH",
"95 495 OFFCURVE",
"143 546 OFFCURVE",
"204 585 CURVE SMOOTH",
"261 620 OFFCURVE",
"318 638 OFFCURVE",
"374 638 CURVE SMOOTH",
"417 638 OFFCURVE",
"452 627 OFFCURVE",
"478 604 CURVE SMOOTH",
"506 579 OFFCURVE",
"520 544 OFFCURVE",
"520 497 CURVE SMOOTH",
"520 476 OFFCURVE",
"512 443 OFFCURVE",
"496 398 CURVE SMOOTH",
"450 263 LINE",
"428 211 OFFCURVE",
"406 159 OFFCURVE",
"383 107 CURVE SMOOTH",
"346 18 OFFCURVE",
"327 -38 OFFCURVE",
"327 -61 CURVE SMOOTH",
"327 -66 OFFCURVE",
"328 -69 OFFCURVE",
"329 -71 CURVE",
"333 -74 OFFCURVE",
"364 -58 OFFCURVE",
"421 -25 CURVE SMOOTH",
"437 -16 OFFCURVE",
"483 37 OFFCURVE",
"558 132 CURVE SMOOTH",
"654 253 OFFCURVE",
"731 344 OFFCURVE",
"788 405 CURVE SMOOTH",
"888 512 OFFCURVE",
"977 586 OFFCURVE",
"1054 627 CURVE SMOOTH",
"1093 648 OFFCURVE",
"1130 658 OFFCURVE",
"1165 658 CURVE SMOOTH"
);
}
);
width = 690;
}
);
note = V;
unicode = 0056;
},
{
glyphname = W;
layers = (
{
hints = (
{
horizontal = 1;
place = "{535, 70}";
type = Stem;
},
{
horizontal = 1;
place = "{609, 28}";
type = Stem;
},
{
place = "{15, 57}";
type = Stem;
},
{
place = "{585, 55}";
type = Stem;
},
{
place = "{1153, 41}";
type = Stem;
}
);
layerId = "2B98CC2F-ACFB-4214-A552-9F7A1112B617";
paths = (
{
closed = 1;
nodes = (
"1251 551 OFFCURVE",
"1257 558 OFFCURVE",
"1257 565 CURVE SMOOTH",
"1257 569 OFFCURVE",
"1254 571 OFFCURVE",
"1249 571 CURVE SMOOTH",
"1242 571 OFFCURVE",
"1233 567 OFFCURVE",
"1222 559 CURVE SMOOTH",
"1211 551 OFFCURVE",
"1202 547 OFFCURVE",
"1195 547 CURVE SMOOTH",
"1186 547 OFFCURVE",
"1179 550 OFFCURVE",
"1175 556 CURVE",
"1176 559 OFFCURVE",
"1173 563 OFFCURVE",
"1168 568 CURVE SMOOTH",
"1161 575 OFFCURVE",
"1155 582 OFFCURVE",
"1152 588 CURVE SMOOTH",
"1146 599 OFFCURVE",
"1137 605 OFFCURVE",
"1124 605 CURVE SMOOTH",
"1107 605 OFFCURVE",
"1091 593 OFFCURVE",
"1091 577 CURVE SMOOTH",
"1091 568 OFFCURVE",
"1096 560 OFFCURVE",
"1106 552 CURVE",
"1106 553 LINE",
"1121 538 OFFCURVE",
"1136 530 OFFCURVE",
"1151 530 CURVE",
"1152 525 OFFCURVE",
"1153 518 OFFCURVE",
"1153 510 CURVE SMOOTH",
"1153 467 OFFCURVE",
"1135 411 OFFCURVE",
"1100 341 CURVE SMOOTH",
"1055 252 OFFCURVE",
"994 168 OFFCURVE",
"917 90 CURVE SMOOTH",
"832 3 OFFCURVE",
"759 -40 OFFCURVE",
"700 -40 CURVE SMOOTH",
"691 -40 OFFCURVE",
"682 -39 OFFCURVE",
"673 -36 CURVE SMOOTH",
"614 -19 OFFCURVE",
"620 61 OFFCURVE",
"690 206 CURVE SMOOTH",
"743 315 OFFCURVE",
"800 408 OFFCURVE",
"862 485 CURVE",
"856 494 OFFCURVE",
"843 499 OFFCURVE",
"824 499 CURVE SMOOTH",
"810 499 OFFCURVE",
"799 496 OFFCURVE",
"791 491 CURVE SMOOTH",
"753 466 OFFCURVE",
"721 440 OFFCURVE",
"694 415 CURVE SMOOTH",
"641 364 OFFCURVE",
"601 326 OFFCURVE",
"573 301 CURVE SMOOTH",
"515 250 OFFCURVE",
"448 183 OFFCURVE",
"372 98 CURVE SMOOTH",
"310 29 OFFCURVE",
"278 -5 OFFCURVE",
"276 -5 CURVE SMOOTH",
"277 -5 OFFCURVE",
"307 35 OFFCURVE",
"368 116 CURVE SMOOTH",
"441 213 OFFCURVE",
"500 297 OFFCURVE",
"545 368 CURVE SMOOTH",
"608 470 OFFCURVE",
"640 542 OFFCURVE",
"640 585 CURVE SMOOTH",
"640 620 OFFCURVE",
"614 637 OFFCURVE",
"561 637 CURVE SMOOTH",
"517 637 OFFCURVE",
"463 624 OFFCURVE",
"398 599 CURVE SMOOTH",
"342 577 OFFCURVE",
"294 552 OFFCURVE",
"254 525 CURVE SMOOTH",
"187 480 OFFCURVE",
"131 429 OFFCURVE",
"86 372 CURVE SMOOTH",
"39 313 OFFCURVE",
"15 263 OFFCURVE",
"15 222 CURVE SMOOTH",
"15 179 OFFCURVE",
"42 153 OFFCURVE",
"95 142 CURVE SMOOTH",
"96 142 LINE SMOOTH",
"101 141 OFFCURVE",
"108 141 OFFCURVE",
"115 141 CURVE SMOOTH",
"152 141 OFFCURVE",
"194 153 OFFCURVE",
"241 176 CURVE SMOOTH",
"288 199 OFFCURVE",
"314 223 OFFCURVE",
"321 248 CURVE SMOOTH",
"322 253 OFFCURVE",
"321 255 OFFCURVE",
"318 255 CURVE SMOOTH",
"316 255 OFFCURVE",
"306 248 OFFCURVE",
"288 233 CURVE SMOOTH",
"267 215 OFFCURVE",
"247 201 OFFCURVE",
"230 192 CURVE SMOOTH",
"202 177 OFFCURVE",
"174 169 OFFCURVE",
"146 169 CURVE SMOOTH",
"135 169 OFFCURVE",
"123 170 OFFCURVE",
"112 173 CURVE SMOOTH",
"85 179 OFFCURVE",
"72 196 OFFCURVE",
"72 225 CURVE SMOOTH",
"72 262 OFFCURVE",
"92 308 OFFCURVE",
"132 363 CURVE SMOOTH",
"173 418 OFFCURVE",
"221 466 OFFCURVE",
"278 505 CURVE SMOOTH",
"379 574 OFFCURVE",
"458 609 OFFCURVE",
"515 609 CURVE SMOOTH",
"542 609 OFFCURVE",
"585 602 OFFCURVE",
"585 571 CURVE SMOOTH",
"585 526 OFFCURVE",
"527 417 OFFCURVE",
"410 245 CURVE SMOOTH",
"217 -33 LINE",
"205 -56 OFFCURVE",
"199 -74 OFFCURVE",
"199 -89 CURVE SMOOTH",
"199 -106 OFFCURVE",
"206 -113 OFFCURVE",
"219 -112 CURVE SMOOTH",
"233 -111 OFFCURVE",
"249 -100 OFFCURVE",
"266 -80 CURVE SMOOTH",
"382 62 LINE SMOOTH",
"458 153 OFFCURVE",
"513 216 OFFCURVE",
"547 249 CURVE SMOOTH",
"577 278 OFFCURVE",
"608 306 OFFCURVE",
"641 333 CURVE SMOOTH",
"739 409 LINE",
"667 252 LINE SMOOTH",
"624 157 OFFCURVE",
"603 85 OFFCURVE",
"603 35 CURVE SMOOTH",
"603 -14 OFFCURVE",
"622 -44 OFFCURVE",
"661 -55 CURVE SMOOTH",
"734 -76 OFFCURVE",
"820 -44 OFFCURVE",
"921 41 CURVE SMOOTH",
"1002 108 OFFCURVE",
"1067 184 OFFCURVE",
"1118 269 CURVE SMOOTH",
"1169 354 OFFCURVE",
"1194 423 OFFCURVE",
"1194 476 CURVE SMOOTH",
"1194 489 OFFCURVE",
"1190 508 OFFCURVE",
"1182 535 CURVE",
"1214 535 LINE",
"1223 536 OFFCURVE",
"1231 539 OFFCURVE",
"1238 544 CURVE SMOOTH"
);
},
{
closed = 1;
nodes = (
"1210 534 OFFCURVE",
"1212 534 OFFCURVE",
"1214 535 CURVE",
"1216 535 OFFCURVE",
"1214 534 OFFCURVE",
"1207 534 CURVE SMOOTH"
);
}
);
width = 1135;
}
);
note = W;
unicode = 0057;
},
{
glyphname = X;
layers = (
{
hints = (
{
place = "{-167, 33}";
type = Stem;
},
{
place = "{440, 54}";
type = Stem;
},
{
place = "{534, 46}";
type = Stem;
},
{
place = "{440, 232}";
type = Stem;
}
);
layerId = "2B98CC2F-ACFB-4214-A552-9F7A1112B617";
paths = (
{
closed = 1;
nodes = (
"1025 643 OFFCURVE",
"1033 646 OFFCURVE",
"1033 652 CURVE SMOOTH",
"1033 658 OFFCURVE",
"1027 664 OFFCURVE",
"1014 669 CURVE SMOOTH",
"1003 674 OFFCURVE",
"981 671 OFFCURVE",
"946 661 CURVE SMOOTH",
"919 653 OFFCURVE",
"864 618 OFFCURVE",
"781 555 CURVE SMOOTH",
"711 502 OFFCURVE",
"640 444 OFFCURVE",
"569 381 CURVE",
"576 418 OFFCURVE",
"580 451 OFFCURVE",
"580 480 CURVE SMOOTH",
"580 561 OFFCURVE",
"553 610 OFFCURVE",
"500 627 CURVE SMOOTH",
"483 632 OFFCURVE",
"464 634 OFFCURVE",
"444 634 CURVE SMOOTH",
"365 634 OFFCURVE",
"289 604 OFFCURVE",
"214 543 CURVE SMOOTH",
"133 477 OFFCURVE",
"89 400 OFFCURVE",
"81 311 CURVE SMOOTH",
"78 282 OFFCURVE",
"86 259 OFFCURVE",
"103 244 CURVE SMOOTH",
"118 231 OFFCURVE",
"139 224 OFFCURVE",
"165 224 CURVE SMOOTH",
"208 224 OFFCURVE",
"243 237 OFFCURVE",
"270 264 CURVE SMOOTH",
"277 271 OFFCURVE",
"279 275 OFFCURVE",
"278 276 CURVE",
"278 276 OFFCURVE",
"278 277 OFFCURVE",
"277 277 CURVE",
"279 276 OFFCURVE",
"274 273 OFFCURVE",
"265 267 CURVE SMOOTH",
"234 248 OFFCURVE",
"208 238 OFFCURVE",
"186 238 CURVE SMOOTH",
"147 238 OFFCURVE",
"128 263 OFFCURVE",
"128 313 CURVE SMOOTH",
"128 366 OFFCURVE",
"149 421 OFFCURVE",
"191 478 CURVE SMOOTH",
"240 543 OFFCURVE",
"302 588 OFFCURVE",
"379 612 CURVE SMOOTH",
"401 619 OFFCURVE",
"421 622 OFFCURVE",
"440 622 CURVE SMOOTH",
"463 622 OFFCURVE",
"483 617 OFFCURVE",
"498 607 CURVE SMOOTH",
"522 591 OFFCURVE",
"534 554 OFFCURVE",
"534 496 CURVE SMOOTH",
"534 449 OFFCURVE",
"526 392 OFFCURVE",
"511 327 CURVE",
"495 313 LINE SMOOTH",
"397 224 OFFCURVE",
"302 146 OFFCURVE",
"210 80 CURVE SMOOTH",
"86 -9 OFFCURVE",
"-2 -53 OFFCURVE",
"-55 -53 CURVE SMOOTH",
"-81 -53 OFFCURVE",
"-101 -42 OFFCURVE",
"-116 -21 CURVE SMOOTH",
"-128 -2 OFFCURVE",
"-134 21 OFFCURVE",
"-134 49 CURVE SMOOTH",
"-134 99 OFFCURVE",
"-116 153 OFFCURVE",
"-79 212 CURVE SMOOTH",
"-74 219 OFFCURVE",
"-72 225 OFFCURVE",
"-72 230 CURVE SMOOTH",
"-72 233 OFFCURVE",
"-73 235 OFFCURVE",
"-76 235 CURVE SMOOTH",
"-85 235 OFFCURVE",
"-96 223 OFFCURVE",
"-110 200 CURVE SMOOTH",
"-148 137 OFFCURVE",
"-167 78 OFFCURVE",
"-167 25 CURVE SMOOTH",
"-167 -35 OFFCURVE",
"-141 -68 OFFCURVE",
"-89 -75 CURVE SMOOTH",
"-44 -81 OFFCURVE",
"23 -60 OFFCURVE",
"110 -13 CURVE SMOOTH",
"219 46 OFFCURVE",
"348 140 OFFCURVE",
"497 271 CURVE",
"486 227 LINE SMOOTH",
"455 112 OFFCURVE",
"440 41 OFFCURVE",
"440 14 CURVE SMOOTH",
"440 -18 OFFCURVE",
"451 -34 OFFCURVE",
"473 -34 CURVE SMOOTH",
"479 -34 OFFCURVE",
"486 -33 OFFCURVE",
"495 -30 CURVE SMOOTH",
"519 -23 OFFCURVE",
"553 -2 OFFCURVE",
"597 31 CURVE SMOOTH",
"647 68 OFFCURVE",
"672 96 OFFCURVE",
"672 116 CURVE SMOOTH",
"672 123 OFFCURVE",
"666 121 OFFCURVE",
"655 110 CURVE SMOOTH",
"586 42 OFFCURVE",
"538 8 OFFCURVE",
"511 8 CURVE SMOOTH",
"500 8 OFFCURVE",
"494 18 OFFCURVE",
"494 37 CURVE SMOOTH",
"494 73 OFFCURVE",
"508 144 OFFCURVE",
"537 249 CURVE SMOOTH",
"546 281 OFFCURVE",
"553 304 OFFCURVE",
"558 318 CURVE",
"617 377 OFFCURVE",
"686 439 OFFCURVE",
"764 502 CURVE SMOOTH",
"883 598 OFFCURVE",
"965 645 OFFCURVE",
"1008 644 CURVE SMOOTH"
);
}
);
width = 640;
}
);
note = X;
unicode = 0058;
},
{
glyphname = Y;
layers = (
{
hints = (
{
horizontal = 1;
place = "{-254, 21}";
target = up;
type = BottomGhost;
},
{
horizontal = 1;
place = "{4, 45}";
type = Stem;
},
{
horizontal = 1;
place = "{154, 32}";
type = Stem;
},
{
horizontal = 1;
place = "{662, -20}";
target = down;
type = TopGhost;
},
{
place = "{14, 40}";
type = Stem;
}
);
layerId = "2B98CC2F-ACFB-4214-A552-9F7A1112B617";
paths = (
{
closed = 1;
nodes = (
"949 543 OFFCURVE",
"950 545 OFFCURVE",
"950 548 CURVE SMOOTH",
"950 555 OFFCURVE",
"945 558 OFFCURVE",
"934 558 CURVE SMOOTH",
"903 558 OFFCURVE",
"874 538 OFFCURVE",
"847 499 CURVE SMOOTH",
"810 444 OFFCURVE",
"753 377 OFFCURVE",
"676 299 CURVE SMOOTH",
"589 210 OFFCURVE",
"505 137 OFFCURVE",
"425 80 CURVE SMOOTH",
"396 59 OFFCURVE",
"375 49 OFFCURVE",
"360 49 CURVE SMOOTH",
"346 49 OFFCURVE",
"339 58 OFFCURVE",
"339 76 CURVE SMOOTH",
"339 95 OFFCURVE",
"346 119 OFFCURVE",
"360 150 CURVE SMOOTH",
"374 181 OFFCURVE",
"389 206 OFFCURVE",
"406 226 CURVE SMOOTH",
"488 325 OFFCURVE",
"546 401 OFFCURVE",
"580 453 CURVE SMOOTH",
"619 513 OFFCURVE",
"639 559 OFFCURVE",
"639 590 CURVE SMOOTH",
"639 614 OFFCURVE",
"628 632 OFFCURVE",
"607 645 CURVE SMOOTH",
"588 656 OFFCURVE",
"563 662 OFFCURVE",
"531 662 CURVE SMOOTH",
"483 662 OFFCURVE",
"427 650 OFFCURVE",
"362 627 CURVE SMOOTH",
"302 605 OFFCURVE",
"252 580 OFFCURVE",
"213 552 CURVE SMOOTH",
"80 457 OFFCURVE",
"14 364 OFFCURVE",
"14 274 CURVE SMOOTH",
"14 243 OFFCURVE",
"23 215 OFFCURVE",
"40 192 CURVE SMOOTH",
"55 171 OFFCURVE",
"73 159 OFFCURVE",
"93 156 CURVE SMOOTH",
"102 155 OFFCURVE",
"111 154 OFFCURVE",
"120 154 CURVE SMOOTH",
"165 154 OFFCURVE",
"212 170 OFFCURVE",
"262 201 CURVE SMOOTH",
"307 230 OFFCURVE",
"334 257 OFFCURVE",
"341 282 CURVE",
"335 280 OFFCURVE",
"308 263 OFFCURVE",
"259 230 CURVE SMOOTH",
"218 201 OFFCURVE",
"180 186 OFFCURVE",
"146 186 CURVE SMOOTH",
"134 186 OFFCURVE",
"122 188 OFFCURVE",
"111 191 CURVE SMOOTH",
"73 201 OFFCURVE",
"54 227 OFFCURVE",
"54 269 CURVE SMOOTH",
"54 306 OFFCURVE",
"69 347 OFFCURVE",
"99 392 CURVE SMOOTH",
"130 440 OFFCURVE",
"172 482 OFFCURVE",
"224 517 CURVE SMOOTH",
"348 602 OFFCURVE",
"446 645 OFFCURVE",
"517 645 CURVE SMOOTH",
"542 645 OFFCURVE",
"564 640 OFFCURVE",
"583 630 CURVE SMOOTH",
"606 618 OFFCURVE",
"601 583 OFFCURVE",
"568 524 CURVE SMOOTH",
"543 481 OFFCURVE",
"504 426 OFFCURVE",
"449 357 CURVE SMOOTH",
"416 316 OFFCURVE",
"382 276 OFFCURVE",
"349 236 CURVE SMOOTH",
"304 180 OFFCURVE",
"281 125 OFFCURVE",
"281 71 CURVE SMOOTH",
"281 26 OFFCURVE",
"300 4 OFFCURVE",
"338 4 CURVE SMOOTH",
"364 4 OFFCURVE",
"397 16 OFFCURVE",
"437 40 CURVE SMOOTH",
"457 52 OFFCURVE",
"494 85 OFFCURVE",
"549 140 CURVE SMOOTH",
"575 166 OFFCURVE",
"631 224 OFFCURVE",
"717 314 CURVE SMOOTH",
"821 425 LINE",
"641 104 LINE SMOOTH",
"518 -128 OFFCURVE",
"414 -240 OFFCURVE",
"331 -232 CURVE SMOOTH",
"308 -230 OFFCURVE",
"291 -221 OFFCURVE",
"281 -205 CURVE SMOOTH",
"276 -196 OFFCURVE",
"269 -177 OFFCURVE",
"261 -148 CURVE",
"256 -147 OFFCURVE",
"251 -146 OFFCURVE",
"246 -146 CURVE SMOOTH",
"232 -146 OFFCURVE",
"225 -153 OFFCURVE",
"225 -167 CURVE SMOOTH",
"225 -190 OFFCURVE",
"238 -210 OFFCURVE",
"264 -229 CURVE SMOOTH",
"287 -246 OFFCURVE",
"311 -254 OFFCURVE",
"336 -254 CURVE SMOOTH",
"375 -254 OFFCURVE",
"418 -238 OFFCURVE",
"463 -205 CURVE SMOOTH",
"514 -168 OFFCURVE",
"562 -114 OFFCURVE",
"605 -44 CURVE SMOOTH",
"763 221 OFFCURVE",
"877 416 OFFCURVE",
"948 540 CURVE"
);
}
);
width = 882;
}
);
note = Y;
unicode = 0059;
},
{
glyphname = Z;
layers = (
{
hints = (
{
horizontal = 1;
place = "{-118, 21}";
target = up;
type = BottomGhost;
},
{
horizontal = 1;
place = "{-19, 77}";
type = Stem;
},
{
horizontal = 1;
place = "{615, -20}";
target = down;
type = TopGhost;
},
{
horizontal = 1;
place = "{581, 31}";
type = Stem;
},
{
horizontal = 1;
place = "{14, 44}";
type = Stem;
}
);
layerId = "2B98CC2F-ACFB-4214-A552-9F7A1112B617";
paths = (
{
closed = 1;
nodes = (
"930 533 OFFCURVE",
"941 541 OFFCURVE",
"941 558 CURVE SMOOTH",
"941 574 OFFCURVE",
"925 596 OFFCURVE",
"918 596 CURVE SMOOTH",
"916 596 OFFCURVE",
"915 594 OFFCURVE",
"916 591 CURVE SMOOTH",
"920 570 OFFCURVE",
"906 563 OFFCURVE",
"875 566 CURVE SMOOTH",
"836 569 LINE",
"863 584 OFFCURVE",
"880 593 OFFCURVE",
"887 598 CURVE",
"893 600 OFFCURVE",
"896 602 OFFCURVE",
"896 605 CURVE SMOOTH",
"896 612 OFFCURVE",
"884 615 OFFCURVE",
"859 615 CURVE SMOOTH",
"848 615 OFFCURVE",
"840 614 OFFCURVE",
"834 611 CURVE SMOOTH",
"779 581 LINE",
"756 586 OFFCURVE",
"740 589 OFFCURVE",
"729 590 CURVE",
"646 605 OFFCURVE",
"557 612 OFFCURVE",
"461 612 CURVE SMOOTH",
"392 612 OFFCURVE",
"340 607 OFFCURVE",
"305 597 CURVE SMOOTH",
"236 577 OFFCURVE",
"195 546 OFFCURVE",
"182 503 CURVE SMOOTH",
"179 493 OFFCURVE",
"177 483 OFFCURVE",
"177 474 CURVE SMOOTH",
"177 447 OFFCURVE",
"190 426 OFFCURVE",
"205 426 CURVE SMOOTH",
"212 426 OFFCURVE",
"221 425 OFFCURVE",
"216 448 CURVE SMOOTH",
"213 462 OFFCURVE",
"215 475 OFFCURVE",
"222 487 CURVE SMOOTH",
"232 503 OFFCURVE",
"251 518 OFFCURVE",
"280 533 CURVE SMOOTH",
"299 542 OFFCURVE",
"314 548 OFFCURVE",
"327 551 CURVE",
"382 571 OFFCURVE",
"451 581 OFFCURVE",
"536 581 CURVE SMOOTH",
"600 581 OFFCURVE",
"656 576 OFFCURVE",
"705 565 CURVE SMOOTH",
"735 559 LINE",
"420 386 OFFCURVE",
"178 211 OFFCURVE",
"10 36 CURVE",
"-16 40 OFFCURVE",
"-30 45 OFFCURVE",
"-33 50 CURVE SMOOTH",
"-34 51 OFFCURVE",
"-35 52 OFFCURVE",
"-37 52 CURVE SMOOTH",
"-45 52 OFFCURVE",
"-55 46 OFFCURVE",
"-66 35 CURVE SMOOTH",
"-77 24 OFFCURVE",
"-82 13 OFFCURVE",
"-81 2 CURVE SMOOTH",
"-80 -9 OFFCURVE",
"-67 -15 OFFCURVE",
"-44 -16 CURVE",
"-48 -23 OFFCURVE",
"-50 -27 OFFCURVE",
"-50 -30 CURVE SMOOTH",
"-50 -32 OFFCURVE",
"-49 -33 OFFCURVE",
"-48 -33 CURVE SMOOTH",
"-45 -33 OFFCURVE",
"-38 -28 OFFCURVE",
"-28 -19 CURVE",
"17 -20 OFFCURVE",
"81 -14 OFFCURVE",
"162 -2 CURVE SMOOTH",
"243 10 OFFCURVE",
"307 15 OFFCURVE",
"354 14 CURVE SMOOTH",
"414 13 OFFCURVE",
"473 4 OFFCURVE",
"532 -13 CURVE SMOOTH",
"597 -31 OFFCURVE",
"629 -50 OFFCURVE",
"629 -71 CURVE SMOOTH",
"629 -77 OFFCURVE",
"626 -83 OFFCURVE",
"619 -89 CURVE SMOOTH",
"610 -97 OFFCURVE",
"606 -105 OFFCURVE",
"606 -113 CURVE SMOOTH",
"606 -116 OFFCURVE",
"608 -118 OFFCURVE",
"611 -118 CURVE SMOOTH",
"620 -118 OFFCURVE",
"638 -106 OFFCURVE",
"663 -83 CURVE SMOOTH",
"682 -64 OFFCURVE",
"692 -47 OFFCURVE",
"692 -30 CURVE SMOOTH",
"692 22 OFFCURVE",
"592 58 OFFCURVE",
"423 58 CURVE SMOOTH",
"406 58 OFFCURVE",
"389 58 OFFCURVE",
"371 57 CURVE SMOOTH",
"243 46 OFFCURVE",
"139 35 OFFCURVE",
"60 26 CURVE",
"153 113 OFFCURVE",
"280 211 OFFCURVE",
"441 322 CURVE SMOOTH",
"574 413 OFFCURVE",
"694 488 OFFCURVE",
"801 549 CURVE",
"871 538 OFFCURVE",
"907 533 OFFCURVE",
"908 533 CURVE SMOOTH"
);
}
);
width = 739;
}
);
note = Z;
unicode = 005A;
},
{
glyphname = bracketleft;
layers = (
{
hints = (
{
horizontal = 1;
place = "{-17, 26}";
type = Stem;
},
{
horizontal = 1;
place = "{687, 31}";
type = Stem;
},
{
place = "{48, 39}";
type = Stem;
}
);
layerId = "2B98CC2F-ACFB-4214-A552-9F7A1112B617";
paths = (
{
closed = 1;
nodes = (
"573 711 OFFCURVE",
"539 718 OFFCURVE",
"472 718 CURVE SMOOTH",
"445 718 OFFCURVE",
"397 712 OFFCURVE",
"380 701 CURVE SMOOTH",
"315 656 OFFCURVE",
"239 551 OFFCURVE",
"152 386 CURVE SMOOTH",
"66 221 OFFCURVE",
"23 98 OFFCURVE",
"23 19 CURVE SMOOTH",
"23 -5 OFFCURVE",
"84 -17 OFFCURVE",
"156 -17 CURVE SMOOTH",
"231 -17 OFFCURVE",
"268 -12 OFFCURVE",
"268 -3 CURVE SMOOTH",
"268 5 OFFCURVE",
"258 9 OFFCURVE",
"239 9 CURVE SMOOTH",
"223 9 OFFCURVE",
"181 4 OFFCURVE",
"164 4 CURVE SMOOTH",
"113 4 OFFCURVE",
"87 23 OFFCURVE",
"87 60 CURVE SMOOTH",
"87 120 OFFCURVE",
"123 217 OFFCURVE",
"196 351 CURVE SMOOTH",
"259 468 OFFCURVE",
"317 557 OFFCURVE",
"370 620 CURVE SMOOTH",
"396 651 OFFCURVE",
"416 671 OFFCURVE",
"431 680 CURVE SMOOTH",
"439 685 OFFCURVE",
"457 687 OFFCURVE",
"486 687 CURVE SMOOTH",
"502 687 OFFCURVE",
"542 683 OFFCURVE",
"558 683 CURVE SMOOTH",
"563 683 OFFCURVE",
"568 683 OFFCURVE",
"572 684 CURVE",
"573 693 OFFCURVE",
"573 697 OFFCURVE",
"573 697 CURVE"
);
}
);
width = 585;
}
);
note = bracketleft;
unicode = 005B;
},
{
glyphname = backslash;
layers = (
{
hints = (
{
horizontal = 1;
place = "{-124, 21}";
target = up;
type = BottomGhost;
},
{
horizontal = 1;
place = "{715, -20}";
target = down;
type = TopGhost;
},
{
place = "{497, 26}";
type = Stem;
},
{
horizontal = 1;
place = "{-116, 21}";
target = up;
type = BottomGhost;
},
{
horizontal = 1;
place = "{698, -20}";
target = down;
type = TopGhost;
}
);
layerId = "2B98CC2F-ACFB-4214-A552-9F7A1112B617";
paths = (
{
closed = 1;
nodes = (
"27 683 OFFCURVE",
"28 673 OFFCURVE",
"39 660 CURVE SMOOTH",
"130 555 OFFCURVE",
"228 432 OFFCURVE",
"335 289 CURVE SMOOTH",
"461 120 OFFCURVE",
"534 8 OFFCURVE",
"555 -48 CURVE SMOOTH",
"559 -60 OFFCURVE",
"561 -71 OFFCURVE",
"561 -80 CURVE SMOOTH",
"561 -93 OFFCURVE",
"557 -101 OFFCURVE",
"550 -105 CURVE",
"547 -106 OFFCURVE",
"547 -109 OFFCURVE",
"550 -114 CURVE SMOOTH",
"555 -121 OFFCURVE",
"562 -124 OFFCURVE",
"571 -124 CURVE SMOOTH",
"582 -124 OFFCURVE",
"588 -114 OFFCURVE",
"588 -95 CURVE SMOOTH",
"588 -71 OFFCURVE",
"581 -39 OFFCURVE",
"566 2 CURVE SMOOTH",
"545 59 OFFCURVE",
"458 190 OFFCURVE",
"305 396 CURVE SMOOTH",
"154 597 OFFCURVE",
"70 698 OFFCURVE",
"54 698 CURVE SMOOTH",
"47 698 OFFCURVE",
"40 695 OFFCURVE",
"35 690 CURVE SMOOTH"
);
}
);
width = 551;
}
);
note = backslash;
unicode = 005C;
},
{
glyphname = bracketright;
layers = (
{
hints = (
{
horizontal = 1;
place = "{-17, 25}";
type = Stem;
},
{
horizontal = 1;
place = "{687, 29}";
type = Stem;
},
{
place = "{499, 39}";
type = Stem;
}
);
layerId = "2B98CC2F-ACFB-4214-A552-9F7A1112B617";
paths = (
{
closed = 1;
nodes = (
"23 -10 OFFCURVE",
"57 -17 OFFCURVE",
"124 -17 CURVE SMOOTH",
"151 -17 OFFCURVE",
"199 -11 OFFCURVE",
"216 0 CURVE SMOOTH",
"281 45 OFFCURVE",
"357 150 OFFCURVE",
"444 315 CURVE SMOOTH",
"530 480 OFFCURVE",
"573 603 OFFCURVE",
"573 682 CURVE SMOOTH",
"573 706 OFFCURVE",
"512 718 OFFCURVE",
"440 718 CURVE SMOOTH",
"365 718 OFFCURVE",
"328 713 OFFCURVE",
"328 704 CURVE SMOOTH",
"328 696 OFFCURVE",
"338 692 OFFCURVE",
"357 692 CURVE SMOOTH",
"373 692 OFFCURVE",
"415 697 OFFCURVE",
"432 697 CURVE SMOOTH",
"483 697 OFFCURVE",
"509 678 OFFCURVE",
"509 641 CURVE SMOOTH",
"509 581 OFFCURVE",
"473 484 OFFCURVE",
"400 350 CURVE SMOOTH",
"337 233 OFFCURVE",
"279 144 OFFCURVE",
"226 81 CURVE SMOOTH",
"200 50 OFFCURVE",
"180 30 OFFCURVE",
"165 21 CURVE SMOOTH",
"157 16 OFFCURVE",
"139 14 OFFCURVE",
"110 14 CURVE SMOOTH",
"94 14 OFFCURVE",
"54 18 OFFCURVE",
"38 18 CURVE SMOOTH",
"33 18 OFFCURVE",
"28 18 OFFCURVE",
"24 17 CURVE",
"23 8 OFFCURVE",
"23 4 OFFCURVE",
"23 4 CURVE"
);
}
);
width = 556;
}
);
note = bracketright;
unicode = 005D;
},
{
glyphname = asciicircum;
layers = (
{
hints = (
{
horizontal = 1;
place = "{324, 21}";
target = up;
type = BottomGhost;
},
{
horizontal = 1;
place = "{451, -20}";
target = down;
type = TopGhost;
}
);
layerId = "2B98CC2F-ACFB-4214-A552-9F7A1112B617";
paths = (
{
closed = 1;
nodes = (
"336 331 LINE",
"331 341 LINE",
"274 384 OFFCURVE",
"232 420 OFFCURVE",
"206 449 CURVE",
"200 451 LINE",
"191 450 OFFCURVE",
"166 432 OFFCURVE",
"125 398 CURVE SMOOTH",
"84 365 OFFCURVE",
"64 345 OFFCURVE",
"64 338 CURVE SMOOTH",
"64 331 OFFCURVE",
"67 328 OFFCURVE",
"72 328 CURVE SMOOTH",
"81 328 OFFCURVE",
"119 356 OFFCURVE",
"186 412 CURVE",
"198 399 OFFCURVE",
"222 382 OFFCURVE",
"257 359 CURVE SMOOTH",
"293 336 OFFCURVE",
"318 325 OFFCURVE",
"332 324 CURVE"
);
}
);
width = 370;
}
);
note = asciicircum;
unicode = 005E;
},
{
glyphname = underscore;
layers = (
{
hints = (
{
horizontal = 1;
place = "{-70, 45}";
type = Stem;
},
{
horizontal = 1;
place = "{-73, 21}";
target = up;
type = BottomGhost;
}
);
layerId = "2B98CC2F-ACFB-4214-A552-9F7A1112B617";
paths = (
{
closed = 1;
nodes = (
"793 -53 LINE",
"791 -34 OFFCURVE",
"782 -25 OFFCURVE",
"765 -25 CURVE SMOOTH",
"25 -25 LINE SMOOTH",
"14 -25 OFFCURVE",
"8 -31 OFFCURVE",
"8 -44 CURVE SMOOTH",
"8 -63 OFFCURVE",
"14 -73 OFFCURVE",
"25 -73 CURVE SMOOTH",
"50 -73 OFFCURVE",
"82 -72 OFFCURVE",
"122 -70 CURVE SMOOTH",
"171 -68 OFFCURVE",
"204 -67 OFFCURVE",
"219 -67 CURVE SMOOTH",
"410 -62 OFFCURVE",
"599 -60 OFFCURVE",
"786 -60 CURVE"
);
}
);
width = 806;
}
);
note = underscore;
unicode = 005F;
},
{
glyphname = grave;
layers = (
{
hints = (
{
horizontal = 1;
place = "{300, 21}";
target = up;
type = BottomGhost;
},
{
horizontal = 1;
place = "{402, -20}";
target = down;
type = TopGhost;
}
);
layerId = "2B98CC2F-ACFB-4214-A552-9F7A1112B617";
paths = (
{
closed = 1;
nodes = (
"173 308 OFFCURVE",
"172 310 OFFCURVE",
"169 312 CURVE SMOOTH",
"125 348 OFFCURVE",
"90 375 OFFCURVE",
"64 394 CURVE SMOOTH",
"57 399 OFFCURVE",
"51 402 OFFCURVE",
"47 402 CURVE SMOOTH",
"40 402 OFFCURVE",
"37 398 OFFCURVE",
"37 389 CURVE SMOOTH",
"37 381 OFFCURVE",
"40 375 OFFCURVE",
"46 371 CURVE SMOOTH",
"53 365 OFFCURVE",
"74 352 OFFCURVE",
"109 331 CURVE SMOOTH",
"144 310 OFFCURVE",
"163 300 OFFCURVE",
"166 300 CURVE SMOOTH",
"171 300 OFFCURVE",
"173 302 OFFCURVE",
"173 305 CURVE SMOOTH"
);
}
);
width = 221;
}
);
note = grave;
unicode = 0060;
},
{
glyphname = a;
layers = (
{
hints = (
{
horizontal = 1;
place = "{-5, 31}";
type = Stem;
},
{
horizontal = 1;
place = "{304, 37}";
type = Stem;
}
);
layerId = "2B98CC2F-ACFB-4214-A552-9F7A1112B617";
paths = (
{
closed = 1;
nodes = (
"474 183 OFFCURVE",
"477 190 OFFCURVE",
"477 195 CURVE SMOOTH",
"477 200 OFFCURVE",
"475 202 OFFCURVE",
"472 202 CURVE SMOOTH",
"470 202 OFFCURVE",
"468 201 OFFCURVE",
"466 198 CURVE SMOOTH",
"374 83 OFFCURVE",
"311 26 OFFCURVE",
"276 26 CURVE SMOOTH",
"264 26 OFFCURVE",
"257 34 OFFCURVE",
"254 49 CURVE SMOOTH",
"250 72 OFFCURVE",
"270 115 OFFCURVE",
"313 178 CURVE SMOOTH",
"356 242 OFFCURVE",
"378 275 OFFCURVE",
"377 277 CURVE",
"376 286 OFFCURVE",
"362 302 OFFCURVE",
"346 302 CURVE SMOOTH",
"341 302 OFFCURVE",
"337 299 OFFCURVE",
"332 299 CURVE SMOOTH",
"329 299 OFFCURVE",
"325 321 OFFCURVE",
"316 330 CURVE SMOOTH",
"308 337 OFFCURVE",
"296 341 OFFCURVE",
"280 341 CURVE SMOOTH",
"224 341 OFFCURVE",
"160 306 OFFCURVE",
"89 235 CURVE SMOOTH",
"18 165 OFFCURVE",
"-15 104 OFFCURVE",
"-8 52 CURVE SMOOTH",
"-4 21 OFFCURVE",
"35 -5 OFFCURVE",
"67 -5 CURVE SMOOTH",
"85 -5 OFFCURVE",
"114 12 OFFCURVE",
"154 47 CURVE SMOOTH",
"216 107 LINE",
"213 94 OFFCURVE",
"212 83 OFFCURVE",
"212 73 CURVE SMOOTH",
"212 40 OFFCURVE",
"227 18 OFFCURVE",
"256 7 CURVE SMOOTH",
"261 5 OFFCURVE",
"267 4 OFFCURVE",
"273 4 CURVE SMOOTH",
"318 4 OFFCURVE",
"383 61 OFFCURVE",
"468 175 CURVE SMOOTH"
);
},
{
closed = 1;
nodes = (
"216 144 LINE",
"149 59 OFFCURVE",
"96 17 OFFCURVE",
"58 17 CURVE SMOOTH",
"45 17 OFFCURVE",
"37 25 OFFCURVE",
"34 41 CURVE SMOOTH",
"27 84 OFFCURVE",
"59 139 OFFCURVE",
"131 206 CURVE SMOOTH",
"200 271 OFFCURVE",
"255 304 OFFCURVE",
"296 304 CURVE SMOOTH",
"309 304 OFFCURVE",
"317 299 OFFCURVE",
"322 290 CURVE"
);
}
);
width = 412;
}
);
note = a;
unicode = 0061;
},
{
glyphname = b;
layers = (
{
hints = (
{
horizontal = 1;
place = "{-1, 29}";
type = Stem;
},
{
horizontal = 1;
place = "{101, 22}";
type = Stem;
},
{
horizontal = 1;
place = "{480, -20}";
target = down;
type = TopGhost;
},
{
place = "{-5, 49}";
type = Stem;
},
{
place = "{228, 68}";
type = Stem;
}
);
layerId = "2B98CC2F-ACFB-4214-A552-9F7A1112B617";
paths = (
{
closed = 1;
nodes = (
"398 145 OFFCURVE",
"401 150 OFFCURVE",
"401 155 CURVE SMOOTH",
"400 160 OFFCURVE",
"398 162 OFFCURVE",
"395 162 CURVE SMOOTH",
"391 162 OFFCURVE",
"387 160 OFFCURVE",
"383 155 CURVE SMOOTH",
"364 134 OFFCURVE",
"347 123 OFFCURVE",
"332 123 CURVE SMOOTH",
"316 123 OFFCURVE",
"302 133 OFFCURVE",
"291 154 CURVE SMOOTH",
"284 168 OFFCURVE",
"279 181 OFFCURVE",
"277 193 CURVE",
"280 206 OFFCURVE",
"284 219 OFFCURVE",
"288 232 CURVE SMOOTH",
"293 254 OFFCURVE",
"296 272 OFFCURVE",
"296 285 CURVE SMOOTH",
"296 304 OFFCURVE",
"290 314 OFFCURVE",
"279 316 CURVE SMOOTH",
"245 321 OFFCURVE",
"228 299 OFFCURVE",
"228 249 CURVE SMOOTH",
"228 229 OFFCURVE",
"230 212 OFFCURVE",
"235 197 CURVE",
"228 170 OFFCURVE",
"208 136 OFFCURVE",
"175 96 CURVE SMOOTH",
"136 51 OFFCURVE",
"102 28 OFFCURVE",
"72 28 CURVE SMOOTH",
"63 28 OFFCURVE",
"55 33 OFFCURVE",
"50 44 CURVE SMOOTH",
"46 52 OFFCURVE",
"44 60 OFFCURVE",
"44 68 CURVE SMOOTH",
"44 99 OFFCURVE",
"68 147 OFFCURVE",
"117 214 CURVE SMOOTH",
"152 261 OFFCURVE",
"197 314 OFFCURVE",
"253 375 CURVE SMOOTH",
"302 428 OFFCURVE",
"326 454 OFFCURVE",
"326 453 CURVE SMOOTH",
"326 469 OFFCURVE",
"308 480 OFFCURVE",
"292 480 CURVE SMOOTH",
"251 480 OFFCURVE",
"190 423 OFFCURVE",
"111 309 CURVE SMOOTH",
"34 198 OFFCURVE",
"-5 122 OFFCURVE",
"-5 79 CURVE SMOOTH",
"-5 26 OFFCURVE",
"13 -1 OFFCURVE",
"48 -1 CURVE SMOOTH",
"85 -1 OFFCURVE",
"123 17 OFFCURVE",
"162 53 CURVE SMOOTH",
"199 86 OFFCURVE",
"228 126 OFFCURVE",
"249 173 CURVE",
"269 125 OFFCURVE",
"295 101 OFFCURVE",
"328 101 CURVE SMOOTH",
"351 101 OFFCURVE",
"372 113 OFFCURVE",
"393 138 CURVE SMOOTH"
);
}
);
width = 365;
}
);
note = b;
unicode = 0062;
},
{
glyphname = c;
layers = (
{
hints = (
{
horizontal = 1;
place = "{-13, 20}";
type = Stem;
},
{
horizontal = 1;
place = "{201, 115}";
type = Stem;
}
);
layerId = "2B98CC2F-ACFB-4214-A552-9F7A1112B617";
paths = (
{
closed = 1;
nodes = (
"342 178 OFFCURVE",
"342 183 OFFCURVE",
"333 183 CURVE SMOOTH",
"328 183 OFFCURVE",
"324 181 OFFCURVE",
"321 177 CURVE SMOOTH",
"295 142 OFFCURVE",
"260 107 OFFCURVE",
"215 72 CURVE SMOOTH",
"161 29 OFFCURVE",
"117 7 OFFCURVE",
"83 7 CURVE SMOOTH",
"52 7 OFFCURVE",
"31 31 OFFCURVE",
"36 62 CURVE SMOOTH",
"41 87 OFFCURVE",
"47 106 OFFCURVE",
"54 117 CURVE SMOOTH",
"93 174 LINE SMOOTH",
"106 192 OFFCURVE",
"128 212 OFFCURVE",
"158 235 CURVE SMOOTH",
"191 260 OFFCURVE",
"217 274 OFFCURVE",
"236 276 CURVE SMOOTH",
"238 276 OFFCURVE",
"239 275 OFFCURVE",
"239 274 CURVE SMOOTH",
"239 273 OFFCURVE",
"234 265 OFFCURVE",
"225 250 CURVE SMOOTH",
"216 235 OFFCURVE",
"212 224 OFFCURVE",
"212 217 CURVE SMOOTH",
"212 206 OFFCURVE",
"221 201 OFFCURVE",
"238 201 CURVE SMOOTH",
"255 201 OFFCURVE",
"269 210 OFFCURVE",
"278 227 CURVE SMOOTH",
"286 241 OFFCURVE",
"290 256 OFFCURVE",
"290 273 CURVE SMOOTH",
"290 297 OFFCURVE",
"270 316 OFFCURVE",
"238 316 CURVE SMOOTH",
"191 316 OFFCURVE",
"138 285 OFFCURVE",
"79 224 CURVE SMOOTH",
"21 163 OFFCURVE",
"-8 109 OFFCURVE",
"-8 62 CURVE SMOOTH",
"-8 26 OFFCURVE",
"13 2 OFFCURVE",
"56 -10 CURVE SMOOTH",
"62 -12 OFFCURVE",
"69 -13 OFFCURVE",
"76 -13 CURVE SMOOTH",
"111 -13 OFFCURVE",
"154 6 OFFCURVE",
"206 43 CURVE SMOOTH",
"255 78 OFFCURVE",
"298 120 OFFCURVE",
"335 169 CURVE SMOOTH"
);
}
);
width = 283;
}
);
note = c;
unicode = 0063;
},
{
glyphname = d;
layers = (
{
hints = (
{
horizontal = 1;
place = "{-5, 25}";
type = Stem;
},
{
horizontal = 1;
place = "{304, 37}";
type = Stem;
}
);
layerId = "2B98CC2F-ACFB-4214-A552-9F7A1112B617";
paths = (
{
closed = 1;
nodes = (
"514 459 OFFCURVE",
"516 463 OFFCURVE",
"516 467 CURVE SMOOTH",
"516 480 OFFCURVE",
"488 488 OFFCURVE",
"476 484 CURVE SMOOTH",
"447 475 OFFCURVE",
"397 415 OFFCURVE",
"328 303 CURVE",
"324 316 OFFCURVE",
"321 323 OFFCURVE",
"319 326 CURVE SMOOTH",
"312 336 OFFCURVE",
"299 341 OFFCURVE",
"280 341 CURVE SMOOTH",
"224 341 OFFCURVE",
"160 306 OFFCURVE",
"89 235 CURVE SMOOTH",
"18 165 OFFCURVE",
"-15 104 OFFCURVE",
"-8 52 CURVE SMOOTH",
"-4 20 OFFCURVE",
"27 -5 OFFCURVE",
"67 -5 CURVE SMOOTH",
"88 -5 OFFCURVE",
"118 12 OFFCURVE",
"155 46 CURVE SMOOTH",
"236 127 LINE",
"215 77 OFFCURVE",
"220 -3 OFFCURVE",
"287 -3 CURVE SMOOTH",
"292 -3 OFFCURVE",
"296 -3 OFFCURVE",
"301 -2 CURVE SMOOTH",
"324 2 OFFCURVE",
"359 16 OFFCURVE",
"405 51 CURVE SMOOTH",
"448 84 OFFCURVE",
"482 123 OFFCURVE",
"507 153 CURVE SMOOTH",
"511 158 OFFCURVE",
"513 161 OFFCURVE",
"513 164 CURVE SMOOTH",
"513 167 OFFCURVE",
"510 169 OFFCURVE",
"504 168 CURVE SMOOTH",
"499 167 OFFCURVE",
"494 162 OFFCURVE",
"489 157 CURVE SMOOTH",
"404 59 OFFCURVE",
"340 20 OFFCURVE",
"296 20 CURVE SMOOTH",
"245 20 OFFCURVE",
"258 92 OFFCURVE",
"270 121 CURVE SMOOTH",
"287 163 OFFCURVE",
"326 224 OFFCURVE",
"392 307 CURVE SMOOTH",
"431 356 OFFCURVE",
"471 405 OFFCURVE",
"511 454 CURVE"
);
},
{
closed = 1;
nodes = (
"247 193 OFFCURVE",
"208 143 OFFCURVE",
"201 135 CURVE SMOOTH",
"134 56 OFFCURVE",
"87 17 OFFCURVE",
"58 17 CURVE SMOOTH",
"45 17 OFFCURVE",
"37 25 OFFCURVE",
"34 41 CURVE SMOOTH",
"27 84 OFFCURVE",
"59 139 OFFCURVE",
"131 206 CURVE SMOOTH",
"200 271 OFFCURVE",
"256 304 OFFCURVE",
"297 304 CURVE SMOOTH",
"308 304 OFFCURVE",
"316 300 OFFCURVE",
"321 292 CURVE"
);
}
);
width = 467;
}
);
note = d;
unicode = 0064;
},
{
glyphname = e;
layers = (
{
hints = (
{
horizontal = 1;
place = "{-13, 21}";
type = Stem;
},
{
horizontal = 1;
place = "{115, 22}";
type = Stem;
},
{
horizontal = 1;
place = "{287, 29}";
type = Stem;
},
{
place = "{-33, 47}";
type = Stem;
}
);
layerId = "2B98CC2F-ACFB-4214-A552-9F7A1112B617";
paths = (
{
closed = 1;
nodes = (
"315 175 OFFCURVE",
"318 180 OFFCURVE",
"318 185 CURVE SMOOTH",
"318 189 OFFCURVE",
"316 191 OFFCURVE",
"312 191 CURVE SMOOTH",
"307 191 OFFCURVE",
"302 187 OFFCURVE",
"296 179 CURVE SMOOTH",
"267 142 OFFCURVE",
"233 108 OFFCURVE",
"192 75 CURVE SMOOTH",
"139 30 OFFCURVE",
"96 8 OFFCURVE",
"63 8 CURVE SMOOTH",
"30 8 OFFCURVE",
"14 25 OFFCURVE",
"14 60 CURVE SMOOTH",
"14 80 OFFCURVE",
"19 99 OFFCURVE",
"29 117 CURVE",
"32 116 OFFCURVE",
"37 115 OFFCURVE",
"43 115 CURVE SMOOTH",
"78 115 OFFCURVE",
"123 131 OFFCURVE",
"176 163 CURVE SMOOTH",
"235 199 OFFCURVE",
"265 236 OFFCURVE",
"265 273 CURVE SMOOTH",
"265 297 OFFCURVE",
"244 316 OFFCURVE",
"213 316 CURVE SMOOTH",
"166 316 OFFCURVE",
"113 285 OFFCURVE",
"54 224 CURVE SMOOTH",
"-4 163 OFFCURVE",
"-33 109 OFFCURVE",
"-33 62 CURVE SMOOTH",
"-33 26 OFFCURVE",
"-12 2 OFFCURVE",
"31 -10 CURVE SMOOTH",
"37 -12 OFFCURVE",
"44 -13 OFFCURVE",
"51 -13 CURVE SMOOTH",
"86 -13 OFFCURVE",
"130 6 OFFCURVE",
"181 43 CURVE SMOOTH",
"230 78 OFFCURVE",
"273 119 OFFCURVE",
"310 168 CURVE SMOOTH"
);
},
{
closed = 1;
nodes = (
"227 234 OFFCURVE",
"200 204 OFFCURVE",
"156 175 CURVE SMOOTH",
"116 150 OFFCURVE",
"83 137 OFFCURVE",
"57 137 CURVE SMOOTH",
"52 137 OFFCURVE",
"47 138 OFFCURVE",
"44 139 CURVE",
"52 152 OFFCURVE",
"60 163 OFFCURVE",
"68 174 CURVE SMOOTH",
"85 196 OFFCURVE",
"107 219 OFFCURVE",
"135 242 CURVE SMOOTH",
"171 272 OFFCURVE",
"199 287 OFFCURVE",
"219 287 CURVE SMOOTH",
"236 287 OFFCURVE",
"243 280 OFFCURVE",
"238 266 CURVE SMOOTH"
);
}
);
width = 257;
}
);
note = e;
unicode = 0065;
},
{
glyphname = f;
layers = (
{
hints = (
{
horizontal = 1;
place = "{-205, 30}";
type = Stem;
},
{
horizontal = 1;
place = "{276, 46}";
type = Stem;
},
{
horizontal = 1;
place = "{540, -20}";
target = down;
type = TopGhost;
}
);
layerId = "2B98CC2F-ACFB-4214-A552-9F7A1112B617";
paths = (
{
closed = 1;
nodes = (
"379 530 OFFCURVE",
"358 540 OFFCURVE",
"337 540 CURVE SMOOTH",
"282 540 OFFCURVE",
"222 467 OFFCURVE",
"157 322 CURVE",
"92 323 OFFCURVE",
"60 324 OFFCURVE",
"63 324 CURVE SMOOTH",
"58 324 OFFCURVE",
"53 322 OFFCURVE",
"48 318 CURVE SMOOTH",
"41 313 OFFCURVE",
"37 307 OFFCURVE",
"37 300 CURVE SMOOTH",
"37 285 OFFCURVE",
"70 277 OFFCURVE",
"137 276 CURVE",
"83 146 LINE SMOOTH",
"36 39 OFFCURVE",
"-1 -33 OFFCURVE",
"-26 -70 CURVE SMOOTH",
"-73 -140 OFFCURVE",
"-125 -175 OFFCURVE",
"-181 -175 CURVE SMOOTH",
"-191 -175 OFFCURVE",
"-201 -170 OFFCURVE",
"-211 -160 CURVE SMOOTH",
"-231 -140 OFFCURVE",
"-226 -114 OFFCURVE",
"-234 -114 CURVE SMOOTH",
"-238 -114 OFFCURVE",
"-241 -118 OFFCURVE",
"-243 -126 CURVE",
"-242 -165 OFFCURVE",
"-210 -205 OFFCURVE",
"-170 -205 CURVE SMOOTH",
"-115 -205 OFFCURVE",
"-58 -164 OFFCURVE",
"0 -81 CURVE SMOOTH",
"16 -58 OFFCURVE",
"56 11 OFFCURVE",
"119 128 CURVE SMOOTH",
"151 191 OFFCURVE",
"176 242 OFFCURVE",
"194 280 CURVE",
"231 287 OFFCURVE",
"267 293 OFFCURVE",
"304 299 CURVE SMOOTH",
"351 308 OFFCURVE",
"375 316 OFFCURVE",
"375 321 CURVE SMOOTH",
"375 322 OFFCURVE",
"374 324 OFFCURVE",
"371 325 CURVE",
"347 323 OFFCURVE",
"299 322 OFFCURVE",
"226 322 CURVE SMOOTH",
"214 322 LINE",
"239 370 OFFCURVE",
"255 401 OFFCURVE",
"264 416 CURVE SMOOTH",
"273 431 OFFCURVE",
"290 455 OFFCURVE",
"309 468 CURVE SMOOTH",
"328 482 OFFCURVE",
"335 482 OFFCURVE",
"350 482 CURVE SMOOTH",
"361 482 OFFCURVE",
"375 475 OFFCURVE",
"380 466 CURVE SMOOTH",
"383 461 OFFCURVE",
"386 458 OFFCURVE",
"390 458 CURVE SMOOTH",
"402 458 OFFCURVE",
"408 468 OFFCURVE",
"408 489 CURVE SMOOTH",
"408 498 OFFCURVE",
"405 505 OFFCURVE",
"400 510 CURVE SMOOTH"
);
}
);
width = 242;
}
);
note = f;
unicode = 0066;
},
{
glyphname = g;
layers = (
{
hints = (
{
horizontal = 1;
place = "{-205, 30}";
type = Stem;
},
{
horizontal = 1;
place = "{0, 23}";
type = Stem;
},
{
horizontal = 1;
place = "{310, 36}";
type = Stem;
}
);
layerId = "2B98CC2F-ACFB-4214-A552-9F7A1112B617";
paths = (
{
closed = 1;
nodes = (
"379 293 OFFCURVE",
"365 308 OFFCURVE",
"348 308 CURVE SMOOTH",
"343 308 OFFCURVE",
"339 305 OFFCURVE",
"334 305 CURVE SMOOTH",
"331 305 OFFCURVE",
"327 327 OFFCURVE",
"318 335 CURVE SMOOTH",
"310 342 OFFCURVE",
"298 346 OFFCURVE",
"282 346 CURVE SMOOTH",
"226 346 OFFCURVE",
"162 311 OFFCURVE",
"91 241 CURVE SMOOTH",
"20 171 OFFCURVE",
"-13 110 OFFCURVE",
"-6 58 CURVE SMOOTH",
"-2 27 OFFCURVE",
"37 0 OFFCURVE",
"69 0 CURVE SMOOTH",
"88 0 OFFCURVE",
"121 23 OFFCURVE",
"169 69 CURVE SMOOTH",
"244 145 LINE",
"194 46 LINE SMOOTH",
"161 -15 OFFCURVE",
"130 -64 OFFCURVE",
"99 -100 CURVE SMOOTH",
"56 -150 OFFCURVE",
"15 -175 OFFCURVE",
"-23 -175 CURVE SMOOTH",
"-32 -175 OFFCURVE",
"-42 -170 OFFCURVE",
"-52 -160 CURVE SMOOTH",
"-72 -140 OFFCURVE",
"-67 -114 OFFCURVE",
"-75 -114 CURVE SMOOTH",
"-79 -114 OFFCURVE",
"-82 -118 OFFCURVE",
"-84 -126 CURVE",
"-83 -165 OFFCURVE",
"-51 -205 OFFCURVE",
"-11 -205 CURVE SMOOTH",
"45 -205 OFFCURVE",
"103 -164 OFFCURVE",
"164 -83 CURVE SMOOTH",
"194 -44 OFFCURVE",
"235 25 OFFCURVE",
"288 124 CURVE SMOOTH",
"301 148 OFFCURVE",
"320 182 OFFCURVE",
"346 227 CURVE SMOOTH",
"364 256 OFFCURVE",
"374 274 OFFCURVE",
"375 281 CURVE"
);
},
{
closed = 1;
nodes = (
"218 150 LINE",
"151 65 OFFCURVE",
"98 23 OFFCURVE",
"60 23 CURVE SMOOTH",
"47 23 OFFCURVE",
"39 31 OFFCURVE",
"36 47 CURVE SMOOTH",
"29 89 OFFCURVE",
"61 144 OFFCURVE",
"133 212 CURVE SMOOTH",
"202 277 OFFCURVE",
"258 310 OFFCURVE",
"299 310 CURVE SMOOTH",
"312 310 OFFCURVE",
"320 305 OFFCURVE",
"324 296 CURVE"
);
}
);
width = 370;
}
);
note = g;
unicode = 0067;
},
{
glyphname = h;
layers = (
{
hints = (
{
horizontal = 1;
place = "{-5, 21}";
target = up;
type = BottomGhost;
},
{
place = "{178, 45}";
type = Stem;
}
);
layerId = "2B98CC2F-ACFB-4214-A552-9F7A1112B617";
paths = (
{
closed = 1;
nodes = (
"418 157 OFFCURVE",
"420 163 OFFCURVE",
"420 168 CURVE SMOOTH",
"420 171 OFFCURVE",
"419 172 OFFCURVE",
"416 172 CURVE SMOOTH",
"413 172 OFFCURVE",
"407 168 OFFCURVE",
"402 163 CURVE SMOOTH",
"374 130 OFFCURVE",
"289 35 OFFCURVE",
"240 33 CURVE SMOOTH",
"230 33 OFFCURVE",
"223 39 OFFCURVE",
"223 56 CURVE SMOOTH",
"223 85 OFFCURVE",
"245 129 OFFCURVE",
"289 188 CURVE SMOOTH",
"337 253 OFFCURVE",
"361 286 OFFCURVE",
"361 287 CURVE",
"362 289 OFFCURVE",
"362 291 OFFCURVE",
"362 293 CURVE SMOOTH",
"362 313 OFFCURVE",
"350 321 OFFCURVE",
"325 318 CURVE SMOOTH",
"302 315 OFFCURVE",
"254 288 OFFCURVE",
"181 237 CURVE SMOOTH",
"144 211 OFFCURVE",
"107 185 OFFCURVE",
"70 158 CURVE",
"79 184 OFFCURVE",
"118 242 OFFCURVE",
"189 332 CURVE SMOOTH",
"256 419 OFFCURVE",
"291 469 OFFCURVE",
"293 484 CURVE",
"289 501 OFFCURVE",
"282 507 OFFCURVE",
"271 504 CURVE SMOOTH",
"238 493 OFFCURVE",
"182 424 OFFCURVE",
"103 297 CURVE SMOOTH",
"66 238 OFFCURVE",
"17 153 OFFCURVE",
"-44 44 CURVE SMOOTH",
"-52 29 OFFCURVE",
"-56 19 OFFCURVE",
"-56 12 CURVE SMOOTH",
"-56 1 OFFCURVE",
"-46 -5 OFFCURVE",
"-27 -5 CURVE SMOOTH",
"-22 -5 OFFCURVE",
"-10 9 OFFCURVE",
"10 37 CURVE SMOOTH",
"21 52 OFFCURVE",
"31 67 OFFCURVE",
"41 82 CURVE",
"110 165 OFFCURVE",
"187 228 OFFCURVE",
"273 271 CURVE",
"253 239 OFFCURVE",
"233 207 OFFCURVE",
"214 175 CURVE SMOOTH",
"190 133 OFFCURVE",
"178 99 OFFCURVE",
"178 73 CURVE SMOOTH",
"178 27 OFFCURVE",
"198 4 OFFCURVE",
"237 4 CURVE SMOOTH",
"270 4 OFFCURVE",
"381 110 OFFCURVE",
"412 149 CURVE SMOOTH"
);
}
);
width = 376;
}
);
note = h;
unicode = 0068;
},
{
glyphname = i;
layers = (
{
hints = (
{
horizontal = 1;
place = "{-12, 22}";
type = Stem;
},
{
horizontal = 1;
place = "{344, 64}";
type = Stem;
},
{
place = "{-15, 38}";
type = Stem;
},
{
place = "{179, 80}";
type = Stem;
}
);
layerId = "2B98CC2F-ACFB-4214-A552-9F7A1112B617";
paths = (
{
closed = 1;
nodes = (
"259 394 OFFCURVE",
"236 408 OFFCURVE",
"217 408 CURVE SMOOTH",
"192 408 OFFCURVE",
"179 399 OFFCURVE",
"179 380 CURVE SMOOTH",
"179 361 OFFCURVE",
"198 344 OFFCURVE",
"221 344 CURVE SMOOTH",
"237 344 OFFCURVE",
"259 359 OFFCURVE",
"259 375 CURVE SMOOTH"
);
},
{
closed = 1;
nodes = (
"252 135 OFFCURVE",
"269 156 OFFCURVE",
"269 163 CURVE SMOOTH",
"269 167 OFFCURVE",
"268 169 OFFCURVE",
"265 169 CURVE SMOOTH",
"262 169 OFFCURVE",
"251 163 OFFCURVE",
"238 146 CURVE SMOOTH",
"218 121 OFFCURVE",
"197 101 OFFCURVE",
"161 71 CURVE SMOOTH",
"147 59 OFFCURVE",
"81 9 OFFCURVE",
"48 9 CURVE SMOOTH",
"33 9 OFFCURVE",
"23 18 OFFCURVE",
"23 41 CURVE SMOOTH",
"23 68 OFFCURVE",
"48 114 OFFCURVE",
"98 179 CURVE SMOOTH",
"149 245 OFFCURVE",
"174 278 OFFCURVE",
"174 277 CURVE SMOOTH",
"174 289 OFFCURVE",
"151 301 OFFCURVE",
"139 301 CURVE SMOOTH",
"114 300 OFFCURVE",
"84 269 OFFCURVE",
"47 209 CURVE SMOOTH",
"13 154 OFFCURVE",
"-7 108 OFFCURVE",
"-13 73 CURVE SMOOTH",
"-14 67 OFFCURVE",
"-15 61 OFFCURVE",
"-15 55 CURVE SMOOTH",
"-15 6 OFFCURVE",
"7 -11 OFFCURVE",
"36 -11 CURVE SMOOTH",
"115 -11 OFFCURVE",
"177 59 OFFCURVE",
"226 108 CURVE SMOOTH"
);
}
);
width = 226;
}
);
note = i;
unicode = 0069;
},
{
glyphname = j;
layers = (
{
hints = (
{
horizontal = 1;
place = "{-205, 27}";
type = Stem;
},
{
horizontal = 1;
place = "{346, 64}";
type = Stem;
},
{
place = "{166, 80}";
type = Stem;
}
);
layerId = "2B98CC2F-ACFB-4214-A552-9F7A1112B617";
paths = (
{
closed = 1;
nodes = (
"246 395 OFFCURVE",
"223 410 OFFCURVE",
"204 410 CURVE SMOOTH",
"179 410 OFFCURVE",
"166 400 OFFCURVE",
"166 381 CURVE SMOOTH",
"166 362 OFFCURVE",
"185 346 OFFCURVE",
"208 346 CURVE SMOOTH",
"224 346 OFFCURVE",
"246 360 OFFCURVE",
"246 376 CURVE SMOOTH"
);
},
{
closed = 1;
nodes = (
"185 287 OFFCURVE",
"176 294 OFFCURVE",
"158 294 CURVE SMOOTH",
"145 294 OFFCURVE",
"132 288 OFFCURVE",
"118 275 CURVE SMOOTH",
"85 240 LINE SMOOTH",
"82 237 OFFCURVE",
"71 222 OFFCURVE",
"52 195 CURVE SMOOTH",
"35 171 OFFCURVE",
"20 153 OFFCURVE",
"7 142 CURVE SMOOTH",
"-2 134 OFFCURVE",
"-6 127 OFFCURVE",
"-6 121 CURVE SMOOTH",
"-6 119 OFFCURVE",
"-5 118 OFFCURVE",
"-3 118 CURVE SMOOTH",
"4 118 OFFCURVE",
"18 128 OFFCURVE",
"40 148 CURVE SMOOTH",
"57 164 OFFCURVE",
"70 177 OFFCURVE",
"78 186 CURVE",
"62 138 OFFCURVE",
"33 77 OFFCURVE",
"-8 3 CURVE SMOOTH",
"-76 -118 OFFCURVE",
"-137 -178 OFFCURVE",
"-190 -178 CURVE SMOOTH",
"-208 -178 OFFCURVE",
"-223 -169 OFFCURVE",
"-236 -152 CURVE SMOOTH",
"-249 -135 OFFCURVE",
"-255 -127 OFFCURVE",
"-256 -127 CURVE SMOOTH",
"-262 -127 OFFCURVE",
"-265 -133 OFFCURVE",
"-265 -146 CURVE SMOOTH",
"-265 -160 OFFCURVE",
"-256 -173 OFFCURVE",
"-239 -186 CURVE SMOOTH",
"-222 -199 OFFCURVE",
"-203 -205 OFFCURVE",
"-184 -205 CURVE SMOOTH",
"-131 -205 OFFCURVE",
"-74 -162 OFFCURVE",
"-13 -75 CURVE SMOOTH",
"15 -36 OFFCURVE",
"55 33 OFFCURVE",
"106 130 CURVE SMOOTH",
"150 206 LINE SMOOTH",
"173 247 OFFCURVE",
"185 269 OFFCURVE",
"185 272 CURVE SMOOTH"
);
}
);
width = 201;
}
);
note = j;
unicode = 006A;
},
{
glyphname = k;
layers = (
{
hints = (
{
horizontal = 1;
place = "{-12, 30}";
type = Stem;
},
{
horizontal = 1;
place = "{142, 26}";
type = Stem;
},
{
horizontal = 1;
place = "{318, 23}";
type = Stem;
},
{
horizontal = 1;
place = "{318, 181}";
type = Stem;
}
);
layerId = "2B98CC2F-ACFB-4214-A552-9F7A1112B617";
paths = (
{
closed = 1;
nodes = (
"436 156 OFFCURVE",
"438 161 OFFCURVE",
"438 164 CURVE SMOOTH",
"438 167 OFFCURVE",
"436 170 OFFCURVE",
"433 170 CURVE SMOOTH",
"427 170 OFFCURVE",
"425 168 OFFCURVE",
"420 163 CURVE SMOOTH",
"340 68 OFFCURVE",
"264 18 OFFCURVE",
"221 18 CURVE SMOOTH",
"178 18 OFFCURVE",
"147 59 OFFCURVE",
"128 142 CURVE",
"125 151 OFFCURVE",
"131 156 OFFCURVE",
"139 155 CURVE",
"153 146 OFFCURVE",
"177 142 OFFCURVE",
"211 142 CURVE SMOOTH",
"242 142 OFFCURVE",
"278 152 OFFCURVE",
"317 173 CURVE SMOOTH",
"366 198 OFFCURVE",
"392 230 OFFCURVE",
"397 267 CURVE SMOOTH",
"399 284 OFFCURVE",
"392 300 OFFCURVE",
"376 316 CURVE SMOOTH",
"361 333 OFFCURVE",
"343 341 OFFCURVE",
"323 341 CURVE SMOOTH",
"286 341 OFFCURVE",
"238 325 OFFCURVE",
"178 294 CURVE",
"184 306 OFFCURVE",
"211 340 OFFCURVE",
"259 397 CURVE SMOOTH",
"303 449 OFFCURVE",
"325 478 OFFCURVE",
"325 483 CURVE SMOOTH",
"325 494 OFFCURVE",
"315 499 OFFCURVE",
"294 499 CURVE SMOOTH",
"286 499 OFFCURVE",
"281 498 OFFCURVE",
"278 496 CURVE SMOOTH",
"247 474 OFFCURVE",
"188 399 OFFCURVE",
"103 272 CURVE SMOOTH",
"16 142 OFFCURVE",
"-28 62 OFFCURVE",
"-28 33 CURVE SMOOTH",
"-28 17 OFFCURVE",
"-16 4 OFFCURVE",
"8 -5 CURVE",
"39 57 LINE SMOOTH",
"52 82 OFFCURVE",
"62 101 OFFCURVE",
"71 113 CURVE",
"97 54 OFFCURVE",
"138 -12 OFFCURVE",
"205 -12 CURVE SMOOTH",
"237 -12 OFFCURVE",
"278 5 OFFCURVE",
"329 45 CURVE SMOOTH",
"372 79 OFFCURVE",
"413 127 OFFCURVE",
"431 149 CURVE SMOOTH"
);
},
{
closed = 1;
nodes = (
"349 263 OFFCURVE",
"321 233 OFFCURVE",
"265 205 CURVE SMOOTH",
"216 180 OFFCURVE",
"177 168 OFFCURVE",
"147 168 CURVE SMOOTH",
"144 168 OFFCURVE",
"114 171 OFFCURVE",
"99 171 CURVE",
"110 209 OFFCURVE",
"142 244 OFFCURVE",
"195 276 CURVE SMOOTH",
"243 304 OFFCURVE",
"285 318 OFFCURVE",
"321 318 CURVE SMOOTH",
"334 318 OFFCURVE",
"349 305 OFFCURVE",
"349 294 CURVE SMOOTH"
);
}
);
width = 394;
}
);
note = k;
unicode = 006B;
},
{
glyphname = l;
layers = (
{
hints = (
{
horizontal = 1;
place = "{-2, 22}";
type = Stem;
},
{
horizontal = 1;
place = "{498, -20}";
target = down;
type = TopGhost;
}
);
layerId = "2B98CC2F-ACFB-4214-A552-9F7A1112B617";
paths = (
{
closed = 1;
nodes = (
"304 486 OFFCURVE",
"286 498 OFFCURVE",
"273 498 CURVE SMOOTH",
"240 498 OFFCURVE",
"185 435 OFFCURVE",
"107 308 CURVE SMOOTH",
"61 234 OFFCURVE",
"31 177 OFFCURVE",
"14 137 CURVE SMOOTH",
"5 114 OFFCURVE",
"-3 86 OFFCURVE",
"-3 61 CURVE SMOOTH",
"-3 15 OFFCURVE",
"37 -2 OFFCURVE",
"76 -2 CURVE SMOOTH",
"137 -2 OFFCURVE",
"202 63 OFFCURVE",
"243 108 CURVE SMOOTH",
"267 135 LINE SMOOTH",
"272 141 OFFCURVE",
"284 156 OFFCURVE",
"284 160 CURVE SMOOTH",
"284 164 OFFCURVE",
"282 166 OFFCURVE",
"279 166 CURVE SMOOTH",
"274 166 OFFCURVE",
"264 158 OFFCURVE",
"258 150 CURVE SMOOTH",
"190 68 OFFCURVE",
"114 20 OFFCURVE",
"71 20 CURVE SMOOTH",
"47 20 OFFCURVE",
"39 35 OFFCURVE",
"39 51 CURVE SMOOTH",
"39 102 OFFCURVE",
"80 156 OFFCURVE",
"104 195 CURVE SMOOTH",
"136 244 OFFCURVE",
"180 306 OFFCURVE",
"235 380 CURVE SMOOTH",
"282 443 OFFCURVE",
"305 474 OFFCURVE",
"305 474 CURVE"
);
}
);
width = 243;
}
);
note = l;
unicode = 006C;
},
{
glyphname = m;
layers = (
{
hints = (
{
horizontal = 1;
place = "{12, 23}";
type = Stem;
},
{
horizontal = 1;
place = "{329, -20}";
target = down;
type = TopGhost;
},
{
horizontal = 1;
place = "{-1, 21}";
target = up;
type = BottomGhost;
},
{
horizontal = 1;
place = "{-2, 21}";
target = up;
type = BottomGhost;
}
);
layerId = "2B98CC2F-ACFB-4214-A552-9F7A1112B617";
paths = (
{
closed = 1;
nodes = (
"677 159 OFFCURVE",
"681 166 OFFCURVE",
"681 170 CURVE SMOOTH",
"681 173 OFFCURVE",
"679 175 OFFCURVE",
"675 175 CURVE SMOOTH",
"668 175 OFFCURVE",
"658 164 OFFCURVE",
"650 155 CURVE SMOOTH",
"585 80 OFFCURVE",
"519 35 OFFCURVE",
"486 35 CURVE SMOOTH",
"458 35 OFFCURVE",
"446 47 OFFCURVE",
"449 71 CURVE SMOOTH",
"454 106 OFFCURVE",
"478 151 OFFCURVE",
"523 207 CURVE SMOOTH",
"566 262 OFFCURVE",
"587 290 OFFCURVE",
"587 291 CURVE SMOOTH",
"587 304 OFFCURVE",
"570 316 OFFCURVE",
"554 316 CURVE SMOOTH",
"527 316 OFFCURVE",
"482 292 OFFCURVE",
"419 243 CURVE",
"419 242 OFFCURVE",
"382 211 OFFCURVE",
"308 149 CURVE",
"310 156 OFFCURVE",
"324 184 OFFCURVE",
"350 231 CURVE SMOOTH",
"376 276 OFFCURVE",
"389 301 OFFCURVE",
"389 304 CURVE SMOOTH",
"389 319 OFFCURVE",
"372 329 OFFCURVE",
"357 329 CURVE SMOOTH",
"331 329 OFFCURVE",
"277 291 OFFCURVE",
"195 215 CURVE SMOOTH",
"142 166 OFFCURVE",
"101 126 OFFCURVE",
"72 94 CURVE",
"77 112 OFFCURVE",
"98 151 OFFCURVE",
"133 212 CURVE SMOOTH",
"167 269 OFFCURVE",
"184 300 OFFCURVE",
"184 305 CURVE SMOOTH",
"184 318 OFFCURVE",
"177 324 OFFCURVE",
"164 324 CURVE SMOOTH",
"151 324 OFFCURVE",
"140 319 OFFCURVE",
"133 309 CURVE SMOOTH",
"85 241 OFFCURVE",
"52 196 OFFCURVE",
"35 174 CURVE SMOOTH",
"12 145 OFFCURVE",
"-9 123 OFFCURVE",
"-29 103 CURVE SMOOTH",
"-36 96 OFFCURVE",
"-37 91 OFFCURVE",
"-37 89 CURVE SMOOTH",
"-37 84 OFFCURVE",
"-35 82 OFFCURVE",
"-32 82 CURVE SMOOTH",
"-24 82 OFFCURVE",
"-7 101 OFFCURVE",
"-4 104 CURVE SMOOTH",
"56 167 LINE",
"46 145 OFFCURVE",
"36 123 OFFCURVE",
"27 101 CURVE SMOOTH",
"12 66 OFFCURVE",
"4 44 OFFCURVE",
"4 34 CURVE SMOOTH",
"4 22 OFFCURVE",
"17 -1 OFFCURVE",
"36 -1 CURVE SMOOTH",
"40 -1 OFFCURVE",
"55 15 OFFCURVE",
"81 48 CURVE SMOOTH",
"117 94 OFFCURVE",
"149 132 OFFCURVE",
"176 161 CURVE SMOOTH",
"223 211 OFFCURVE",
"272 252 OFFCURVE",
"322 285 CURVE",
"300 240 OFFCURVE",
"278 196 OFFCURVE",
"257 151 CURVE SMOOTH",
"234 104 OFFCURVE",
"219 62 OFFCURVE",
"212 25 CURVE",
"212 7 OFFCURVE",
"220 -2 OFFCURVE",
"236 -2 CURVE SMOOTH",
"244 -2 OFFCURVE",
"250 1 OFFCURVE",
"253 6 CURVE",
"274 62 OFFCURVE",
"313 119 OFFCURVE",
"371 176 CURVE SMOOTH",
"420 223 OFFCURVE",
"466 258 OFFCURVE",
"509 279 CURVE",
"486 250 OFFCURVE",
"465 217 OFFCURVE",
"446 180 CURVE SMOOTH",
"427 143 OFFCURVE",
"416 114 OFFCURVE",
"412 93 CURVE SMOOTH",
"411 87 OFFCURVE",
"410 81 OFFCURVE",
"410 75 CURVE SMOOTH",
"410 33 OFFCURVE",
"433 12 OFFCURVE",
"478 12 CURVE SMOOTH",
"500 12 OFFCURVE",
"531 27 OFFCURVE",
"571 56 CURVE SMOOTH",
"609 85 OFFCURVE",
"640 116 OFFCURVE",
"672 154 CURVE SMOOTH"
);
}
);
width = 631;
}
);
note = m;
unicode = 006D;
},
{
glyphname = n;
layers = (
{
hints = (
{
horizontal = 1;
place = "{-1, 21}";
target = up;
type = BottomGhost;
},
{
place = "{206, 44}";
type = Stem;
},
{
horizontal = 1;
place = "{-2, 21}";
target = up;
type = BottomGhost;
}
);
layerId = "2B98CC2F-ACFB-4214-A552-9F7A1112B617";
paths = (
{
closed = 1;
nodes = (
"105 260 OFFCURVE",
"52 196 OFFCURVE",
"35 174 CURVE SMOOTH",
"12 145 OFFCURVE",
"-9 123 OFFCURVE",
"-29 103 CURVE SMOOTH",
"-36 96 OFFCURVE",
"-37 91 OFFCURVE",
"-37 89 CURVE SMOOTH",
"-37 84 OFFCURVE",
"-35 82 OFFCURVE",
"-32 82 CURVE SMOOTH",
"-24 82 OFFCURVE",
"-7 101 OFFCURVE",
"-4 104 CURVE SMOOTH",
"56 167 LINE",
"46 145 OFFCURVE",
"36 123 OFFCURVE",
"27 101 CURVE SMOOTH",
"18 80 OFFCURVE",
"10 45 OFFCURVE",
"10 34 CURVE SMOOTH",
"10 27 OFFCURVE",
"13 20 OFFCURVE",
"18 13 CURVE SMOOTH",
"24 4 OFFCURVE",
"32 -1 OFFCURVE",
"42 -1 CURVE SMOOTH",
"47 -1 OFFCURVE",
"61 15 OFFCURVE",
"85 46 CURVE SMOOTH",
"121 92 OFFCURVE",
"151 128 OFFCURVE",
"175 155 CURVE SMOOTH",
"219 204 OFFCURVE",
"264 246 OFFCURVE",
"310 280 CURVE",
"246 176 LINE SMOOTH",
"219 129 OFFCURVE",
"206 92 OFFCURVE",
"206 52 CURVE SMOOTH",
"206 21 OFFCURVE",
"219 -2 OFFCURVE",
"255 -2 CURVE SMOOTH",
"305 -2 OFFCURVE",
"401 105 OFFCURVE",
"431 139 CURVE SMOOTH",
"437 146 OFFCURVE",
"445 162 OFFCURVE",
"445 167 CURVE SMOOTH",
"445 172 OFFCURVE",
"444 175 OFFCURVE",
"441 175 CURVE SMOOTH",
"438 175 OFFCURVE",
"422 153 OFFCURVE",
"417 148 CURVE SMOOTH",
"393 121 OFFCURVE",
"367 93 OFFCURVE",
"336 67 CURVE SMOOTH",
"303 40 OFFCURVE",
"279 27 OFFCURVE",
"264 27 CURVE SMOOTH",
"250 27 OFFCURVE",
"250 45 OFFCURVE",
"250 54 CURVE SMOOTH",
"250 76 OFFCURVE",
"262 110 OFFCURVE",
"286 148 CURVE SMOOTH",
"301 171 OFFCURVE",
"324 202 OFFCURVE",
"355 239 CURVE SMOOTH",
"380 271 OFFCURVE",
"394 290 OFFCURVE",
"396 295 CURVE SMOOTH",
"397 298 OFFCURVE",
"397 300 OFFCURVE",
"397 303 CURVE SMOOTH",
"397 322 OFFCURVE",
"385 330 OFFCURVE",
"360 327 CURVE",
"327 327 OFFCURVE",
"232 249 OFFCURVE",
"77 94 CURVE",
"89 137 OFFCURVE",
"125 200 OFFCURVE",
"185 283 CURVE",
"187 287 OFFCURVE",
"188 291 OFFCURVE",
"188 295 CURVE SMOOTH",
"188 309 OFFCURVE",
"179 316 OFFCURVE",
"161 316 CURVE SMOOTH",
"158 316 OFFCURVE",
"149 313 OFFCURVE",
"142 304 CURVE SMOOTH"
);
}
);
width = 403;
}
);
note = n;
unicode = 006E;
},
{
glyphname = o;
layers = (
{
hints = (
{
horizontal = 1;
place = "{-2, 30}";
type = Stem;
},
{
horizontal = 1;
place = "{344, -20}";
target = down;
type = TopGhost;
},
{
place = "{-10, 47}";
type = Stem;
}
);
layerId = "2B98CC2F-ACFB-4214-A552-9F7A1112B617";
paths = (
{
closed = 1;
nodes = (
"314 257 OFFCURVE",
"292 251 OFFCURVE",
"275 251 CURVE SMOOTH",
"270 251 OFFCURVE",
"266 252 OFFCURVE",
"265 254 CURVE",
"268 267 OFFCURVE",
"270 279 OFFCURVE",
"270 290 CURVE SMOOTH",
"270 326 OFFCURVE",
"253 344 OFFCURVE",
"219 344 CURVE SMOOTH",
"183 344 OFFCURVE",
"136 308 OFFCURVE",
"77 235 CURVE SMOOTH",
"19 163 OFFCURVE",
"-10 107 OFFCURVE",
"-10 67 CURVE SMOOTH",
"-10 52 OFFCURVE",
"-6 38 OFFCURVE",
"2 25 CURVE SMOOTH",
"12 7 OFFCURVE",
"26 -2 OFFCURVE",
"43 -2 CURVE SMOOTH",
"59 -2 LINE SMOOTH",
"96 -2 OFFCURVE",
"141 30 OFFCURVE",
"194 95 CURVE SMOOTH",
"245 157 OFFCURVE",
"267 199 OFFCURVE",
"260 221 CURVE",
"311 242 OFFCURVE",
"338 258 OFFCURVE",
"339 270 CURVE"
);
},
{
closed = 1;
nodes = (
"236 195 OFFCURVE",
"214 158 OFFCURVE",
"171 107 CURVE SMOOTH",
"126 54 OFFCURVE",
"89 28 OFFCURVE",
"61 28 CURVE SMOOTH",
"46 28 OFFCURVE",
"38 38 OFFCURVE",
"37 59 CURVE SMOOTH",
"36 87 OFFCURVE",
"56 128 OFFCURVE",
"98 182 CURVE SMOOTH",
"141 237 OFFCURVE",
"173 264 OFFCURVE",
"196 264 CURVE",
"212 239 OFFCURVE",
"225 224 OFFCURVE",
"236 218 CURVE"
);
}
);
width = 281;
}
);
note = o;
unicode = 006F;
},
{
glyphname = p;
layers = (
{
hints = (
{
horizontal = 1;
place = "{0, 28}";
type = Stem;
},
{
horizontal = 1;
place = "{274, 28}";
type = Stem;
},
{
place = "{-100, 38}";
type = Stem;
},
{
place = "{326, 51}";
type = Stem;
},
{
horizontal = 1;
place = "{310, -20}";
target = down;
type = TopGhost;
}
);
layerId = "2B98CC2F-ACFB-4214-A552-9F7A1112B617";
paths = (
{
closed = 1;
nodes = (
"377 273 OFFCURVE",
"336 305 OFFCURVE",
"281 302 CURVE SMOOTH",
"271 301 OFFCURVE",
"256 298 OFFCURVE",
"236 292 CURVE SMOOTH",
"214 286 OFFCURVE",
"200 280 OFFCURVE",
"193 273 CURVE",
"193 298 OFFCURVE",
"187 310 OFFCURVE",
"176 310 CURVE SMOOTH",
"172 310 OFFCURVE",
"168 309 OFFCURVE",
"163 308 CURVE SMOOTH",
"135 299 OFFCURVE",
"85 241 OFFCURVE",
"13 134 CURVE SMOOTH",
"-62 23 OFFCURVE",
"-100 -55 OFFCURVE",
"-100 -102 CURVE SMOOTH",
"-100 -145 OFFCURVE",
"-86 -174 OFFCURVE",
"-58 -189 CURVE SMOOTH",
"-51 -193 OFFCURVE",
"-40 -185 OFFCURVE",
"-43 -178 CURVE",
"-51 -165 OFFCURVE",
"-62 -151 OFFCURVE",
"-62 -128 CURVE SMOOTH",
"-62 -101 OFFCURVE",
"-52 -67 OFFCURVE",
"-31 -26 CURVE SMOOTH",
"-13 10 OFFCURVE",
"2 33 OFFCURVE",
"13 42 CURVE",
"30 22 OFFCURVE",
"46 10 OFFCURVE",
"62 5 CURVE SMOOTH",
"72 2 OFFCURVE",
"93 0 OFFCURVE",
"124 0 CURVE SMOOTH",
"169 0 OFFCURVE",
"221 23 OFFCURVE",
"280 69 CURVE SMOOTH",
"345 120 OFFCURVE",
"377 172 OFFCURVE",
"377 226 CURVE SMOOTH"
);
},
{
closed = 1;
nodes = (
"326 180 OFFCURVE",
"297 130 OFFCURVE",
"240 85 CURVE SMOOTH",
"191 47 OFFCURVE",
"148 28 OFFCURVE",
"111 28 CURVE SMOOTH",
"94 28 OFFCURVE",
"77 30 OFFCURVE",
"61 35 CURVE SMOOTH",
"39 42 OFFCURVE",
"28 51 OFFCURVE",
"28 64 CURVE SMOOTH",
"28 79 OFFCURVE",
"54 114 OFFCURVE",
"107 169 CURVE SMOOTH",
"156 220 OFFCURVE",
"186 249 OFFCURVE",
"199 255 CURVE SMOOTH",
"224 268 OFFCURVE",
"251 274 OFFCURVE",
"279 274 CURVE SMOOTH",
"310 274 OFFCURVE",
"326 261 OFFCURVE",
"326 236 CURVE SMOOTH"
);
}
);
width = 377;
}
);
note = p;
unicode = 0070;
},
{
glyphname = q;
layers = (
{
hints = (
{
horizontal = 1;
place = "{-242, 20}";
type = Stem;
},
{
horizontal = 1;
place = "{251, 50}";
type = Stem;
},
{
place = "{81, 31}";
type = Stem;
},
{
place = "{81, 194}";
type = Stem;
}
);
layerId = "2B98CC2F-ACFB-4214-A552-9F7A1112B617";
paths = (
{
closed = 1;
nodes = (
"338 228 LINE",
"340 231 OFFCURVE",
"341 234 OFFCURVE",
"341 236 CURVE SMOOTH",
"341 238 OFFCURVE",
"339 240 OFFCURVE",
"336 243 CURVE SMOOTH",
"324 252 LINE",
"324 284 LINE",
"321 295 OFFCURVE",
"312 301 OFFCURVE",
"297 301 CURVE SMOOTH",
"252 301 OFFCURVE",
"192 281 OFFCURVE",
"118 240 CURVE SMOOTH",
"87 223 OFFCURVE",
"56 197 OFFCURVE",
"25 162 CURVE SMOOTH",
"-10 121 OFFCURVE",
"-28 87 OFFCURVE",
"-28 58 CURVE SMOOTH",
"-28 19 OFFCURVE",
"-9 1 OFFCURVE",
"29 4 CURVE SMOOTH",
"52 6 OFFCURVE",
"84 21 OFFCURVE",
"123 48 CURVE",
"77 -59 LINE SMOOTH",
"60 -99 OFFCURVE",
"52 -134 OFFCURVE",
"52 -165 CURVE SMOOTH",
"52 -216 OFFCURVE",
"69 -242 OFFCURVE",
"104 -242 CURVE SMOOTH",
"139 -242 OFFCURVE",
"173 -218 OFFCURVE",
"204 -169 CURVE SMOOTH",
"232 -126 OFFCURVE",
"246 -88 OFFCURVE",
"246 -56 CURVE SMOOTH",
"246 -41 OFFCURVE",
"242 -27 OFFCURVE",
"233 -13 CURVE SMOOTH",
"222 5 OFFCURVE",
"207 14 OFFCURVE",
"188 14 CURVE SMOOTH",
"170 14 OFFCURVE",
"159 13 OFFCURVE",
"156 12 CURVE",
"175 56 OFFCURVE",
"210 103 OFFCURVE",
"259 153 CURVE SMOOTH"
);
},
{
closed = 1;
nodes = (
"160 111 LINE SMOOTH",
"104 53 OFFCURVE",
"59 24 OFFCURVE",
"26 24 CURVE SMOOTH",
"7 24 OFFCURVE",
"0 32 OFFCURVE",
"3 49 CURVE SMOOTH",
"12 94 OFFCURVE",
"52 141 OFFCURVE",
"125 188 CURVE SMOOTH",
"190 230 OFFCURVE",
"240 251 OFFCURVE",
"273 251 CURVE SMOOTH",
"281 251 OFFCURVE",
"285 249 OFFCURVE",
"286 245 CURVE"
);
},
{
closed = 1;
nodes = (
"207 -83 OFFCURVE",
"198 -114 OFFCURVE",
"181 -153 CURVE SMOOTH",
"160 -199 OFFCURVE",
"137 -222 OFFCURVE",
"113 -222 CURVE SMOOTH",
"104 -222 OFFCURVE",
"96 -216 OFFCURVE",
"90 -204 CURVE SMOOTH",
"85 -195 OFFCURVE",
"83 -186 OFFCURVE",
"83 -179 CURVE SMOOTH",
"83 -160 OFFCURVE",
"91 -130 OFFCURVE",
"106 -91 CURVE SMOOTH",
"120 -57 OFFCURVE",
"133 -30 OFFCURVE",
"146 -9 CURVE",
"168 -10 OFFCURVE",
"183 -14 OFFCURVE",
"190 -19 CURVE SMOOTH",
"200 -26 OFFCURVE",
"205 -40 OFFCURVE",
"206 -61 CURVE SMOOTH"
);
}
);
width = 332;
}
);
note = q;
unicode = 0071;
},
